<svg width="362" height="439" viewBox="0 0 362 439" fill="none" xmlns="http://www.w3.org/2000/svg">
<g clip-path="url(#clip0_70_31)">
<path d="M307.255 257.883C305.132 258.934 302.947 259.856 300.713 260.644C291.816 263.596 282.934 266.42 273.933 269.276C271.494 269.997 268.974 270.411 266.433 270.51C262.232 270.818 258.087 271.657 254.098 273.008C248.245 274.831 242.429 276.752 236.562 278.548C232.987 279.504 229.257 279.729 225.593 279.21C220.168 278.867 214.724 278.93 209.308 279.398C206.167 279.579 203.007 279.601 199.858 279.736C194.37 279.88 188.964 281.096 183.944 283.317C178.205 286.027 173.75 290.118 168.888 293.806C168.714 293.953 168.752 294.271 168.327 294.979C169.67 294.428 170.608 294.066 171.52 293.718C176.541 291.216 181.847 289.333 187.323 288.112C191.209 287.403 195.125 286.966 199.013 286.324C202.115 285.825 205.198 285.167 208.266 284.636C213.041 283.494 217.989 283.27 222.848 283.975C226.161 284.323 229.495 284.415 232.822 284.249C239.808 284.553 246.806 284.816 253.794 285.338C255.893 285.607 257.936 286.202 259.851 287.102C260.74 287.36 261.289 288.484 262.154 289.349C261.44 289.995 261.033 290.643 260.442 290.866C255.04 293.322 249.366 295.133 243.54 296.262C239.478 296.897 235.534 298.181 231.503 299.088C228.949 299.659 226.342 300.039 223.794 300.589C220.46 301.284 217.137 302.09 213.811 302.831C212.01 302.957 210.243 303.383 208.582 304.09C207.079 304.955 205.426 305.529 203.709 305.782C201.864 306.205 200.123 306.996 198.591 308.108C197.059 309.22 195.768 310.631 194.795 312.255C194.178 313.203 193.46 314.081 192.653 314.873C189.47 318.016 185.956 320.805 182.172 323.19C179.488 324.884 177.127 326.978 174.547 328.768C172.761 330.036 170.89 331.182 168.949 332.198C164.255 334.555 159.48 336.735 154.824 339.037C151.561 340.716 148.349 342.497 145.187 344.38C141.49 346.732 137.563 348.701 133.467 350.255C128.438 352.033 123.471 354.048 118.361 355.649C115.528 356.546 112.592 357.075 109.624 357.223C106.447 357.412 103.463 358.808 101.282 361.125C97.5903 364.628 93.7807 368.009 90.2269 371.64C87.0323 375.091 84.0597 378.606 80.8449 382.051C79.5359 383.333 78.1307 384.512 76.6417 385.58C76.2346 385.927 75.7231 386.129 75.1885 386.152C74.6539 386.175 74.127 386.018 73.6917 385.707C72.9486 385.25 72.1795 384.807 71.4424 384.329C68.2548 382.263 68.5795 379.116 70.9351 376.516C75.7473 371.346 80.8693 366.616 85.7674 361.603C87.3607 359.862 88.8632 358.041 90.269 356.145C90.4985 355.883 90.6102 355.5 90.8624 355.31C94.0963 352.704 95.833 349.069 98.0452 345.683C99.3565 343.326 100.12 340.703 100.279 338.01C100.784 334.018 101.289 330.025 102.022 326.077C102.806 320.996 103.89 315.965 105.268 311.011C108.244 301.082 112.782 291.689 118.711 283.187C121.486 279.374 124.802 275.958 127.795 272.296C130.071 269.519 132.243 266.647 134.415 263.775C136.587 260.903 138.725 257.999 140.946 255.185C141.422 254.601 142.27 254.322 143.351 253.694C143.478 254.537 143.509 255.391 143.442 256.24C142.811 258.86 142.113 261.482 141.361 264.067C139.751 269.599 138.256 275.187 136.328 280.606C133.759 287.852 130.771 294.955 128.04 302.155C127.321 304.026 126.918 306.011 126.354 307.95C125.866 309.444 125.206 310.876 124.388 312.218C122.242 315.533 120.408 319.039 118.909 322.691C117.423 325.945 115.768 329.119 113.951 332.2C113.833 332.603 113.595 332.972 113.276 333.69C114.596 333.346 115.733 332.509 116.454 331.351C118.849 327.344 122.139 323.946 126.067 321.424C127.737 320.164 129.074 318.516 129.962 316.622C131.415 314.109 133.038 311.698 134.822 309.407C137.75 305.594 140.842 301.895 143.893 298.183C145.114 296.699 146.472 295.342 147.713 293.863C150.022 291.322 151.728 288.292 152.703 284.999C153.63 281.962 155.145 279.136 157.161 276.682C162.581 269.498 167.885 262.413 173.642 255.503C176.437 252.067 179.89 249.086 182.858 245.81C185.827 242.535 188.952 239.02 192.189 235.801C195.914 232.11 199.811 228.58 203.722 225.075C206.723 222.29 209.931 219.698 213.089 217.047C213.496 216.785 213.932 216.574 214.39 216.418C214.604 216.623 214.775 216.869 214.894 217.141C215.013 217.413 215.077 217.706 215.082 218.002C215.087 218.299 215.034 218.594 214.925 218.87C214.815 219.146 214.653 219.398 214.446 219.61C213.043 221.721 211.675 223.863 210.281 226.02C206.334 232.055 202.562 238.163 198.642 244.184C193.117 252.629 187.503 261.005 181.944 269.418C180.219 271.988 178.633 274.648 177.193 277.388C178.517 276.525 179.871 275.714 181.158 274.753C185.586 271.354 189.902 267.814 194.378 264.474C198.136 261.647 202.089 259.052 205.916 256.289C207.095 255.316 208.154 254.205 209.07 252.98C212.433 248.701 215.376 244.108 217.858 239.265C219.578 235.803 220.666 232.063 221.073 228.22C221.664 224.537 221.844 220.756 222.682 217.124C223.517 212.726 224.949 208.464 226.94 204.455C227.081 203.97 227.409 203.518 227.617 203.031C228.897 199.987 229.987 196.843 231.484 193.884C233.272 190.342 234.215 186.433 234.238 182.464C234.466 178.253 235.703 174.159 237.845 170.526C237.952 170.283 238.099 170.059 238.279 169.864C241.403 166.655 243.77 162.811 247.254 159.948C247.996 159.354 248.607 158.611 249.3 157.959C249.994 157.307 250.896 157.219 251.396 158.284C251.736 159.051 251.897 159.884 251.869 160.722C251.723 163.33 251.551 165.952 251.192 168.541C250.832 171.13 250.152 173.845 249.648 176.48C249.307 177.651 249.355 178.914 249.055 180.097C248.706 182.178 248.114 184.211 247.292 186.154C245.859 189.072 244.871 192.188 244.36 195.398C243.807 198.501 243.263 201.65 242.895 204.718C242.679 206.364 242.87 208.04 242.735 209.709C242.559 212.045 242.25 214.387 242.001 216.745C241.913 217.048 241.946 217.387 241.867 218.108C243.698 216.78 245.342 215.21 246.752 213.441C249.743 210.238 252.68 206.997 255.76 203.864C258.527 201.055 261.432 198.374 264.262 195.65C264.661 195.182 265.114 194.762 265.611 194.4C268.438 192.339 271.054 190.005 273.422 187.431C277.235 183.963 281.097 180.553 284.944 177.117C288.792 173.681 292.384 170.522 296.103 167.224C299.213 168.129 299.647 169.197 298.019 171.855C296.967 173.586 295.732 175.198 294.721 176.94C292.981 179.982 291.187 182.986 289.672 186.159C287.582 190.711 284.734 194.873 281.248 198.47C277.538 202.186 274.216 206.301 270.658 210.171C267.974 213.07 265.153 215.84 262.429 218.727C261.061 220.191 259.756 221.738 258.457 223.266C256.209 225.784 254.148 228.464 252.291 231.283C253.065 231.064 253.824 230.795 254.562 230.477C259.335 228.077 264.059 225.619 268.811 223.213C270.534 222.335 272.337 221.633 273.931 220.673C278.168 218.381 282.357 216.03 286.531 213.653C294.022 209.438 301.465 205.165 308.984 201.002C310.044 200.622 311.156 200.406 312.281 200.362C312.582 201.456 312.632 202.604 312.429 203.72C312.225 204.836 311.773 205.892 311.105 206.81C308.026 212.238 303.68 216.842 298.438 220.229C294.032 223.327 289.806 226.784 285.528 230.116C279.589 234.717 274.167 239.951 267.479 243.589C266.681 244.08 265.831 244.479 264.943 244.778C259.393 246.674 254.046 249.116 248.979 252.068C247.8 252.635 246.538 253.007 245.241 253.171C241.276 253.723 237.402 254.806 233.725 256.389C230.638 257.606 227.489 258.656 224.289 259.535C219.499 260.651 215.015 262.817 211.163 265.877C210.778 266.225 210.199 266.407 209.88 267.124C211.607 266.685 213.363 266.298 215.078 265.746C221.31 263.749 227.537 261.721 233.758 259.663C236.799 258.848 239.754 257.743 242.582 256.361C244.455 255.363 246.554 254.865 248.676 254.915C252.16 254.834 255.556 253.852 259.064 253.69C264.388 253.302 269.731 253.241 275.062 253.506C279.771 253.923 284.515 253.682 289.157 252.79C292.44 252.246 295.78 252.128 299.093 252.441C301.247 252.564 303.425 252.607 305.527 252.912C306.539 253.107 307.471 253.599 308.203 254.326C308.474 254.586 308.67 254.915 308.772 255.277C308.873 255.639 308.875 256.021 308.778 256.384C308.682 256.747 308.489 257.078 308.221 257.342C307.954 257.605 307.62 257.792 307.255 257.883ZM155.062 243.786C158.915 241.898 162.561 239.612 165.94 236.965C167.416 235.73 168.87 234.423 170.398 233.313C174.518 230.371 178.398 227.106 182.001 223.549C188.203 217.828 193.604 211.296 198.057 204.13C198.555 203.319 198.885 202.417 199.026 201.477C199.01 200.74 198.858 200.012 198.578 199.331C197.866 199.518 197.02 199.491 196.483 199.904C192.763 202.676 188.975 205.384 185.499 208.447C183.838 210.006 181.99 211.351 179.996 212.452C176.475 214.165 173.588 216.785 169.668 217.834C169.431 217.897 169.234 218.124 169.019 218.259C166.048 220.263 163.135 222.372 160.058 224.214C155.848 226.712 151.489 228.97 147.205 231.424C145.14 232.575 143.04 233.694 141.101 235.014C138.643 236.843 135.988 238.391 133.186 239.631C131.162 240.47 129.193 241.433 127.287 242.514C124.066 244.248 120.868 246.055 117.664 247.882C115.673 248.971 113.739 250.162 111.872 251.453C108.828 253.633 105.916 255.962 102.921 258.2C102.921 258.2 102.618 258.112 102.275 258.012C102.44 257.528 102.649 257.061 102.9 256.617C105.755 252.301 108.651 247.997 111.497 243.787C114.784 238.569 119.537 234.436 125.162 231.907C129.003 230.222 132.705 228.189 136.599 226.475C140.493 224.762 144.928 223.446 148.964 221.62C152.999 219.794 157.385 217.369 161.567 215.192C163.655 214.113 165.683 212.864 167.837 211.935C172.926 209.728 177.815 207.084 182.447 204.032C183.818 203.056 185.103 201.965 186.288 200.769C187.817 199.353 189.18 197.756 190.715 196.32C194.607 192.656 198.533 189.024 202.454 185.412C203.618 184.349 204.85 183.35 205.945 182.223C208.491 179.569 210.989 176.858 213.481 174.166C215.973 171.475 218.389 168.893 220.774 166.192C221.596 165.249 222.555 164.213 222.033 162.769C219.66 161.816 219.646 161.79 217.916 162.995C216.904 163.686 215.97 164.487 215.079 165.213C212.331 167.13 209.713 169.127 206.962 170.977C204.746 172.54 202.426 173.951 200.017 175.197C194.582 177.842 189.001 180.16 183.572 182.785C177.196 185.879 170.899 189.15 164.595 192.374C161.56 193.922 158.51 195.444 155.584 197.22C151.01 199.992 146.52 202.876 142.114 205.872C138.781 208.143 135.647 210.56 132.416 213.08C130.903 214.216 129.426 215.451 127.941 216.64L127.481 216.265C128.061 215.251 128.695 214.275 129.22 213.223C132.366 206.932 136.421 201.138 141.256 196.028C141.967 195.252 142.635 194.437 143.259 193.589C146.364 189.543 149.388 185.473 152.508 181.453C155.432 177.727 158.426 174.064 161.439 170.407C162.52 169.101 163.28 167.395 165.341 167.163C165.685 167.109 165.985 166.605 166.292 166.301C167.621 164.672 169.099 163.131 170.704 161.605C171.844 160.381 173.111 159.281 174.484 158.325C179.824 154.949 185.857 152.82 192.133 152.095C195.232 151.683 198.303 150.912 201.385 150.407C202.981 149.942 204.654 149.796 206.307 149.978C209.141 150.475 212.026 150.723 214.91 150.971C218.337 150.956 221.74 151.539 224.966 152.694C225.271 152.86 225.609 152.958 225.955 152.982C230.077 153.043 234.216 153.196 238.304 153.072C244.317 152.807 250.348 152.328 256.367 151.89C261.158 151.533 265.959 151.068 270.742 150.664C271.704 150.594 272.669 150.59 273.629 150.453C277.8 149.893 281.929 149.102 286.11 148.808C288.48 148.643 290.974 147.749 293.318 149.176C293.662 149.276 294.191 149.189 294.621 149.139C296.781 148.869 298.96 148.606 301.123 148.25C301.895 148.226 302.646 147.99 303.292 147.567C304.077 146.873 305.084 146.483 306.132 146.466C306.707 146.371 307.212 145.839 307.766 145.518C307.462 144.925 307.075 144.377 306.618 143.892C306.152 143.655 305.645 143.508 305.124 143.457C301.752 142.475 298.4 141.5 295.028 140.518C293.369 139.739 291.667 139.054 289.931 138.465C286.516 137.733 283.019 137.451 279.53 137.628C271.819 137.953 264.102 137.181 256.608 135.336C256.184 135.213 255.76 135.089 255.371 134.845C251.737 133.634 248.134 132.169 244.418 131.24C235.091 129.138 225.451 128.814 216.003 130.285L215.214 130.362C209.373 131.005 203.617 132.266 198.043 134.125C197.49 134.292 196.949 134.42 195.98 134.663C196.225 134.163 196.504 133.681 196.817 133.22C199.553 130.14 202.275 127.034 205.06 124.011C207.846 120.989 211.256 117.776 213.985 114.344C217.116 110.246 219.57 105.673 221.257 100.8C221.589 99.8061 222.042 98.8566 222.605 97.9728C225.175 94.1869 227.71 90.3691 230.458 86.7227C233.457 82.6278 235.816 78.1004 237.454 73.296C237.74 72.2838 238.128 71.3033 238.613 70.3697C241.627 65.2267 245.114 60.3757 249.029 55.8795C251.597 52.9256 253.771 49.5941 256.165 46.4139C256.327 46.2191 256.447 45.9931 256.518 45.7498C256.589 45.5066 256.61 45.2513 256.578 44.9998C256.547 44.7483 256.464 44.506 256.335 44.2878C256.206 44.0696 256.033 43.8803 255.828 43.7316C254.982 43.0254 254.217 43.7005 253.509 44.1736C252.028 45.1224 250.568 46.0771 249.036 46.9015C245.418 48.871 241.608 50.5218 238.18 52.7436C234.154 55.361 230.433 58.4393 226.6 61.3754C223.257 63.7779 220.13 66.4658 217.252 69.4088C214.516 72.488 212.113 75.8488 210.085 79.4347C205.832 86.5198 201.396 93.4856 196.979 100.457C195.474 102.845 193.77 105.086 192.062 107.568C192.147 106.147 192.237 104.859 192.321 103.592C192.343 98.682 193.028 93.7978 194.357 89.0715C195.1 86.6299 195.609 84.1234 195.879 81.5857C195.919 81.1738 195.869 80.7582 195.733 80.3672C195.598 79.9762 195.379 79.619 195.093 79.32C194.29 78.6921 193.461 79.4361 192.854 80.0917C192.351 80.5918 191.904 81.1446 191.519 81.7404C189.126 86.1251 186.658 90.4662 184.397 94.9989C183.142 97.503 182.424 100.273 181.278 102.852C179.558 106.732 177.691 110.438 175.786 114.198C175.698 114.501 175.474 114.742 175.113 115.382L174.635 113.863C174.061 110.94 173.181 108.085 172.011 105.346C171.746 104.705 171.611 104.018 171.613 103.324C171.507 102.111 171.631 100.855 171.426 99.6779C170.822 94.9732 170.701 90.219 171.066 85.4897C171.185 82.02 171.235 78.5374 171.216 75.042C171.283 68.7196 172.277 62.4412 174.165 56.4071C174.753 54.388 175.151 52.1165 177.188 50.9134C176.529 48.6627 175.983 48.1313 174.942 48.9235C172.089 50.9794 169.646 53.5521 167.74 56.5082C165.548 60.412 164.038 64.6608 163.273 69.0722C162.684 71.8265 161.503 74.4198 159.812 76.6725C157.059 80.217 155.334 84.4509 154.826 88.9104C154.425 94.0503 154.024 99.1902 154.03 104.361C153.96 108.59 154.329 112.815 154.489 117.308C152.035 114.228 149.749 111.547 147.59 108.729C143.426 103.245 137.566 100.05 131.657 96.9504C126.649 94.6031 121.895 91.7514 117.466 88.4394C114.658 86.1983 111.646 84.2046 108.687 82.1823C108.105 81.7721 106.885 81.3732 106.667 81.5945C106.105 82.3047 105.757 83.1609 105.664 84.0623C105.624 84.7628 105.742 85.4634 106.01 86.1121C106.66 88.026 107.766 89.7533 109.232 91.1457C111.907 93.9177 114.69 96.6988 117.272 99.6408C121.709 104.834 126.668 109.558 132.07 113.739C137.134 117.567 141.477 122.265 144.897 127.613C148.025 132.784 150.582 138.28 152.523 144.004C153.739 146.727 154.567 149.607 154.982 152.561C155.065 153.855 155.553 155.114 155.743 156.418C155.867 157.18 155.826 157.96 155.625 158.705C153.148 166.461 148.025 172.548 142.686 179.229C142.671 177.998 142.646 177.334 142.681 176.687C142.902 172.765 143.17 168.835 143.352 164.902C143.558 160.581 143.683 156.237 143.828 152.052C143.871 151.079 144.04 150.121 143.99 149.164C143.915 147.39 143.154 146.993 141.642 147.824C141.147 148.096 140.572 148.191 140.07 148.483C139.569 148.775 138.764 149.132 138.525 149.654C137.614 151.579 136.83 153.673 136.077 155.731C135.324 157.79 135.007 159.406 134.216 161.147C130.88 168.696 127.474 176.181 124.083 183.692C123.878 184.399 123.3 184.954 122.618 186.091L122.525 184.531C122.284 178.963 123.694 173.592 124.175 168.103C124.627 164.529 124.827 160.927 124.771 157.325C124.59 154.36 124.636 151.386 124.908 148.428C125.357 145.381 125.196 142.274 124.436 139.289C123.551 136.535 122.713 133.772 121.796 131.052C120.305 126.544 118.808 122.056 117.238 117.591C115.929 113.48 113.523 109.804 110.28 106.958C109.59 106.431 109.038 105.744 108.672 104.957C108.274 104.071 107.648 103.307 106.858 102.742C106.068 102.178 105.143 101.833 104.176 101.742C102.459 101.243 101.266 102.56 101.774 104.351C102.191 105.679 102.751 106.959 103.445 108.166C104.702 110.058 105.573 112.18 106.008 114.41C106.261 116.323 106.515 118.237 106.528 120.146C106.687 122.092 106.711 124.045 106.601 125.994C106.104 131.237 105.419 136.448 104.949 141.677C104.478 146.906 104.247 151.613 103.803 156.675C103.043 164.634 103.67 172.664 105.655 180.409C106.309 183.053 106.825 185.721 107.505 188.351C107.896 189.866 108.571 191.311 109.06 192.79C110.274 195.608 110.881 198.65 110.842 201.719C110.638 203.73 110.62 205.756 110.789 207.77C111.114 210.292 111.035 212.849 110.555 215.346C110.287 217.67 109.802 219.963 109.108 222.197C107.316 226.772 105.801 231.451 104.57 236.208C104.083 237.501 103.452 238.735 102.689 239.887C102.272 240.642 101.645 241.292 101.167 242.029C98.8003 245.721 96.4739 249.424 94.1273 253.121C93.9085 253.368 93.6728 253.6 93.4219 253.814C93.2382 253.197 93.107 252.565 93.0297 251.926C92.8258 248.187 92.5411 244.424 92.5164 240.672C92.4726 234.351 92.6223 228.043 92.6592 221.746C92.6709 220.432 92.5692 219.12 92.3551 217.824C91.5229 212.632 90.3467 207.493 89.8526 202.268C89.6262 198.569 88.8488 194.925 87.546 191.455C84.7058 184.584 81.6167 177.814 78.6259 171.008C78.0346 169.653 77.5796 168.207 76.858 166.924C74.7446 163.198 72.452 159.486 70.3353 155.848C68.9772 153.591 67.5612 151.383 66.1392 149.195C65.4884 148.195 64.4696 148.008 64.0436 148.869C62.9991 150.953 61.0872 152.63 61.2215 155.254C61.1345 156.478 60.9702 157.696 60.7297 158.9C60.2176 162.77 59.9676 166.671 59.9815 170.575C60.4116 175.005 61.1368 179.402 62.1521 183.735C62.9728 187.763 64.2216 191.675 65.0103 195.738C66.1951 202.653 67.2385 209.528 68.0675 216.537C68.3898 221.018 68.9637 225.477 69.7866 229.894C70.4771 232.789 70.7916 235.772 71.4417 238.655C71.9519 241.77 72.7968 244.821 73.9618 247.755C76.3299 253.042 78.1907 258.541 79.5192 264.179C81.2523 270.583 80.6144 277.398 77.7227 283.369C77.2579 284.313 76.8508 285.284 76.5037 286.277C74.4177 292.767 72.3864 299.294 70.2802 305.777C68.8602 310.204 67.3047 314.57 65.8442 318.985C65.5077 320.031 65.5525 321.162 65.9705 322.178C66.3885 323.193 67.1527 324.028 68.1277 324.534C72.5295 325.816 77.8196 323.895 78.4966 319.01C78.7815 316.903 79.2084 314.684 79.638 312.531C79.9495 310.445 80.4381 308.389 81.0983 306.385C82.4709 302.798 84.1808 299.332 85.709 295.812C86.3753 294.276 86.9751 292.742 87.6211 291.2C89.8659 285.896 91.5057 280.262 96.3144 276.383C98.4135 274.166 100.71 272.144 103.176 270.342C108.353 267.434 113.711 264.86 119.218 262.637C124.799 260.319 130.294 257.793 135.703 255.061C140.9 252.727 145.885 249.95 150.604 246.76C152.009 245.652 153.499 244.658 155.062 243.786V243.786Z" fill="white"/>
<path d="M308.203 254.326C307.471 253.599 306.539 253.107 305.527 252.912C303.425 252.607 301.247 252.564 299.093 252.441C295.78 252.128 292.44 252.246 289.157 252.79C284.515 253.682 279.771 253.923 275.062 253.506C269.731 253.241 264.388 253.302 259.064 253.69C255.596 253.863 252.16 254.834 248.676 254.915C246.56 254.871 244.469 255.371 242.602 256.367C239.774 257.749 236.819 258.854 233.778 259.668C227.544 261.723 221.317 263.751 215.099 265.752C213.383 266.304 211.627 266.691 209.901 267.13C210.118 266.383 210.798 266.23 211.184 265.883C215.036 262.823 219.519 260.657 224.31 259.541C227.509 258.662 230.659 257.612 233.745 256.395C237.422 254.812 241.296 253.729 245.261 253.177C246.558 253.013 247.82 252.641 248.999 252.074C254.01 249.086 259.305 246.599 264.805 244.651C265.693 244.351 266.543 243.952 267.341 243.462C274.018 239.863 279.451 234.59 285.39 229.988C289.668 226.656 293.922 223.251 298.3 220.101C303.542 216.714 307.888 212.11 310.967 206.682C311.635 205.765 312.087 204.709 312.291 203.592C312.494 202.476 312.444 201.328 312.143 200.234C311.018 200.279 309.906 200.494 308.846 200.874C301.327 205.037 293.884 209.31 286.393 213.525C282.219 215.902 278.03 218.253 273.793 220.546C272.118 221.482 270.315 222.184 268.673 223.085C263.921 225.491 259.197 227.949 254.424 230.349C253.686 230.667 252.927 230.937 252.153 231.156C254.01 228.336 256.071 225.656 258.319 223.138C259.618 221.611 260.923 220.063 262.291 218.599C265.003 215.753 267.824 212.982 270.52 210.043C274.078 206.173 277.4 202.058 281.11 198.342C284.596 194.746 287.444 190.583 289.534 186.031C291.049 182.858 292.843 179.854 294.583 176.813C295.594 175.07 296.829 173.458 297.881 171.727C299.509 169.069 298.95 168.052 295.965 167.096C292.246 170.394 288.526 173.692 284.806 176.989C281.087 180.287 277.097 183.835 273.284 187.303C270.916 189.877 268.3 192.212 265.473 194.272C264.976 194.634 264.523 195.054 264.124 195.522C261.294 198.246 258.389 200.927 255.622 203.736C252.522 206.863 249.605 210.11 246.614 213.313C245.254 215.126 243.656 216.745 241.861 218.129C241.94 217.407 241.968 217.086 241.995 216.766C242.244 214.407 242.553 212.066 242.729 209.73C242.864 208.061 242.673 206.384 242.89 204.739C243.275 201.609 243.825 198.44 244.354 195.418C244.865 192.208 245.853 189.093 247.286 186.175C248.108 184.231 248.7 182.198 249.049 180.117C249.39 178.946 249.402 177.701 249.642 176.5C250.146 173.866 250.803 171.231 251.186 168.561C251.569 165.891 251.717 163.35 251.863 160.742C251.861 159.922 251.678 159.114 251.326 158.373C250.846 157.314 250.098 157.249 249.23 158.048C248.363 158.847 247.927 159.443 247.184 160.037C243.768 162.744 241.342 166.638 238.247 169.898C238.067 170.094 237.92 170.317 237.813 170.56C235.671 174.193 234.434 178.288 234.207 182.499C234.159 186.451 233.2 190.34 231.403 193.861C229.907 196.82 228.816 199.963 227.536 203.007C227.389 203.512 227.101 203.976 226.859 204.431C224.868 208.44 223.436 212.703 222.602 217.1C221.763 220.733 221.583 224.513 220.993 228.196C220.585 232.04 219.497 235.78 217.778 239.241C215.295 244.084 212.352 248.677 208.989 252.957C208.073 254.181 207.014 255.292 205.835 256.266C202.008 259.029 198.055 261.623 194.298 264.45C189.821 267.79 185.505 271.331 181.077 274.729C179.83 275.702 178.376 276.484 177.112 277.364C178.552 274.624 180.138 271.964 181.863 269.395C187.422 260.981 193.036 252.606 198.561 244.161C202.502 238.146 206.313 232.049 210.2 225.996C211.594 223.84 212.962 221.697 214.365 219.587C214.572 219.374 214.735 219.122 214.844 218.846C214.953 218.571 215.007 218.276 215.001 217.979C214.996 217.682 214.932 217.39 214.813 217.118C214.694 216.846 214.523 216.6 214.309 216.395C213.851 216.551 213.415 216.762 213.009 217.024C209.85 219.674 206.682 222.279 203.641 225.051C199.73 228.556 195.833 232.087 192.108 235.778C188.973 239.026 185.911 242.472 182.777 245.787C179.644 249.102 176.357 252.044 173.561 255.479C167.905 262.419 162.482 269.536 157.08 276.658C155.064 279.113 153.55 281.939 152.622 284.976C151.647 288.268 149.941 291.298 147.632 293.84C146.392 295.318 145.033 296.675 143.812 298.16C140.761 301.871 137.669 305.571 134.741 309.384C132.984 311.684 131.388 314.103 129.962 316.622C129.012 318.493 127.619 320.103 125.903 321.311C121.975 323.833 118.684 327.231 116.29 331.238C115.569 332.396 114.432 333.233 113.112 333.576C113.329 332.829 113.588 332.466 113.787 332.086C115.604 329.005 117.259 325.832 118.745 322.578C120.244 318.925 122.078 315.419 124.224 312.105C125.042 310.763 125.701 309.33 126.19 307.836C126.898 305.852 127.197 303.924 127.876 302.041C130.607 294.842 133.595 287.739 136.164 280.492C138.091 275.074 139.566 269.48 141.197 263.953C141.949 261.369 142.708 258.764 143.278 256.126C143.345 255.277 143.314 254.423 143.187 253.581C142.089 254.269 141.241 254.548 140.782 255.071C138.561 257.885 136.443 260.795 134.251 263.662C132.059 266.528 129.907 269.406 127.631 272.182C124.638 275.845 121.322 279.26 118.547 283.074C112.689 291.61 108.227 301.024 105.326 310.963C103.948 315.916 102.864 320.947 102.08 326.028C101.347 329.976 100.842 333.969 100.337 337.962C100.178 340.655 99.4145 343.277 98.1032 345.634C95.9516 349.038 94.2148 352.672 90.9205 355.262C90.6682 355.451 90.5565 355.835 90.327 356.096C88.9212 357.992 87.4187 359.813 85.8254 361.554C80.9273 366.568 75.7877 371.358 70.9931 376.467C68.5509 379.064 68.3011 382.254 71.5004 384.281C72.2376 384.758 73.0066 385.201 73.7497 385.658C74.185 385.969 74.7119 386.126 75.2465 386.103C75.7811 386.08 76.2926 385.879 76.6997 385.531C78.1887 384.464 79.5939 383.284 80.9029 382.002C84.0975 378.551 87.0095 375.018 90.2849 371.591C93.8387 367.96 97.6483 364.579 101.34 361.076C103.521 358.759 106.505 357.363 109.682 357.174C112.65 357.027 115.586 356.497 118.419 355.6C123.529 353.999 128.501 351.964 133.525 350.207C137.628 348.655 141.562 346.688 145.265 344.337C148.413 342.45 151.626 340.669 154.902 338.994C159.582 336.611 164.356 334.431 169.027 332.155C170.961 331.158 172.825 330.033 174.607 328.785C177.187 326.995 179.569 324.907 182.232 323.207C186.017 320.823 189.531 318.034 192.713 314.891C193.52 314.098 194.238 313.22 194.855 312.273C195.828 310.649 197.12 309.238 198.652 308.126C200.184 307.013 201.925 306.222 203.77 305.8C205.486 305.547 207.139 304.973 208.643 304.108C210.304 303.4 212.071 302.975 213.872 302.848C217.198 302.108 220.521 301.301 223.855 300.607C226.403 300.056 229.01 299.676 231.564 299.106C235.595 298.198 239.539 296.915 243.6 296.279C249.427 295.151 255.1 293.34 260.503 290.883C261.093 290.661 261.501 290.013 262.215 289.367C261.35 288.501 260.777 287.459 259.912 287.119C257.997 286.22 255.953 285.625 253.854 285.356C246.866 284.833 239.868 284.57 232.882 284.267C229.556 284.433 226.221 284.341 222.909 283.992C218.05 283.287 213.101 283.512 208.326 284.654C205.238 285.179 202.156 285.837 199.074 286.341C195.186 286.984 191.269 287.421 187.383 288.129C181.908 289.351 176.601 291.234 171.58 293.736C170.651 294.144 169.713 294.507 168.388 294.997C168.732 294.265 168.693 293.947 168.948 293.824C173.727 290.199 178.285 286.051 183.944 283.317C188.959 281.066 194.367 279.82 199.861 279.649C203.01 279.515 206.171 279.493 209.312 279.312C214.728 278.843 220.171 278.781 225.596 279.124C229.26 279.643 232.99 279.417 236.565 278.462C242.432 276.665 248.248 274.744 254.101 272.921C258.091 271.571 262.236 270.731 266.437 270.423C268.978 270.324 271.497 269.91 273.936 269.189C282.907 266.434 291.837 263.448 300.717 260.558C302.948 259.798 305.131 258.905 307.255 257.883C307.62 257.792 307.954 257.605 308.221 257.342C308.489 257.078 308.682 256.747 308.778 256.384C308.875 256.021 308.873 255.639 308.772 255.277C308.67 254.915 308.474 254.586 308.203 254.326ZM248.946 257.447C249.784 256.749 251.392 257.02 252.65 256.839C250.073 259.65 247.008 261.971 243.603 263.689L243.221 263.271C245.016 261.222 246.928 259.278 248.946 257.447V257.447ZM240.572 260.858C241.958 259.333 243.355 257.769 245.968 258.048C243.648 260.373 241.453 262.647 239.134 264.82C238.774 265.058 238.369 265.221 237.944 265.297C237.519 265.373 237.083 265.36 236.662 265.261C237.958 263.82 239.245 262.333 240.572 260.858V260.858ZM238.324 260.379C236.771 262.412 235.077 264.334 233.255 266.131C232.277 267.007 230.57 267.079 229.195 267.512C230.044 265.685 231.314 264.086 232.901 262.846C234.488 261.606 236.347 260.76 238.324 260.379ZM269.427 225.386L269.861 225.775C268.836 226.966 267.899 228.226 266.808 229.267C265.717 230.307 265.363 232.197 262.657 232.242C265.268 229.892 266.922 227.219 269.427 225.386ZM262.789 234.646C267.237 232.759 271.54 230.549 275.665 228.034C277.817 226.886 279.932 225.64 282.061 224.42C282.777 223.993 283.464 223.514 284.727 222.787C283.758 222.504 283.172 222.334 282.874 222.379C281.097 223.124 279.378 224 277.731 224.999C275.412 226.566 272.879 227.791 270.211 228.636C271.557 226.947 272.882 225.253 274.263 223.596C274.642 223.237 275.095 222.965 275.59 222.799C279.58 220.99 283.399 218.825 287 216.33C291.097 213.843 295.306 211.498 299.51 209.02C301.776 207.708 304.049 206.443 306.344 205.183C306.865 204.897 307.423 204.709 308.457 204.243C307.201 206.766 305.391 208.972 303.162 210.696C299.604 214.041 295.844 217.327 292.108 220.379C290.187 222.011 288.09 223.196 286.061 224.599C285.673 224.798 285.295 225.017 284.928 225.254C280.825 228.441 276.722 231.627 272.699 234.836C269.85 237.155 266.716 239.099 263.372 240.62C257.964 243.097 252.764 245.986 247.413 248.568C246.222 249.052 244.977 249.389 243.705 249.57C242.065 249.786 240.44 250.095 238.835 250.496C235.589 251.566 232.411 252.853 229.201 254.021C228 254.46 226.777 254.827 225.585 255.159L225.239 254.467C226.767 253.203 228.198 251.824 229.831 250.656C234.169 247.251 239.099 244.676 244.372 243.062C249.64 241.372 254.706 239.108 259.479 236.311C260.536 235.668 261.643 235.111 262.789 234.646ZM262.247 229.735C259.809 232.092 258.724 236.047 254.444 236.225C256.739 233.761 258.359 230.377 262.247 229.735ZM252.695 234.336C251.673 235.813 250.835 237.036 249.983 238.234C249.75 238.582 249.537 239.089 249.195 239.209C246.476 240.463 243.623 241.403 240.692 242.012C244.338 238.365 247.778 235.424 252.695 234.336ZM240.121 204.393L240.666 204.551C240.374 208.19 240.107 211.814 239.694 215.417C239.569 217.121 239.332 218.816 238.984 220.489C238.784 221.895 238.294 223.244 237.546 224.451C235.488 227.179 233.206 229.731 230.726 232.081C230.908 231.114 231.184 230.167 231.548 229.254C232.52 227.37 233.157 225.333 233.433 223.232C233.956 220.23 234.754 217.264 235.404 214.278C235.576 213.701 235.676 213.104 235.702 212.503C235.771 208.953 238.228 206.908 240.092 204.494L240.121 204.393ZM240.564 200.01C240.461 202.17 238.832 202.725 237.755 203.792C238.28 202.272 239.261 200.951 240.564 200.01V200.01ZM241.551 194.515C241.665 196.454 240.681 197.503 238.578 198.03L241.551 194.515ZM226.179 226.858C227.018 221.868 227.904 216.869 229.092 211.959C230.759 205.706 232.932 199.599 235.59 193.699C236.549 190.898 237.33 188.038 237.929 185.137C238.934 181.685 239.939 178.232 241.079 174.84C241.24 174.435 241.362 174.016 241.444 173.588C241.705 170.357 243.778 168.201 245.843 165.998C246.929 164.825 247.932 163.562 248.969 162.331L249.494 162.484C249.039 165.702 248.605 168.927 248.083 172.148C247.683 175.447 247.095 178.72 246.324 181.952C245.621 185.463 244.148 188.774 242.013 191.649C241.871 191.872 241.694 192.072 241.49 192.241C237.517 194.677 236.345 198.628 235.59 202.877C235.151 205.29 234.342 207.617 233.802 210C233.261 212.384 232.895 214.621 232.444 216.921C231.994 219.221 231.651 221.377 231.097 223.581C230.562 225.419 229.866 227.209 229.365 229.078C228.637 231.582 228.17 234.162 227.516 236.71C227.354 237.458 227.037 238.164 226.585 238.782C224.054 241.681 221.435 244.511 218.835 247.346C218.691 247.497 218.515 247.613 218.319 247.685C218.123 247.757 217.914 247.784 217.707 247.763C218.023 247.114 218.381 246.487 218.779 245.884C222.721 240.22 225.257 233.698 226.179 226.858V226.858ZM184.705 248.495C187.309 245.419 189.858 242.306 192.516 239.269C194.032 237.52 195.663 235.98 197.246 234.382C200.282 231.476 203.312 228.591 206.342 225.706C207.192 224.787 208.162 223.986 209.225 223.325C208.935 223.979 208.604 224.615 208.233 225.227C201.926 234.934 195.549 244.576 189.224 254.19C186.671 258.069 184.366 262.151 181.739 265.985C178.424 270.825 174.891 275.513 171.407 280.259C169.529 282.801 167.581 285.278 165.668 287.788C165.385 288.241 165.024 288.64 164.602 288.967C161.452 290.985 159.725 294.359 157.121 296.908C154.517 299.458 152.147 302.031 149.618 304.625C148.867 305.374 147.953 305.94 146.947 306.278C148.055 304.471 149.289 302.744 150.641 301.111C152.405 299.291 154 297.314 155.405 295.204C156.939 292.869 158.882 290.784 160.58 288.563C162.591 286.016 164.617 283.496 166.629 280.949C168.73 277.982 171.018 275.151 173.477 272.473C174.404 271.224 175.181 269.869 175.79 268.437C177.453 265.658 179.068 262.821 180.814 260.131C183.201 256.445 185.704 252.662 188.259 249.003C189.431 247.308 190.843 245.769 192.145 244.155L191.397 243.565L183.847 252.647C183.62 251.94 183.58 251.186 183.73 250.458C183.881 249.73 184.217 249.054 184.705 248.495V248.495ZM156.967 299.996L160.5 296.512C159.511 299.006 159.05 299.463 156.955 300.036L156.967 299.996ZM181.132 252.492C180.582 255.135 181.213 257.707 178.697 259.581C179.22 257.105 178.32 254.477 181.121 252.533L181.132 252.492ZM177.001 257.203C177.375 259.305 175.961 260.777 175.701 262.498C175.566 264.431 174.874 266.283 173.71 267.832C173.684 265.514 173.86 263.198 174.236 260.91C174.932 259.521 175.868 258.266 177.001 257.203V257.203ZM140.623 306.409C144.58 301.844 148.784 297.482 152.543 292.772C154.339 290.291 155.852 287.616 157.054 284.799C159.725 279.864 162.808 275.164 166.269 270.747C167.683 268.75 169.261 266.865 170.804 264.949C171.221 264.517 171.673 264.121 172.156 263.766C171.995 266.5 171.888 268.9 171.72 271.283C171.577 271.694 171.341 272.068 171.03 272.374C167.102 277.517 163.243 282.723 159.24 287.822C156.722 291.054 154.006 294.14 151.414 297.328C149.812 299.293 148.26 301.316 146.713 303.319C143.562 307.526 139.75 311.195 135.425 314.182C135.589 313.495 135.841 312.832 136.174 312.21C137.62 310.178 138.994 308.168 140.646 306.328L140.623 306.409ZM123.519 300.006C123.097 297.693 124.694 295.968 128.142 294.584C128.042 297.709 125.255 298.256 123.542 299.925L123.519 300.006ZM130.355 289.161C130.085 290.09 129.814 291.019 129.526 292.008L126.07 292.82L125.815 292.417L129.799 288.89L130.355 289.161ZM74.0501 382.745L72.8185 379.452C74.3504 378.101 75.7503 378.334 77.6174 379.293L74.0501 382.745ZM198.49 291.056C201.388 288.388 205.155 286.862 209.093 286.761C210.221 286.63 211.34 286.429 212.444 286.159C215.21 285.643 218.044 285.601 220.825 286.036C224.2 286.405 227.596 286.627 230.963 286.797C238.144 286.959 245.331 286.949 252.52 287.158C253.663 287.393 254.762 287.809 255.775 288.39L255.684 289.152C255.148 289.374 254.597 289.557 254.035 289.702C245.93 291.285 237.797 292.816 229.741 294.457C228.295 294.759 226.917 295.431 225.508 295.832C222.887 296.558 220.284 297.224 217.649 297.925C215.54 298.472 213.346 298.862 211.289 299.534C203.376 302.125 195.207 303.852 186.923 304.685C184.323 304.984 181.743 305.432 179.195 306.028C174.177 307.239 169.247 308.827 164.189 309.873C159.131 310.92 154.371 311.396 148.925 312.198C149.524 311.496 149.824 310.839 150.322 310.634C155.307 308.558 160.485 306.495 165.653 304.692C168.266 303.766 171.082 303.425 173.795 302.682L190.339 298.517C191.611 298.209 192.907 297.972 194.194 297.69C198.994 296.649 203.781 295.604 208.554 294.555C209.199 294.373 209.833 294.156 210.453 293.903L210.346 293.368L194.274 295.457C195.903 293.698 197.204 292.39 198.49 291.056ZM144.901 328.505C141.025 330.684 136.829 332.31 132.804 334.249C129.914 335.598 127.004 337.094 124.168 338.634C122.036 339.788 119.97 341.092 117.875 342.344C117.577 342.542 117.301 342.812 117.017 343.036C116.891 342.715 116.792 342.379 116.687 342.064C121.363 336.977 126.403 332.236 131.767 327.88C132.132 327.643 132.484 327.387 132.822 327.114C135.904 324.004 139.596 321.567 143.667 319.954C150.2 317.004 156.956 314.577 163.872 312.694C167.814 311.948 171.796 311.432 175.798 311.15C179.102 310.71 182.383 310.197 185.676 309.645C187.258 309.404 188.857 309.103 190.444 308.842L190.577 309.363L181.686 312.82L160.126 321.197C154.882 323.262 149.793 325.705 144.901 328.505V328.505ZM142.569 335.164C142.637 334.176 142.679 333.356 142.762 332.241L149.662 328.555C148.68 332.606 145.296 333.395 142.569 335.164ZM140.49 333.879C138.634 335.814 137.296 338.382 134.291 338.996C136.324 337.354 137.261 334.21 140.49 333.879V333.879ZM184.946 293.268C185.366 292.952 185.991 292.762 186.215 292.367C187.423 290.024 189.685 290.004 191.853 289.628C194.022 289.251 195.822 289.162 197.816 288.932L198.074 289.401C194.404 291.925 191.283 295.2 187.094 297.025C188.654 294.522 191.449 293.124 193.032 290.694C192.933 290.537 192.823 290.388 192.702 290.247C192.336 290.321 191.983 290.447 191.652 290.62C189.057 292.537 186.456 294.474 183.896 296.423C183.332 296.838 182.833 297.335 182.415 297.897C181.668 298.885 180.726 298.961 179.346 298.887C180.892 296.72 182.784 294.822 184.946 293.268V293.268ZM175.541 297.736C176.678 296.755 177.726 295.675 178.671 294.508C180.115 292.256 182.358 291.923 184.835 291.768L173.941 300.6L173.484 300.138C174.118 299.315 174.812 298.51 175.541 297.736ZM177.166 294.486L171.983 298.825C171.312 299.397 170.677 300 170.022 300.445C169.598 300.874 169.09 301.211 168.529 301.434C161.187 303.452 154.162 306.487 147.66 310.45C146.84 310.934 146.189 311.665 145.438 312.213C143.884 313.337 142.31 314.456 140.728 315.529C139.145 316.601 137.888 316.783 137.61 318.717C137.421 319.363 136.376 319.869 135.75 320.366L133.125 322.537C130.934 324.418 128.876 326.447 126.545 328.134C124.085 330.11 121.831 332.331 119.819 334.762C116.102 338.926 112.05 342.779 107.705 346.283C107.205 346.651 106.76 347.09 106.384 347.585C106.169 347.873 106.102 348.554 106.208 348.716C106.552 349.078 107.014 349.306 107.511 349.358C107.874 349.464 108.304 349.042 108.715 348.833C110.955 347.696 113.116 346.407 115.182 344.977C118.356 342.945 121.685 341.168 125.139 339.662C128.099 338.223 131.181 337.04 134.788 335.483C134.569 336.037 134.29 336.566 133.957 337.059C132.65 338.195 131.445 339.441 130.354 340.785C129.255 342.382 127.685 343.594 125.862 344.253C121.818 345.879 117.752 347.433 113.694 349.034C113.402 349.197 113.127 349.389 112.871 349.605C114.306 350.241 115.378 349.568 116.449 349.2C120.838 347.74 125.211 346.188 129.572 344.675C129.713 344.716 129.956 344.634 130.072 344.536C133.102 341.651 137.056 340.634 140.553 338.629C143.16 337.197 145.831 335.544 148.548 334.188C151.264 332.832 153.544 332.072 156.069 330.923C159.381 329.325 162.622 327.596 165.829 325.836C166.827 325.206 167.768 324.491 168.641 323.698C167.239 322.873 166.481 323.594 165.679 324.018L151.713 331.364C151.4 331.536 151.073 331.682 150.517 331.936C150.976 330.361 151.305 329.23 151.584 327.669C164.76 321.505 178.243 316.021 191.98 311.239C190.53 313.258 188.554 314.842 186.267 315.818C182.96 317.456 179.945 319.627 177.344 322.244C174.918 324.254 172.322 326.049 169.584 327.608C167.098 329.074 164.47 330.127 161.892 331.458C157.832 333.518 153.85 335.687 149.749 337.735C143.686 340.658 137.668 343.725 131.436 346.247C126.343 348.592 120.937 350.184 115.386 350.972C114.161 351.129 112.957 351.425 111.8 351.855C107.846 353.022 103.777 353.754 99.6648 354.04V354.04C98.9139 354.588 98.1631 355.136 97.2583 355.836L97.6791 357.777C91.6512 364.038 85.6753 370.271 79.4818 376.726L75.9684 375.703C76.327 375.178 76.7213 374.678 77.1486 374.207C81.1525 370.685 85.2885 367.311 89.14 363.636C91.0831 361.493 92.9073 359.246 94.6041 356.903C95.1526 356.046 95.9005 355.334 96.7837 354.828C97.667 354.323 98.6595 354.038 99.6766 353.999V353.999C99.4357 353.95 99.1993 353.882 98.9699 353.794C98.7407 353.603 98.5219 353.4 98.3143 353.187C98.958 352.104 99.7061 350.963 100.353 349.794C100.945 348.754 101.471 347.678 101.926 346.572C102.871 344.153 103.782 341.702 104.632 339.234C105.067 337.74 105.507 336.225 105.942 334.731C106.154 334.277 106.412 333.845 106.711 333.443V333.443L106.758 333.282C105.731 330.793 106.915 328.378 107.404 326.023C108.108 322.702 109.167 319.44 110.26 316.21C111.971 310.334 113.681 304.458 115.85 298.738C117.09 295.173 118.743 291.765 120.776 288.585C126.594 279.809 132.726 271.234 138.9 262.365C139.168 264.088 138.921 265.853 138.19 267.437C136.245 273.441 134.238 279.209 132.262 285.095C131.932 286.225 131.512 287.067 130.038 287.317C129.382 287.388 128.789 288.07 128.166 288.48L127.734 288.157C128.364 286.895 129.055 285.651 129.637 284.331C130.218 283.01 130.649 281.756 131.176 280.398C129.957 279.693 129.417 280.346 129.031 281.219C127.658 284.28 126.216 287.277 124.965 290.374C122.403 296.615 120.038 302.935 117.422 309.139C115.72 313.178 113.714 317.062 111.917 321.051C109.887 324.949 108.198 329.015 106.868 333.204L106.839 333.305L109.393 332.056C110.293 328.123 111.851 324.37 114.004 320.957C116.836 315.719 119.226 310.253 121.147 304.616C121.847 302.214 123.646 301.752 126.018 300.975C125.503 302.633 124.903 304.264 124.223 305.862C123.12 308.147 121.732 310.284 120.649 312.575C118.956 316.134 117.479 319.778 115.806 323.343C114.895 325.269 113.722 327.117 112.69 329.007C111.938 330.387 111.226 331.779 110.494 333.165C109.044 335.962 107.5 338.711 106.145 341.558C105.407 343.117 105.775 343.509 107.229 343.779C110.139 340.705 112.846 337.726 115.705 334.901C119.122 331.515 122.7 328.176 126.218 324.819C127.355 323.465 128.869 322.479 130.568 321.989C130.858 321.909 131.127 321.767 131.357 321.573C131.587 321.379 131.773 321.138 131.902 320.867C133.441 316.934 136.557 314.205 139.943 311.226C140.133 313.209 138.215 313.702 138.157 315.481C149.82 306.237 163.027 299.129 177.166 294.486V294.486ZM183.616 277.746C183.516 278.089 183.629 278.604 183.328 278.735C181.976 279.873 180.551 280.921 179.063 281.874C174.13 285.01 169.543 288.66 165.38 292.764C164.355 293.667 163.242 294.466 162.058 295.148C167.256 289.024 173.161 283.538 179.65 278.804C180.912 279.434 181.567 278.464 182.333 277.789L180.314 277.201L183.989 274.81C184.523 274.523 185.036 274.196 185.521 273.833C191.323 268.95 197.316 264.54 203.312 260.043C204.379 259.237 205.831 258.915 206.961 258.192C208.098 257.406 209.187 256.553 210.223 255.638C209.147 257.534 207.641 259.151 205.826 260.359C203.998 261.586 202.273 262.959 200.667 264.464C201.627 265.532 202.557 265.496 203.233 264.905C204.858 263.317 206.887 262.203 209.099 261.684C209.346 261.592 209.556 261.423 209.699 261.202C210.834 260.002 211.841 258.688 212.702 257.279C214.348 254.035 217.333 252.056 219.677 249.497C222.021 246.937 224.841 244.999 226.615 241.989C227.04 241.28 228.065 240.921 228.737 240.416C229.124 239.12 229.657 237.872 230.324 236.695C232.191 234.194 234.283 231.824 236.314 229.436C236.452 229.289 236.622 229.174 236.81 229.1C236.998 229.026 237.2 228.995 237.402 229.008C238.715 229.39 239.311 228.622 239.546 227.661C240.75 222.624 244.364 219.164 247.674 215.615C253.265 209.577 259.117 203.768 264.881 197.889C265.352 197.369 265.866 196.888 266.416 196.452C271.946 192.023 277.212 187.273 282.186 182.228C284.931 179.532 288.071 177.27 291.498 175.52C290.68 176.903 289.922 178.303 289.068 179.654C288.215 181.004 287.452 181.746 286.857 182.887C284.451 187.071 281.62 190.995 278.41 194.599C275.68 197.456 273.29 200.619 271.286 204.024C270.478 205.377 269.491 206.614 268.353 207.704C264.342 212.231 260.301 216.706 256.269 221.227C251.858 226.456 247.096 231.378 242.016 235.958C237.449 239.908 232.771 243.715 228.044 247.464C226.701 248.541 224.643 248.84 223.585 250.065C222.63 251.447 221.563 252.748 220.394 253.955C216.957 256.809 213.675 259.884 210.019 262.434C205.12 265.87 200.404 269.732 194.486 271.404C194.137 271.465 193.811 271.62 193.545 271.853C190.876 274.738 187.427 276.786 183.616 277.746V277.746ZM301.703 256.267C296.444 258.153 291.158 259.987 285.865 261.842C279.926 263.699 273.84 265.049 267.672 265.877C265.53 266.239 263.41 266.826 261.276 267.234C254.709 268.809 248.242 270.774 241.91 273.118C237.072 274.684 232.038 275.564 226.956 275.731C223.905 275.828 220.837 275.307 217.788 275.099C212.976 274.815 208.147 275.054 203.387 275.813C199.482 276.363 195.613 277.164 191.839 277.862C191.357 277.94 190.865 277.973 189.805 278.08C190.268 277.596 190.759 277.139 191.276 276.712C191.717 276.402 192.312 276.313 192.658 275.954C196.142 272.412 200.924 272.008 205.325 270.661C210.515 269.083 215.688 267.413 220.862 265.743C224.154 264.664 227.418 263.534 231.226 262.189C230.872 262.768 230.458 263.308 229.991 263.801C228.78 264.652 227.635 265.593 226.565 266.615C224.657 268.582 222.095 269.784 219.361 269.994C214.735 270.837 210.18 271.439 205.589 272.161C205.311 272.212 205.05 272.508 204.427 272.918C204.953 273.156 205.511 273.318 206.083 273.4C209.556 273.053 213.042 272.666 216.528 272.279C218.065 272.113 219.623 271.953 221.19 271.84C225.397 271.531 229.068 269.227 233.125 268.458C236.452 267.717 239.738 266.802 242.969 265.717C243.561 265.596 244.161 265.522 244.764 265.495C245.267 265.422 245.91 265.544 246.232 265.265C248.385 263.438 251.152 263.412 253.607 263.031C256.536 262.525 259.439 261.881 262.368 261.376C263.889 261.118 265.417 261.059 267.001 260.885C267.001 259.154 266.918 258.911 265.184 259.151C262.429 259.51 259.679 260.155 256.938 260.693L251.104 261.623C251.329 260.944 251.649 260.3 252.055 259.71C253.596 257.746 255.823 256.438 258.289 256.049C262.572 255.631 266.844 255.254 271.14 255.168C273.893 255.115 276.699 255.56 279.489 255.605C281.486 255.649 283.484 255.55 285.467 255.308C287.985 255.012 290.457 254.57 292.989 254.147C293.953 254.076 294.92 254.073 295.884 254.135C297.886 254.178 299.885 254.234 301.88 254.303C302.434 254.363 302.983 254.464 303.522 254.606L303.592 255.043C302.997 255.502 302.365 255.911 301.703 256.267V256.267ZM245.131 182.591C245.126 183.136 245.299 183.669 245.102 183.896C243.985 185.323 242.82 186.693 241.695 188.074C241.152 188.66 240.63 189.778 239.629 188.852C238.628 187.926 239.311 187.161 239.973 186.543C241.482 185.12 242.61 183.127 245.131 182.591ZM155.041 243.781C158.895 241.892 162.541 239.606 165.919 236.959C167.396 235.725 168.85 234.417 170.377 233.307C174.498 230.365 178.378 227.1 181.981 223.543C188.183 217.823 193.584 211.29 198.037 204.124C198.535 203.313 198.864 202.411 199.006 201.471C198.99 200.734 198.838 200.007 198.557 199.325C197.846 199.512 197 199.485 196.463 199.898C192.743 202.67 188.954 205.379 185.478 208.441C183.825 210.001 181.983 211.348 179.996 212.452C176.475 214.165 173.588 216.785 169.668 217.834C169.431 217.897 169.234 218.124 169.019 218.259C166.048 220.263 163.135 222.372 160.058 224.214C155.848 226.712 151.489 228.97 147.205 231.424C145.14 232.575 143.04 233.694 141.101 235.014C138.643 236.843 135.988 238.392 133.186 239.631C131.162 240.47 129.193 241.433 127.287 242.514C124.066 244.248 120.868 246.055 117.664 247.882C115.673 248.971 113.739 250.162 111.872 251.453C108.828 253.633 105.916 255.962 102.921 258.2C102.921 258.2 102.618 258.112 102.275 258.012C102.44 257.528 102.649 257.061 102.9 256.617C105.755 252.301 108.651 247.997 111.497 243.787C114.784 238.569 119.537 234.436 125.162 231.907C129.003 230.222 132.705 228.189 136.599 226.475C140.493 224.762 144.928 223.446 148.964 221.62C152.999 219.794 157.385 217.369 161.567 215.192C163.655 214.113 165.683 212.864 167.837 211.935C172.926 209.728 177.815 207.084 182.447 204.032C183.818 203.056 185.103 201.965 186.288 200.769C187.817 199.353 189.18 197.756 190.715 196.32C194.607 192.656 198.533 189.024 202.454 185.412C203.618 184.349 204.85 183.35 205.945 182.223C208.491 179.569 210.989 176.858 213.481 174.166C215.973 171.475 218.389 168.893 220.774 166.192C221.596 165.249 222.555 164.213 222.033 162.769C219.66 161.816 219.646 161.79 217.916 162.995C216.904 163.686 215.97 164.487 215.079 165.213C212.331 167.13 209.713 169.127 206.962 170.977C204.746 172.54 202.426 173.951 200.017 175.197C194.582 177.842 189.001 180.16 183.572 182.785C177.196 185.879 170.899 189.15 164.595 192.374C161.56 193.922 158.51 195.444 155.584 197.22C151.01 199.992 146.52 202.876 142.114 205.872C138.781 208.143 135.647 210.56 132.416 213.08C130.903 214.216 129.426 215.451 127.941 216.64L127.481 216.265C128.061 215.251 128.695 214.275 129.22 213.223C132.366 206.932 136.421 201.138 141.256 196.029C141.967 195.252 142.635 194.437 143.259 193.589C146.364 189.543 149.388 185.473 152.508 181.453C155.432 177.727 158.426 174.064 161.439 170.407C162.52 169.101 163.28 167.395 165.341 167.163C165.685 167.109 165.985 166.605 166.292 166.301C167.621 164.672 169.099 163.131 170.704 161.605C171.844 160.381 173.111 159.281 174.484 158.325C179.824 154.949 185.857 152.82 192.133 152.095C195.232 151.683 198.303 150.912 201.385 150.407C202.981 149.942 204.654 149.796 206.307 149.978C209.141 150.475 212.026 150.723 214.91 150.971C218.337 150.956 221.74 151.539 224.966 152.694C225.271 152.86 225.609 152.958 225.955 152.982C230.077 153.043 234.216 153.196 238.304 153.072C244.317 152.807 250.348 152.328 256.367 151.89C261.158 151.533 265.959 151.068 270.742 150.664C271.704 150.594 272.669 150.59 273.629 150.453C277.8 149.893 281.929 149.102 286.11 148.808C288.48 148.643 290.974 147.749 293.318 149.176C293.662 149.276 294.191 149.189 294.621 149.139C296.781 148.869 298.96 148.606 301.123 148.25C301.895 148.226 302.646 147.99 303.292 147.567C304.077 146.873 305.084 146.483 306.132 146.466C306.707 146.371 307.212 145.839 307.766 145.518C307.462 144.925 307.075 144.377 306.618 143.892C306.152 143.655 305.645 143.508 305.124 143.457C301.752 142.475 298.4 141.5 295.028 140.518C293.369 139.739 291.667 139.054 289.931 138.465C286.516 137.733 283.019 137.451 279.53 137.628C271.819 137.953 264.102 137.181 256.608 135.336C256.184 135.213 255.76 135.089 255.371 134.845C251.737 133.634 248.134 132.169 244.418 131.24C235.091 129.138 225.451 128.814 216.003 130.285L215.214 130.362C209.373 131.005 203.617 132.266 198.043 134.125C197.49 134.292 196.949 134.42 195.98 134.663C196.225 134.163 196.504 133.681 196.817 133.22C199.553 130.14 202.275 127.034 205.06 124.011C207.846 120.989 211.256 117.776 213.985 114.344C217.116 110.246 219.57 105.673 221.257 100.8C221.589 99.8061 222.042 98.8566 222.605 97.9728C225.175 94.1869 227.71 90.3691 230.458 86.7227C233.457 82.6278 235.816 78.1004 237.454 73.296C237.74 72.2838 238.128 71.3033 238.613 70.3697C241.627 65.2267 245.114 60.3757 249.029 55.8795C251.597 52.9256 253.771 49.5941 256.165 46.4139C256.327 46.2191 256.447 45.9931 256.518 45.7498C256.589 45.5066 256.61 45.2513 256.578 44.9998C256.547 44.7483 256.464 44.506 256.335 44.2878C256.206 44.0696 256.033 43.8803 255.828 43.7316C254.982 43.0254 254.217 43.7005 253.509 44.1736C252.028 45.1224 250.568 46.0771 249.036 46.9015C245.418 48.871 241.608 50.5218 238.18 52.7436C234.154 55.361 230.433 58.4393 226.6 61.3754C223.257 63.7779 220.13 66.4658 217.252 69.4088C214.516 72.488 212.113 75.8488 210.085 79.4347C205.832 86.5198 201.396 93.4856 196.979 100.457C195.474 102.845 193.77 105.086 192.062 107.568C192.147 106.147 192.237 104.859 192.321 103.592C192.343 98.682 193.028 93.7978 194.357 89.0715C195.1 86.6299 195.609 84.1234 195.879 81.5857C195.919 81.1738 195.869 80.7582 195.733 80.3672C195.598 79.9762 195.379 79.619 195.093 79.32C194.29 78.6921 193.461 79.4361 192.854 80.0917C192.351 80.5918 191.904 81.1446 191.519 81.7404C189.126 86.1251 186.658 90.4662 184.397 94.9989C183.142 97.503 182.424 100.273 181.278 102.852C179.558 106.732 177.691 110.438 175.786 114.198C175.698 114.501 175.474 114.742 175.113 115.382L174.635 113.863C174.061 110.94 173.181 108.085 172.011 105.346C171.746 104.705 171.611 104.018 171.613 103.324C171.507 102.111 171.631 100.855 171.426 99.6779C170.822 94.9732 170.701 90.219 171.066 85.4897C171.185 82.02 171.235 78.5374 171.216 75.042C171.283 68.7196 172.277 62.4413 174.165 56.4071C174.753 54.388 175.151 52.1165 177.188 50.9134C176.529 48.6627 175.983 48.1313 174.942 48.9235C172.089 50.9794 169.646 53.5521 167.74 56.5082C165.548 60.412 164.038 64.6608 163.273 69.0722C162.684 71.8265 161.503 74.4198 159.812 76.6725C157.059 80.2171 155.334 84.4509 154.826 88.9104C154.425 94.0503 154.024 99.1902 154.03 104.361C153.96 108.59 154.329 112.815 154.489 117.308C152.035 114.228 149.749 111.547 147.59 108.729C143.426 103.245 137.566 100.05 131.657 96.9504C126.649 94.6032 121.895 91.7514 117.466 88.4394C114.658 86.1983 111.646 84.2046 108.687 82.1823C108.105 81.7721 106.885 81.3732 106.667 81.5945C106.105 82.3047 105.757 83.1609 105.664 84.0623C105.624 84.7628 105.742 85.4635 106.01 86.1121C106.66 88.026 107.766 89.7533 109.231 91.1457C111.907 93.9177 114.69 96.6989 117.272 99.6408C121.709 104.834 126.668 109.558 132.07 113.739C137.134 117.567 141.477 122.265 144.897 127.613C148.025 132.784 150.582 138.28 152.523 144.004C153.739 146.727 154.567 149.607 154.982 152.561C155.065 153.855 155.553 155.114 155.743 156.418C155.867 157.18 155.826 157.96 155.625 158.705C153.148 166.461 148.025 172.548 142.685 179.229C142.671 177.998 142.646 177.334 142.681 176.687C142.902 172.765 143.17 168.835 143.352 164.902C143.558 160.581 143.683 156.237 143.828 152.052C143.871 151.079 144.04 150.121 143.99 149.164C143.915 147.39 143.154 146.994 141.642 147.824C141.147 148.096 140.572 148.191 140.07 148.483C139.569 148.775 138.764 149.133 138.525 149.654C137.614 151.579 136.83 153.673 136.077 155.731C135.324 157.79 135.007 159.406 134.216 161.147C130.88 168.696 127.474 176.181 124.083 183.692C123.878 184.399 123.3 184.954 122.618 186.091L122.525 184.531C122.284 178.963 123.694 173.592 124.175 168.103C124.627 164.529 124.827 160.927 124.771 157.325C124.59 154.36 124.636 151.386 124.908 148.428C125.357 145.381 125.196 142.274 124.436 139.289C123.551 136.535 122.713 133.772 121.796 131.052C120.305 126.544 118.808 122.056 117.238 117.591C115.929 113.48 113.523 109.804 110.28 106.958C109.59 106.431 109.038 105.744 108.672 104.957C108.274 104.071 107.648 103.307 106.858 102.742C106.068 102.178 105.143 101.833 104.176 101.742C102.459 101.243 101.266 102.56 101.774 104.351C102.191 105.679 102.751 106.959 103.445 108.166C104.702 110.058 105.573 112.18 106.008 114.41C106.261 116.323 106.515 118.237 106.528 120.146C106.687 122.092 106.711 124.045 106.601 125.994C106.104 131.237 105.419 136.448 104.949 141.677C104.478 146.906 104.247 151.613 103.803 156.675C103.043 164.634 103.67 172.664 105.655 180.409C106.309 183.053 106.825 185.722 107.505 188.351C107.896 189.866 108.571 191.311 109.06 192.79C110.274 195.608 110.881 198.65 110.842 201.719C110.638 203.73 110.62 205.756 110.789 207.77C111.114 210.292 111.035 212.85 110.555 215.346C110.287 217.67 109.802 219.963 109.108 222.197C107.316 226.772 105.801 231.451 104.57 236.208C104.083 237.501 103.452 238.735 102.689 239.887C102.272 240.642 101.645 241.292 101.167 242.029C98.8003 245.721 96.4739 249.424 94.1273 253.121C93.9085 253.368 93.6728 253.6 93.4219 253.814C93.2382 253.197 93.107 252.565 93.0297 251.926C92.8258 248.187 92.5411 244.424 92.5164 240.672C92.4726 234.351 92.6223 228.043 92.6592 221.746C92.6709 220.432 92.5692 219.12 92.3551 217.824C91.5229 212.632 90.3466 207.493 89.8526 202.268C89.6262 198.569 88.8488 194.925 87.546 191.455C84.7058 184.584 81.6167 177.814 78.6259 171.008C78.0346 169.653 77.5796 168.207 76.858 166.924C74.7446 163.198 72.452 159.486 70.3353 155.848C68.9772 153.591 67.5612 151.383 66.1392 149.195C65.4884 148.195 64.4696 148.008 64.0436 148.869C62.9991 150.953 61.0872 152.63 61.2215 155.254C61.1345 156.478 60.9702 157.696 60.7297 158.9C60.2176 162.77 59.9676 166.671 59.9815 170.575C60.4116 175.005 61.1368 179.402 62.1521 183.735C62.9728 187.763 64.2216 191.675 65.0103 195.738C66.1951 202.653 67.2385 209.528 68.0675 216.537C68.3898 221.018 68.9637 225.477 69.7866 229.894C70.4771 232.789 70.7916 235.772 71.4417 238.655C71.9519 241.77 72.7968 244.821 73.9618 247.755C76.3299 253.042 78.1907 258.541 79.5192 264.179C81.2523 270.583 80.6144 277.398 77.7227 283.369C77.2579 284.313 76.8508 285.284 76.5037 286.277C74.4177 292.767 72.3864 299.294 70.2802 305.777C68.8602 310.204 67.3046 314.57 65.8442 318.985C65.5077 320.031 65.5524 321.162 65.9705 322.178C66.3885 323.193 67.1527 324.028 68.1277 324.534C72.5295 325.816 77.8196 323.895 78.4966 319.01C78.7815 316.903 79.2084 314.684 79.6379 312.531C79.9495 310.445 80.4381 308.389 81.0983 306.385C82.4709 302.798 84.1808 299.332 85.709 295.812C86.3753 294.276 86.9751 292.742 87.6211 291.2C89.8659 285.896 91.5057 280.262 96.3144 276.383C98.4135 274.166 100.71 272.144 103.176 270.342C108.353 267.434 113.711 264.86 119.218 262.637C124.799 260.319 130.294 257.793 135.703 255.061C140.9 252.727 145.885 249.95 150.604 246.76C152.009 245.652 153.499 244.658 155.062 243.786L155.041 243.781ZM144.037 235.386L144.246 235.119C147.288 233.398 150.352 231.749 153.325 229.964C158.989 226.531 165.003 223.704 170.447 219.901C173.499 217.767 176.947 216.23 180.191 214.414L180.593 214.991C178.177 216.894 175.796 218.83 173.386 220.713C170.976 222.596 169.157 224.256 166.954 225.805C164.229 227.641 161.546 229.335 158.833 231.13C156.121 232.924 153.836 234.603 151.32 236.324C150.251 237.064 149.137 237.879 147.926 236.321C147.033 237.507 145.057 237.676 145.582 239.56C144.498 240.12 143.64 241.338 141.884 240.827C142.714 239.93 143.4 239.078 144.12 238.411C144.342 238.224 144.524 237.992 144.652 237.731C144.78 237.47 144.853 237.185 144.866 236.894C144.878 236.603 144.83 236.313 144.725 236.042C144.62 235.771 144.459 235.524 144.254 235.318L144.039 235.453C142.757 237.073 141.481 238.673 140.185 240.267C140.144 240.408 139.72 240.284 139.474 240.301L139.314 240.473C138.79 241.372 138.242 242.351 137.755 243.195L137.22 242.777C137.923 242.017 138.612 241.232 139.314 240.473C139.314 240.473 139.373 240.271 139.397 240.19C139.858 237.477 142.072 236.567 144.057 235.392L144.037 235.386ZM134.649 241.152C135.183 240.519 136.178 240.261 136.954 239.852L137.374 240.368L132.052 246.31L131.355 245.844C132.458 244.238 133.46 242.602 134.669 241.158L134.649 241.152ZM131.234 242.348C130.031 245.231 128.069 247.733 125.557 249.588C126.048 248.877 126.526 248.14 127.058 247.441C127.59 246.741 128.27 245.91 127.374 244.773L131.234 242.348ZM174.407 189.514C181.679 186.505 188.633 182.704 195.842 179.611C200.159 177.712 204.323 175.483 208.296 172.942C209.881 171.936 211.352 170.721 213.006 169.779C211.265 172.46 208.885 174.665 206.079 176.195C203.472 177.627 200.643 178.993 197.955 180.401C196.403 181.22 194.885 182.07 193.381 182.947C186.99 186.693 180.608 190.486 174.237 194.239C173.831 194.425 173.412 194.581 172.984 194.707C173.26 193.758 173.436 193.152 173.748 192.082C170.164 193.557 169.03 197.454 165.264 199.03C167.826 194.892 169.953 191.349 174.407 189.514ZM156.794 198.558C157.803 198.053 158.85 197.625 159.925 197.279C159.925 197.279 159.967 197.138 159.99 197.057C161.718 195.708 163.691 194.705 165.799 194.105C163.985 198.091 160.876 201.347 156.978 203.343C157.967 201.9 158.895 200.593 159.809 199.26C160.28 198.543 160.864 197.816 159.972 197.118L159.822 197.183C157.531 200.087 155.267 202.976 152.915 205.862C152.112 206.92 150.989 207.691 149.712 208.061C150.147 206.646 150.942 205.368 152.019 204.352C152.6 203.711 153.571 203.008 153.551 202.323C153.73 200.054 155.322 199.4 156.794 198.558ZM151.13 210.489C154.661 208.516 157.905 206.175 161.262 203.976C162.879 202.936 164.173 201.122 166.574 202.128C166.877 202.216 167.66 201.633 167.968 201.176C168.909 199.779 170.189 198.645 171.688 197.878C176.025 195.395 180.362 192.912 184.621 190.319C188.88 187.725 193.051 184.909 197.518 182.355C199.665 181.074 202.018 180.138 204.624 178.86C204.315 179.471 204.348 179.809 204.085 179.886C198.821 183.369 194.926 188.324 190.404 192.571C185.917 197.136 180.891 201.138 175.437 204.488C173.195 205.719 170.729 206.666 168.49 207.811C163.014 210.597 157.618 213.407 152.081 216.176C148.714 217.736 145.212 219.083 141.712 220.648C137.242 222.611 132.801 224.625 128.156 226.361C131.546 223.669 135.103 221.156 138.283 218.358C142.085 214.777 146.731 212.888 151.05 210.466L151.13 210.489ZM121.237 225.224C123.597 222.91 126.311 220.962 128.878 218.84C133.331 215.037 137.981 211.47 142.808 208.154C145.515 206.38 148.21 204.645 150.911 202.891L151.123 203.215C149.358 205.593 147.552 207.958 145.804 210.428C145.517 210.747 145.16 210.996 144.76 211.154C140.714 212.714 137.764 215.776 134.464 218.385C130.751 221.828 126.815 225.021 122.68 227.943C120.355 229.457 118.294 231.047 116.11 232.755C112.87 235.192 110.425 238.536 109.086 242.363C108.795 243.022 108.443 243.653 108.034 244.247C105.092 249.238 102.129 254.224 99.2938 259.225C97.4893 262.399 95.2696 265.317 92.6935 267.904C92.6867 267.404 92.7366 266.904 92.8424 266.415C94.3832 262.702 95.9239 258.989 97.5454 255.299C98.1385 253.939 98.9824 252.695 99.6967 251.37C101.361 248.284 102.966 245.181 104.59 242.083C105.324 240.764 105.72 239.105 107.72 238.855C108.217 238.803 108.691 238.152 109.106 237.703C113.151 233.515 117.046 229.238 121.157 225.2L121.237 225.224ZM217.778 137.657C219.456 135.955 221.195 134.271 222.913 132.581C223.842 131.647 224.896 131.866 226.197 132.135C223.261 134.697 220.396 137.017 217.495 139.458L217.04 139.063C217.226 138.565 217.474 138.093 217.778 137.657ZM198.308 137.728C200.328 136.958 202.448 136.524 204.449 135.968L205.224 135.339L209.684 134.688L209.858 134.541L209.979 134.577C213.628 133.299 217.448 132.58 221.311 132.443C220.44 133.329 219.931 133.947 219.325 134.45C216.69 136.185 214.218 138.156 211.938 140.338C211.761 140.571 211.178 140.467 210.496 140.553C211.67 137.872 214.739 137.188 215.549 134.555C211.746 136.033 209.202 139.278 205.876 141.377L205.447 140.967C206.298 140.076 207.085 139.254 207.959 138.282C208.834 137.309 209.576 136.715 210.328 135.861C211.081 135.007 210.515 134.842 210.035 134.461L209.873 134.414C208.53 135.644 207.166 136.868 205.808 138.072C204.45 139.275 203.103 140.592 201.737 141.749C201.447 141.993 201.016 142.043 200.321 141.797C201.546 140.598 202.696 139.356 203.964 138.236C204.442 137.931 204.819 137.494 205.051 136.978C205.283 136.462 205.359 135.889 205.27 135.33V135.33C205.205 135.552 204.976 135.814 204.785 135.868L204.449 135.968C202.854 137.234 201.265 138.479 199.699 139.798C198.692 140.622 197.798 141.588 196.751 142.4C196.287 142.621 195.792 142.773 195.284 142.849L195.026 142.38C195.779 141.526 196.563 140.637 197.298 139.843C197.235 139.698 197.158 139.558 197.069 139.426C196.549 139.502 196.041 139.649 195.562 139.864C194.42 140.627 193.359 141.413 192.21 142.349C191.455 142.853 190.601 143.188 189.705 143.332C188.809 143.475 187.892 143.424 187.018 143.181C187.393 142.721 187.525 142.343 187.794 142.246C191.201 140.697 194.762 139.149 198.296 137.769L198.308 137.728ZM215.907 74.0328C220.432 68.6775 225.747 64.0429 231.669 60.2884C234.429 58.332 237.235 56.214 239.966 54.3585C243.35 52.2117 246.887 50.3717 250.458 48.4107L250.958 48.9504C249.945 50.6021 248.826 52.1859 247.607 53.6915C241.905 60.0171 236.941 66.9713 232.812 74.4198C232.127 75.6441 231.762 77.0491 231.011 78.276C229.269 81.0983 227.511 83.8281 225.507 86.574C222.019 91.3122 219.015 96.3887 216.541 101.727C215.309 104.034 213.93 106.259 212.411 108.388C212.025 108.971 211.599 109.528 211.138 110.054C209.199 112.425 207.186 114.752 205.314 117.12C203.442 119.488 201.393 121.936 199.688 124.485C197.622 127.654 195.096 130.499 192.193 132.926C190.302 134.456 188.696 136.288 186.917 137.961C186.423 138.375 185.896 138.75 185.343 139.079C185.28 138.43 185.355 137.775 185.561 137.156C185.768 136.537 186.102 135.968 186.542 135.486C190.216 129.634 194.081 123.882 197.571 117.911C200.074 113.602 201.937 108.931 204.351 104.552C205.738 102.043 207.615 99.808 209.248 97.4358C210.654 95.5505 211.956 93.5897 213.148 91.5622C215.902 86.6444 219.181 82.0397 222.927 77.8286C225.039 75.4646 227.125 73.1148 229.317 70.9274C231.509 68.7399 233.303 66.9405 235.202 64.9307C236.009 64.1143 236.779 63.1995 237.534 62.4117C239.152 60.6923 240.776 58.7996 242.463 56.991C242.919 56.4097 243.338 55.8001 243.717 55.1657C243.105 55.0245 242.466 55.0653 241.877 55.2831C241.288 55.5009 240.776 55.8862 240.403 56.3915C237.209 59.8421 234.014 63.2927 230.819 66.7433C227.209 70.7956 223.785 75.0337 220.154 79.0801C213.718 86.1429 209.095 94.5002 203.525 102.122C202.025 104.493 200.734 106.99 199.666 109.584C198.082 112.694 196.573 115.846 194.888 118.926C192.918 122.536 190.771 126.072 188.685 129.627C188.456 129.958 188.204 130.273 187.93 130.568L187.593 130.294C188.403 128.476 189.087 126.604 189.64 124.692C190.113 122.563 190.399 120.396 190.495 118.217C190.65 116.031 191.269 113.904 192.311 111.977C197.875 101.811 203.951 91.9348 210.518 82.3862C212.106 79.5631 213.75 76.6248 215.907 74.0328ZM174.915 145.331C175.127 144.604 176.874 144.171 177.982 143.749C179.285 143.278 180.614 142.883 181.963 142.564C183.016 142.344 184.081 142.178 185.151 142.068C184.498 143.293 183.595 144.367 182.501 145.222C181.408 146.077 180.147 146.693 178.801 147.031L177.865 145.883C176.203 145.947 175.434 147.234 174.37 148.107C173.305 148.98 172.788 150.231 170.839 150.08C171.315 149.496 171.643 149.197 171.882 148.829C172.746 147.591 174.372 147.122 174.802 145.342L174.915 145.331ZM182.769 104.053C184.499 100.066 185.978 95.9629 187.572 91.915C188.764 88.4374 190.704 85.2638 193.257 82.6185C193.301 83.1058 193.298 83.5963 193.247 84.083C192.544 87.2513 191.786 90.3818 191.083 93.5501C190.75 94.8136 190.521 96.1023 190.399 97.4031C189.858 105.08 188.569 112.686 186.549 120.112C186.4 120.432 186.301 120.772 186.255 121.122C186.493 126.098 184.438 130.449 182.754 134.953C182.295 136.505 181.531 137.951 180.509 139.206C179.93 139.687 179.29 140.09 178.605 140.404L178.284 140.004C178.525 139.176 178.881 138.403 179.237 137.631C180.662 133.866 181.407 129.878 181.439 125.853C181.603 123.71 182.373 121.591 182.675 119.423C183.371 114.841 184.389 110.314 185.721 105.876C185.762 105.734 185.636 105.566 185.479 105.126C185.168 105.491 184.88 105.876 184.618 106.277C181.909 110.921 181.679 116.373 180.239 121.32C179.499 124.286 179.05 127.317 178.898 130.37C178.921 132.204 178.397 134.004 177.393 135.539C177.462 133.194 177.618 130.852 177.535 128.506C177.512 126.691 177.304 124.884 176.914 123.112C176.198 120.559 176.402 117.835 177.49 115.417C179.12 111.62 181.1 107.904 182.769 104.053ZM169.866 108.576C171.054 114.2 172.19 119.854 173.439 125.496C174.92 130.711 174.7 136.263 172.812 141.346L169.192 143.096C169.391 140.603 169.461 138.101 169.403 135.6C169.196 132.474 168.656 129.36 168.23 126.235C167.801 122.694 167.307 119.148 166.749 115.597C166.622 114.822 166.655 114.029 166.846 113.268C167.038 112.506 167.384 111.792 167.863 111.169C168.442 110.232 168.947 109.251 169.373 108.236C169.616 108.306 169.858 108.377 169.866 108.576ZM169.316 102.94C169.449 103.987 169.552 104.761 169.571 105.073L165.789 110.543C164.84 108.384 166.465 107.542 167.005 106.364C167.402 104.992 168.252 103.796 169.417 102.97L169.316 102.94ZM168.799 97.1171C169.018 98.3198 169.281 99.4477 169.471 100.751C166.372 101.164 166.82 104.667 164.376 105.839C165.336 102.824 166.588 99.9092 168.114 97.1368L168.799 97.1171ZM158.316 108.149C157.913 103.963 158.145 99.7406 159.005 95.6242C159.513 93.4284 159.53 91.1118 159.856 88.8631C160.096 86.6867 160.461 84.5261 160.951 82.392C161.353 80.795 161.997 79.2688 162.86 77.8662C165.898 72.7326 167.997 67.0989 169.06 61.2291C169.383 59.2722 170.271 57.4523 171.614 55.993L172.089 56.2409C171.977 57.0992 171.782 57.9447 171.508 58.7656C169.444 63.7499 169.457 69.1201 169.172 74.3155C168.886 79.5108 168.757 85.1461 168.606 90.5559C168.564 92.0549 168.681 93.5345 168.723 94.9704C166.116 96.4018 165.675 99.1208 163.942 101.311C163.435 100.418 163.193 99.822 163.749 98.8888C164.882 97.0283 165.813 95.1091 166.825 93.2133C166.973 92.7896 167.099 92.3582 167.201 91.921C166.797 91.8035 166.434 91.6977 166.309 91.9022C163.674 94.8587 161.132 97.7984 161.843 102.276C162.279 105.394 162.99 108.467 163.967 111.459C164.761 114.117 165.309 116.843 165.605 119.601C166.278 124.813 166.946 130.045 167.379 135.252C167.478 136.976 167.486 138.704 167.406 140.429L166.902 140.655C166.522 140.303 165.906 140.014 165.789 139.586C165.336 137.888 164.975 136.167 164.706 134.43C164.035 131.09 162.974 127.841 161.544 124.749C160.707 122.534 160.091 120.242 159.703 117.905C159.039 114.711 158.568 111.48 158.292 108.23L158.316 108.149ZM140.823 109.628C139.614 108.137 140.774 106.788 140.737 104.96C142.448 106.531 142.411 106.958 140.812 109.669L140.823 109.628ZM159.228 153.249C159.248 151.164 159.379 149.082 159.62 147.012C159.362 147.068 158.819 147.129 157.952 147.249C156.783 144.718 155.578 141.936 154.447 139.198C153.174 136.046 152.084 132.794 150.647 129.681C148.474 125.462 145.532 121.687 141.972 118.548C136.381 113 130.636 107.605 124.842 102.151C123.882 101.236 122.776 100.52 121.746 99.6947C116.943 95.6073 112.64 90.9656 108.928 85.8666C108.758 85.6481 108.639 85.3937 108.582 85.1227C108.524 84.8517 108.529 84.5711 108.595 84.3021C110.126 85.5143 111.715 86.6777 113.257 87.8494C119.099 92.3699 125.406 96.2543 132.072 99.4368L133.484 100.154C135.924 101.478 135.817 101.469 135.295 104.164C135.079 105.284 134.309 106.725 136.213 107.936C136.706 106.24 137.141 104.745 137.559 103.312C138.683 103.135 139.322 103.65 138.919 104.431C137.318 107.6 139.104 109.741 141.13 111.886C144.271 115.283 147.085 118.97 149.533 122.896C149.76 123.163 149.971 123.444 150.165 123.737C153.608 130.718 157.686 137.403 160.043 144.879C160.457 146.231 160.788 147.608 161.034 149C161.209 149.905 161.594 150.236 162.611 149.678C162.173 144.581 160.62 139.642 158.061 135.212C156.44 132.2 154.971 129.122 153.215 126.201C151.163 122.866 148.856 119.654 146.648 116.405C146.009 115.457 145.296 114.561 144.515 113.725C143.77 113.035 143.299 112.099 143.191 111.089C143.082 110.079 143.342 109.064 143.924 108.231C145.537 109.705 147.072 111.264 148.523 112.899C150.481 115.352 152.265 117.952 154.022 120.567C154.7 121.574 155.252 122.662 155.665 123.804C156.161 125.11 157.296 125.725 158.085 126.699C159.405 128.443 160.468 130.368 161.24 132.414C162.672 136.073 163.919 139.765 165.091 143.566C165.243 144.514 165.264 145.479 165.155 146.432C164.12 147.051 162.861 147.539 163.396 149.162C163.931 150.785 164.552 150.835 165.829 150.286C166.433 149.944 167.004 149.546 167.533 149.096C168.906 148.038 170.418 147.174 172.026 146.527C171.087 147.228 170.279 148.091 169.642 149.075C168.734 151.105 167.169 152.772 165.199 153.804C164.393 154.315 163.827 154.982 165.015 155.941C166.924 154.876 168.85 153.75 170.834 152.729C173.035 151.535 175.294 150.453 177.604 149.487C181.073 148.047 184.617 146.798 188.221 145.743C191.266 144.984 194.357 144.42 197.474 144.056C202.645 143.371 207.877 142.704 213.057 141.912C216.57 141.357 220.037 140.505 223.579 139.849C225.225 139.54 226.883 139.409 228.508 139.094C232.452 138.336 235.657 140.343 238.989 141.838C240.425 142.475 241.74 143.449 243.421 142.34L244.911 144.745C245.36 144.634 245.773 144.645 246.005 144.45C246.526 143.905 247.203 143.534 247.944 143.389C248.684 143.244 249.451 143.331 250.14 143.638C250.291 143.716 250.455 143.764 250.624 143.779C257.269 143.523 263.916 144.691 270.582 143.762C274.031 143.277 277.553 143.141 281.013 142.768C282.164 142.585 283.301 142.324 284.416 141.985C284.463 141.824 284.516 141.642 284.408 141.413C283.984 141.29 283.579 140.799 283.18 140.815C277.69 141.166 272.208 140.885 266.725 142.114C265.423 142.312 264.099 142.325 262.794 142.152C259.377 141.902 255.97 141.641 252.574 141.368C252.081 141.334 251.625 141.092 250.791 141.024L254.148 137.993C254.048 137.811 253.974 137.614 253.879 137.411C253.359 137.405 252.84 137.483 252.344 137.643C250.948 138.376 249.673 139.297 248.257 140.024C247.409 140.379 246.534 140.666 245.641 140.883C246.323 138.541 249.196 138.829 249.413 136.352C248.863 136.309 248.31 136.371 247.783 136.535C246.251 137.359 244.77 138.308 243.246 139.178C242.192 139.791 241.108 140.505 239.716 139.115L243.256 136.509C242.722 135.412 242.045 135.631 241.399 135.969C240.223 136.54 239.102 137.218 238.049 137.994C237.307 138.589 236.685 138.846 235.927 138.362C232.904 136.409 229.74 137.043 226.495 137.807C225.05 138.109 223.632 138.463 222.213 138.751L221.993 138.227L228.652 131.601C230.862 131.528 233.074 131.594 235.275 131.799C240.885 132.381 246.385 133.747 251.617 135.855C254.915 137.256 258.334 138.354 261.832 139.135C261.988 139.201 262.15 139.248 262.317 139.276C268.021 139.469 273.704 139.809 279.363 139.857C283.742 139.861 287.88 139.642 292.007 141.566C294.434 142.711 297.038 143.469 299.594 144.848C298.908 145.031 298.206 145.149 297.498 145.201C292.337 145.361 287.193 145.884 282.105 146.766C277.549 147.367 272.862 147.668 268.233 148.072C267.709 148.139 267.175 148.093 266.661 148.206C262.254 149.148 257.727 149.39 253.245 148.922C250.01 149.02 246.783 149.302 243.581 149.767C237.82 149.996 232.038 150.218 226.288 150.034C223.688 149.67 221.116 149.127 218.592 148.407C216.508 148.041 214.336 147.979 212.346 147.816L205.327 147.174C199.368 146.83 193.39 147.363 187.585 148.756C183.646 149.577 179.818 150.86 176.179 152.576C174.009 153.457 172.011 154.714 170.279 156.291C169.459 157.045 168.85 158 168.509 159.061C168.289 159.987 167.801 160.828 167.105 161.478C161.867 166.296 157.129 171.632 152.964 177.402C151.001 179.852 148.866 182.159 146.575 184.304C145.754 185.214 144.998 186.179 144.31 187.193C141.654 191.232 138.575 194.976 135.123 198.361C135.38 194.932 136.862 191.709 139.299 189.282C139.988 188.799 140.631 188.253 141.22 187.651C141.772 186.958 142.114 186.159 143.285 186.5C144.133 186.747 144.687 186.273 145.044 185.348C145.568 184.148 146.196 182.997 146.922 181.908C148.803 178.754 150.705 175.606 152.567 172.446C152.702 171.982 152.739 171.401 153.002 170.952C153.369 169.507 154.174 168.211 155.308 167.243C155.986 166.572 156.461 165.723 156.678 164.794C156.953 163.555 157.295 162.331 157.701 161.128C158.862 158.686 159.383 155.988 159.216 153.29L159.228 153.249ZM122.382 160.265C121.918 165.847 121.328 171.413 120.763 176.966C120.616 177.47 120.469 177.975 120.53 178.519L119.557 194.728C119.555 194.988 119.494 195.244 119.377 195.476C119.26 195.708 119.091 195.909 118.883 196.065C118.614 192.548 118.392 189.023 118.109 185.48C117.942 183.57 117.729 181.668 117.45 179.769C117.047 177.089 116.578 174.411 116.129 171.74C116.036 171.227 116.063 170.698 116.209 170.197C116.355 169.696 116.615 169.236 116.97 168.853C117.851 167.707 118.567 166.448 119.505 165.035C117.485 164.447 117.124 166.817 115.284 166.741C115.289 165.823 114.942 164.758 115.315 164.078C117.271 160.595 119.39 157.226 121.717 153.37C122.406 155.599 122.632 157.945 122.382 160.265V160.265ZM122.047 146.369L122.698 146.69C121.937 151.637 118.116 154.906 115.584 159.316C115.139 158.854 114.878 158.244 114.851 157.603C114.823 156.962 115.032 156.333 115.437 155.834C117.663 152.701 119.868 149.539 122.053 146.349L122.047 146.369ZM111.585 223.619C111.803 222.683 112.072 221.759 112.391 220.853C113.309 217.746 113.838 214.538 113.966 211.302C114.294 208.015 114.289 204.705 113.951 201.419C113.471 198.104 112.875 194.732 112.221 191.563C110.807 185.435 109.089 179.372 107.727 173.215C106.192 166.366 105.92 159.295 106.924 152.349C107.452 148.801 107.427 145.202 107.843 141.665C108.264 137.21 108.826 132.796 109.267 128.347C110.101 121.436 109.509 114.429 107.529 107.756C107.456 107.293 107.432 106.823 107.455 106.355C110.149 108.484 112.31 111.213 113.765 114.324C115.445 118.559 116.824 122.924 118.19 127.264C119.555 131.604 120.735 135.825 121.965 140.103C122.252 141.024 122.453 141.97 122.566 142.928C122.607 143.441 122.459 143.951 122.149 144.362C119.697 147.218 117.141 149.979 114.651 152.89C114.403 152.505 114.287 152.05 114.321 151.593C114.355 151.137 114.537 150.704 114.84 150.36C115.951 148.8 116.999 147.156 118.001 145.52C118.307 144.779 118.532 144.007 118.671 143.218C116.246 144.024 116.041 146.461 113.894 147.062L113.234 140.3C111.727 140.89 111.96 142.119 112.009 142.856C112.054 145.41 112.258 147.944 112.442 150.472C112.669 153.605 113.136 156.742 113.123 159.87C113.175 164.69 113.699 169.493 114.687 174.211C115.892 181.133 116.228 187.955 116.8 194.867C117.004 197.555 116.649 200.277 116.621 203.007C116.575 204.746 116.616 206.488 116.543 208.241C116.52 209.108 116.402 209.969 116.19 210.81C115.515 212.678 114.959 214.586 114.527 216.524C114.036 219.993 112.857 223.329 111.058 226.335C111.256 225.428 111.393 224.505 111.591 223.599L111.585 223.619ZM123.374 209.003C124.289 206.838 125.38 204.746 126.301 202.561C127.721 199.185 129.061 195.786 130.462 192.405C130.76 191.686 131.109 190.99 131.506 190.321C133.663 186.287 134.921 181.834 135.196 177.268C134.862 177.544 134.579 177.877 134.362 178.252C133.402 180.798 132.529 183.347 131.629 185.911C131.359 186.84 131.088 187.768 130.683 188.636C127.95 194.411 125.09 200.325 122.395 206.199C121.682 207.743 121.105 209.35 120.467 210.938C120.127 212.109 119.786 213.28 119.309 214.39L118.623 214.19C118.698 213.563 118.898 212.957 119.212 212.409C119.526 211.861 119.947 211.381 120.45 210.999L120.491 210.857C120.388 210.608 120.144 210.318 120.217 210.142C122.597 203.848 125.092 197.609 127.371 191.286C128.732 187.586 129.69 183.769 130.95 180.04C132.111 176.655 133.454 173.322 134.721 169.946C135.45 167.968 136.155 166.224 136.814 164.335C137.925 161.197 138.94 158.01 140.044 154.893C140.302 154.267 140.763 153.746 141.352 153.412C141.291 155.803 141.276 158.187 141.169 160.587C140.898 166.334 140.627 172.081 140.243 177.839C140.148 181.813 138.895 185.673 136.638 188.946C134.378 191.968 133.612 195.578 132.171 198.947C131.93 199.775 131.508 200.55 131.105 201.331C129.424 204.697 127.764 208.068 125.988 211.384C124.877 213.47 123.576 215.457 122.283 217.643C123.728 219.225 122.682 220.563 121.471 221.787C119.047 224.17 116.548 226.509 113.782 229.165C114.218 226.477 115.353 223.952 117.074 221.844C118.541 219.987 119.766 217.951 120.721 215.787C121.769 213.617 122.442 211.228 123.38 208.982L123.374 209.003ZM84.6428 190.895C84.7781 191.513 84.8004 192.15 84.7086 192.776C83.6128 195.543 81.9367 198.042 79.7932 200.106C80.2876 196.527 82.9832 194.114 84.0076 190.82L84.6428 190.895ZM83.0808 189.564C81.6688 191.782 80.2223 193.967 78.7758 196.152C78.6994 196.415 78.2225 196.473 77.7734 196.737C77.6806 196.228 77.4659 195.837 77.5709 195.626C79.1347 192.511 80.7069 189.443 82.4278 186.089C83.4648 187.267 83.8843 188.309 83.0984 189.504L83.0808 189.564ZM77.9247 243.17C76.33 237.362 75.5251 231.324 74.3442 225.373C74.2164 224.07 73.9998 222.778 73.6961 221.504C71.7684 215.862 72.0461 209.941 71.4163 204.129C70.7789 199.111 69.6748 194.162 68.1184 189.349C66.9435 185.108 65.6063 180.973 64.4372 176.713C64.0858 175.213 63.871 173.684 63.7954 172.145C63.5547 168.834 63.5395 165.5 63.1861 162.199C63.1573 158.644 63.7838 155.114 65.0344 151.786C73.0791 161.772 76.9885 173.248 81.912 184.099L76.3396 192.859C76.4906 190.989 77.1127 189.189 78.1478 187.625C78.8258 186.048 79.524 184.477 80.2777 182.791C79.2839 182.217 78.8256 182.587 78.3853 183.423C77.5646 185.11 76.5906 186.718 75.4757 188.227C75.4129 186.401 75.9808 184.61 77.0838 183.153C77.6538 182.399 78.0529 181.705 76.9311 180.744C75.9973 182.071 75.1593 183.294 73.9489 185.044C72.8384 181.786 72.0135 179.203 71.0421 176.445C69.9403 176.694 69.7995 177.704 70.0718 178.725C70.5059 180.319 71.1569 181.844 71.6835 183.421C72.4149 185.649 73.1143 187.912 73.8457 190.14C74.577 192.368 75.1964 194.453 76.0615 196.523C76.9265 198.593 78.3899 201.165 79.3804 203.556C79.8778 204.766 80.1702 206.05 80.2455 207.356C80.6435 212.159 80.9287 216.973 81.2199 221.767C81.5677 225.163 81.3968 228.591 80.7131 231.936C80.3126 234.511 80.3867 237.138 80.9318 239.687C81.5938 244.26 82.4426 249.019 83.3006 253.672C83.8278 255.452 84.0281 257.314 83.8916 259.166C81.7124 253.56 79.3745 248.499 77.9424 243.11L77.9247 243.17ZM74.21 320.72C73.771 321.358 73.1228 321.822 72.3775 322.033C71.6322 322.244 70.8366 322.188 70.1283 321.875C69.8692 321.711 69.6492 321.492 69.4837 321.233C69.3182 320.975 69.2113 320.683 69.1704 320.379C69.1295 320.075 69.1557 319.766 69.247 319.473C69.3384 319.18 69.4927 318.911 69.6992 318.684C70.1391 318.131 70.769 317.763 71.4661 317.65C72.1631 317.537 72.8773 317.687 73.4691 318.073C74.569 318.809 74.8471 319.81 74.2276 320.659L74.21 320.72ZM82.977 294.513C81.1807 298.502 79.2977 302.488 77.758 306.574C76.6425 309.578 75.9654 312.732 75.1462 315.998L70.9844 315.247C71.0655 314.626 71.2 314.013 71.3863 313.414C72.3633 310.961 73.4556 308.563 74.4325 306.11C76.6788 300.499 78.9252 294.889 81.0705 289.249C81.5737 287.972 81.5493 286.476 82.0239 285.146C82.9058 282.643 83.9896 280.199 84.9379 277.693C85.2709 276.905 85.4637 276.064 85.5078 275.209C85.5279 273.485 85.3402 271.722 85.2938 270C85.0574 267.911 85.2267 265.796 85.7926 263.771C86.1489 262.418 86.2615 261.012 86.1252 259.619C86.0908 257.599 85.9465 255.583 85.6929 253.579C85.3475 251.004 84.817 248.462 84.3386 245.892L82.8767 238.348L87.1072 232.242C85.1232 231.533 84.8788 233.652 83.6837 234.071C83.0129 231.86 82.9387 231.664 85.0906 228.786C86.2128 227.338 86.7921 225.273 89.0689 224.599L88.6683 222.665C85.9026 222.911 86.0313 226.081 83.8195 227.058C83.6329 226.636 83.5568 226.174 83.5985 225.714C83.6402 225.255 83.7983 224.814 84.0578 224.433C85.2766 222.729 86.5788 221.115 87.7168 219.387C88.069 218.933 88.2878 218.39 88.3485 217.819C88.3528 216.95 88.2904 216.083 88.1621 215.224C86.7163 217.256 85.2706 219.288 83.845 221.327L83.1912 220.939C82.2933 217.327 85.5402 215.578 87.1043 212.989C86.9609 212.202 86.3955 212.038 85.801 212.5C84.6583 213.415 83.6074 214.468 82.1823 215.827C81.9475 212.495 81.8441 209.464 81.5421 206.288C83.6623 204.725 85.154 202.456 85.7479 199.89C83.9286 198.616 83.9972 201.089 82.7978 201.222C83.2 199.128 84.1171 197.167 85.4663 195.515C86.8987 196.765 86.6851 198.476 86.7994 199.89C87.0686 204.334 87.6949 208.75 88.6723 213.095C88.7221 213.688 88.7027 214.285 88.6144 214.874C89.7962 216.806 90.3717 219.049 90.2666 221.312C90.3229 223.312 90.2667 225.314 90.0983 227.308L89.8372 234.526C90.2049 240.787 90.5784 247.029 90.5994 253.277C90.4064 255.635 89.9561 257.964 89.2564 260.224C88.1106 264.62 87.4518 269.129 87.2919 273.67C87.2848 274.522 87.7311 275.396 87.6231 276.219C87.2677 278.569 87.9303 281.258 87.0279 283.23C85.3837 286.847 84.6246 290.809 82.9946 294.453L82.977 294.513ZM105.922 263.016C102.325 265.517 98.8537 268.186 95.3306 270.884C94.5158 271.501 93.7726 272.249 92.5946 273.286C92.6821 272.708 92.8462 272.144 93.0824 271.61C95.0849 268.211 97.7699 265.263 100.968 262.954C102.842 261.602 104.62 260.121 106.288 258.523C112.309 253.853 118.629 249.584 125.209 245.742C125.507 245.563 125.817 245.405 126.135 245.267L126.593 245.575C126.368 246.081 126.102 246.568 125.797 247.03C124.083 249.006 122.45 251.006 120.586 252.894C119.994 253.511 119.329 254.053 118.605 254.508C114.362 257.347 110.108 260.073 105.94 262.955L105.922 263.016ZM119.088 258.569C117.247 259.249 115.36 259.798 113.441 260.211L113.212 259.64C113.951 259.286 114.64 258.873 115.387 258.565C116.134 258.257 116.697 258.355 117.109 257.993C123.087 252.505 130.578 249.342 137.522 245.427C140.871 243.554 144.463 242.125 147.773 240.307C151.084 238.489 154.291 236.575 157.533 234.694C158.959 233.86 160.424 233.038 161.787 232.121C162.395 231.608 162.95 231.036 163.444 230.413C163.919 229.758 164.5 229.187 165.163 228.723C167.486 227.392 169.579 225.693 171.358 223.692C173.081 222.363 174.896 221.157 176.789 220.083C178.251 219.117 179.629 218.031 180.91 216.836C181.513 216.056 181.858 215.107 181.897 214.122C186.254 210.543 190.605 206.983 194.949 203.444L195.297 203.83C193.334 205.909 191.371 207.988 189.393 210.04L176.272 223.743C173.182 226.843 169.759 229.593 166.066 231.942C159.42 236.338 152.815 240.745 146.077 245.004C137.414 250.132 128.401 254.645 119.105 258.508L119.088 258.569ZM222.667 248.856C222.912 248.49 223.189 248.145 223.492 247.826C225.473 246.212 227.55 244.495 229.512 242.722C230.791 241.562 231.91 240.201 233.112 238.93L235.502 236.515C235.988 236.107 236.451 235.671 236.889 235.211C243.386 227.487 250.655 220.425 256.43 212.097C257.798 210.39 259.272 208.771 260.842 207.248C264.037 203.798 266.922 200.432 270.015 197.105C271.194 195.847 272.548 194.766 274.037 193.896L274.695 194.569C274.323 195.096 274.011 195.64 273.61 196.115C271.033 199.001 268.451 201.9 265.866 204.812C264.269 206.537 262.503 208.389 260.925 210.273C258.952 212.612 257.172 215.116 255.202 217.368C252.579 220.438 249.872 223.417 247.15 226.37C243.497 230.344 239.61 234.141 236.114 238.249C232.751 242.16 228.857 245.583 224.547 248.417C224.276 248.607 223.969 248.738 223.645 248.802C223.321 248.866 222.987 248.862 222.664 248.789L222.667 248.856ZM89.2225 233.252L89.8952 234.477C89.6859 234.745 89.4564 235.006 88.8461 235.749C88.8606 234.57 88.8435 233.952 88.8524 233.319L89.2225 233.252Z" fill="#101A24"/>
</g>
<defs>
<clipPath id="clip0_70_31">
<rect width="266.216" height="379.42" fill="white" transform="translate(106.04) rotate(16.2292)"/>
</clipPath>
</defs>
</svg>
