<svg width="100" height="103" viewBox="0 0 100 103" fill="none" xmlns="http://www.w3.org/2000/svg">
<g clip-path="url(#clip0_70_47)">
<path fill-rule="evenodd" clip-rule="evenodd" d="M7.48997 71.58C7.98997 72.5277 8.55464 73.4399 9.17997 74.31C9.75997 75.15 10.52 75.88 11.04 76.76C11.9892 78.407 13.1866 79.8978 14.59 81.18C16.07 82.51 17.28 84.11 19.09 85.1C20.3885 85.8319 21.5742 86.7481 22.61 87.82C24.9894 89.9998 27.6215 91.8866 30.45 93.44C32.7365 94.834 35.1191 96.0638 37.58 97.12C41.07 98.62 44.64 99.92 48.2 101.25C48.9401 101.455 49.7024 101.569 50.47 101.59C51.69 101.71 52.92 101.78 54.14 101.9C54.9 101.98 55.65 102.15 56.42 102.2C59.33 102.42 62.25 102.55 65.16 102.81C67.8348 103.014 70.5248 102.862 73.16 102.36C73.9151 102.217 74.6815 102.144 75.45 102.14C78.7311 102.16 81.9814 101.506 85 100.22C86.28 99.7 87.63 99.37 89 98.96C89.6516 98.8197 90.2904 98.6257 90.91 98.38C92.91 97.38 94.91 96.46 96.76 95.3C97.712 94.8742 98.5185 94.1789 99.08 93.3C99.5465 92.2207 99.7256 91.0391 99.6 89.87C99.615 89.4305 99.5332 88.9931 99.3604 88.5887C99.1876 88.1844 98.928 87.8229 98.6 87.53C97.9986 86.8937 97.4311 86.2261 96.9 85.53C95.78 84.19 94.75 82.77 93.53 81.53C90.9088 78.9968 88.5255 76.2285 86.41 73.26C85.34 71.67 84.23 70 83 68.4C81 65.73 78.9 63.13 76.88 60.46C76.5894 59.9184 76.3741 59.3398 76.24 58.74C75.69 58.74 75.24 58.36 74.72 57.74C73.0906 55.9214 71.5744 54.0044 70.18 52C67.79 48.47 65.18 45.12 62.63 41.68C62 40.81 61.48 39.87 60.83 39.01C58.2132 35.6234 55.8945 32.0166 53.9 28.23C53.24 26.96 52.42 25.77 51.64 24.56C50.74 23.13 49.8 21.72 48.88 20.3C48.041 18.8841 47.1298 17.5123 46.15 16.19C44.1776 13.674 42.4181 10.9981 40.89 8.19001C39.31 5.43001 37.89 2.51001 34.76 1.07001C34.665 1.03814 34.5815 0.979013 34.52 0.900008C34 -0.269992 33 7.97212e-06 32.12 0.080008C31.1424 0.17151 30.181 0.390016 29.26 0.730008C25.7348 1.91432 22.4399 3.69706 19.52 6.00001C17.17 7.91001 15 10 12.78 12.1C11.2922 13.2694 9.94933 14.6122 8.77997 16.1C6.81805 19.0578 5.08309 22.16 3.58997 25.38C1.86868 28.7742 0.751976 32.4424 0.289969 36.22C0.0966352 38.2733 -3.14284e-05 40.3267 -3.14284e-05 42.38C-0.0553729 43.8144 0.0249845 45.2508 0.239969 46.67C0.669969 49.24 1.29997 51.79 1.82997 54.36C2.03997 55.36 2.13997 56.49 2.40997 57.53C2.81997 59.07 3.40997 60.53 3.78997 62.1C4.62562 65.4011 5.86849 68.5856 7.48997 71.58V71.58Z" fill="white"/>
<path fill-rule="evenodd" clip-rule="evenodd" d="M7.48997 71.58C7.98997 72.5277 8.55464 73.4399 9.17997 74.31C9.75997 75.15 10.52 75.88 11.04 76.76C11.9892 78.407 13.1866 79.8978 14.59 81.18C16.07 82.51 17.28 84.11 19.09 85.1C20.3885 85.8319 21.5742 86.7481 22.61 87.82C24.9894 89.9998 27.6215 91.8866 30.45 93.44C32.7365 94.834 35.1191 96.0638 37.58 97.12C41.07 98.62 44.64 99.92 48.2 101.25C48.9401 101.455 49.7024 101.569 50.47 101.59C51.69 101.71 52.92 101.78 54.14 101.9C54.9 101.98 55.65 102.15 56.42 102.2C59.33 102.42 62.25 102.55 65.16 102.81C67.8348 103.014 70.5248 102.862 73.16 102.36C73.9151 102.217 74.6815 102.144 75.45 102.14C78.7311 102.16 81.9814 101.506 85 100.22C86.28 99.7 87.63 99.37 89 98.96C89.6516 98.8197 90.2904 98.6257 90.91 98.38C92.91 97.38 94.91 96.46 96.76 95.3C97.712 94.8742 98.5185 94.1789 99.08 93.3C99.5465 92.2207 99.7256 91.0391 99.6 89.87C99.615 89.4305 99.5332 88.9931 99.3604 88.5887C99.1876 88.1844 98.928 87.8229 98.6 87.53C97.9986 86.8937 97.4311 86.2261 96.9 85.53C95.78 84.19 94.75 82.77 93.53 81.53C90.9088 78.9968 88.5255 76.2285 86.41 73.26C85.34 71.67 84.23 70 83 68.4C81 65.73 78.9 63.13 76.88 60.46C76.5894 59.9184 76.3741 59.3398 76.24 58.74C75.69 58.74 75.24 58.36 74.72 57.74C73.0906 55.9214 71.5744 54.0044 70.18 52C67.79 48.47 65.18 45.12 62.63 41.68C62 40.81 61.48 39.87 60.83 39.01C58.2132 35.6234 55.8945 32.0166 53.9 28.23C53.24 26.96 52.42 25.77 51.64 24.56C50.74 23.13 49.8 21.72 48.88 20.3C48.041 18.8841 47.1298 17.5123 46.15 16.19C44.1776 13.674 42.4181 10.9981 40.89 8.19001C39.31 5.43001 37.89 2.51001 34.76 1.07001C34.665 1.03814 34.5815 0.979013 34.52 0.900008C34 -0.269992 33 7.97212e-06 32.12 0.080008C31.1424 0.17151 30.181 0.390016 29.26 0.730008C25.7348 1.91432 22.4399 3.69706 19.52 6.00001C17.17 7.91001 15 10 12.78 12.1C11.2922 13.2694 9.94933 14.6122 8.77997 16.1C6.81805 19.0578 5.08309 22.16 3.58997 25.38C1.86868 28.7742 0.751976 32.4424 0.289969 36.22C0.0966352 38.2733 -3.14284e-05 40.3267 -3.14284e-05 42.38C-0.0553729 43.8144 0.0249845 45.2508 0.239969 46.67C0.669969 49.24 1.29997 51.79 1.82997 54.36C2.03997 55.36 2.13997 56.49 2.40997 57.53C2.81997 59.07 3.40997 60.53 3.78997 62.1C4.62562 65.4011 5.86849 68.5856 7.48997 71.58V71.58ZM17.41 21.13C17.1567 21.9612 16.9859 22.8153 16.9 23.68C16.8688 24.1372 16.711 24.5766 16.4443 24.9492C16.1777 25.3219 15.8126 25.613 15.39 25.79C14.99 26 14.61 26.25 14.16 26.52C13.69 25.08 14.52 23.95 14.76 22.74C15.07 21.3964 15.4846 20.079 16 18.8C16.5 17.46 17 16.09 18.46 15.46C18.6685 15.3978 18.883 15.3576 19.1 15.34C18.49 17.4 17.92 19.26 17.41 21.13V21.13ZM20.15 15.81C20.55 14.72 20.97 13.56 22.5 13.2C22.32 13.73 22.2 14.2 22.03 14.57C21.14 16.81 20.23 19.04 19.35 21.28C19.1634 21.6984 19.0452 22.1441 19 22.6C19 23.4 18.49 23.6 17.56 23.82C17.88 22.82 18.14 22.01 18.4 21.21C19 19.4 19.5 17.58 20.15 15.81V15.81ZM17.91 25.72L17.49 27.19C17 26.23 17 26.23 17.91 25.72V25.72ZM31.91 83.63C31.2879 83.4543 30.7188 83.1278 30.253 82.6795C29.7873 82.2312 29.4393 81.6749 29.24 81.06V81.06C29.05 81.06 28.8 81.2 28.68 81.12C27.6585 80.5092 26.7952 79.6665 26.16 78.66C26.74 78.43 26.98 78.75 27.25 79.03L29.25 81.03L31.91 83.63ZM33.23 86.42L32.89 87.16C32.7 87.16 32.59 87.24 32.51 87.16C29.81 85.84 27.6 83.82 25.24 82.01C25.1357 81.8815 25.0618 81.7312 25.0237 81.5701C24.9856 81.4091 24.9843 81.2416 25.02 81.08C25.1885 80.5557 25.4096 80.0498 25.68 79.57L33.23 86.42ZM34.23 86.92L41.79 92.14L39.79 92.61C38.14 91.47 36.4 90.31 34.71 89.08C33.73 88.42 33.69 88.07 34.21 86.92H34.23ZM24.78 79.32C21.53 76.75 19.39 73.46 16.92 70.37L17.71 68.58C20.2 71.85 22.4 75.05 25.55 77.58L24.78 79.32ZM11.56 43.74C11.76 46.38 11.93 48.8 12.14 51.22C12.1137 52.2371 12.259 53.2513 12.57 54.22C13.24 55.67 12.35 56.22 11.49 57.08C11.2758 56.7239 11.1109 56.3404 11 55.94C10.61 52.84 10.24 49.74 9.90997 46.63C9.85508 46.0372 9.98398 45.4418 10.2792 44.9248C10.5744 44.4077 11.0215 43.9941 11.56 43.74V43.74ZM9.08997 44.41C9.19997 42.19 9.25997 40.41 9.38997 38.55C9.51997 36.69 9.72997 34.79 9.90997 32.91C9.91535 32.2167 10.1383 31.5426 10.5474 30.9827C10.9565 30.4229 11.531 30.0057 12.19 29.79C12.04 31.55 11.92 33.16 11.75 34.79C11.3852 37.0069 11.2445 39.2549 11.33 41.5C11.3655 41.8582 11.2616 42.2164 11.04 42.5C10.53 43.05 9.92997 43.58 9.08997 44.41V44.41ZM13.44 56.57C13.93 57.91 14.34 59.12 14.82 60.3C15.48 61.91 16.09 63.55 16.89 65.09C17.69 66.63 17.07 67.89 16.24 69.45C15.5584 68.5616 14.9624 67.6107 14.46 66.61C13.57 64.21 12.8 61.76 12.05 59.31C11.76 58.37 12 58.11 13.44 56.57V56.57ZM19 67.32C20.08 69.2 21.16 71.06 22.24 72.92L22.04 73.06C21.77 72.68 21.51 72.28 21.21 71.91C20.42 70.91 19.61 69.91 18.81 68.91C18.23 68.16 18.25 68.06 19 67.32ZM15.83 58.05C16.1896 60.3948 16.9222 62.6668 18 64.78C18.17 65.14 18.61 65.55 18.09 66.09C17.52 64.85 16.9 63.69 16.43 62.47C15.69 60.55 15.07 58.59 14.37 56.65C14.2282 56.3462 14.1945 56.003 14.2746 55.6775C14.3546 55.3519 14.5435 55.0635 14.81 54.86C15.2699 55.8839 15.6218 56.9531 15.86 58.05H15.83ZM13.39 54.46C13.19 52.76 12.97 51.31 12.86 49.85C12.71 47.91 12.66 45.96 12.52 44.02C12.4605 43.3003 12.6031 42.5783 12.9318 41.9352C13.2604 41.2921 13.7619 40.7535 14.38 40.38C14.38 41.75 14.33 42.95 14.38 44.14C14.45 47.14 14.54 50.06 14.63 53.02C14.65 53.61 14.67 53.61 13.42 54.46H13.39ZM13.9 39.46C13.33 40.02 12.79 40.6 12.23 41.17L12 41C12 40 12 39 12.15 38C12.45 35.46 12.87 32.94 13.15 30.4C13.2322 29.6047 13.5234 28.8452 13.9941 28.1989C14.4648 27.5526 15.0982 27.0423 15.83 26.72C15.67 27.72 15.52 28.61 15.39 29.47C15.11 31.28 14.8 33.09 14.57 34.91C14.5169 35.5236 14.5642 36.1417 14.71 36.74C14.8438 37.2181 14.8417 37.724 14.704 38.2009C14.5662 38.6779 14.2981 39.107 13.93 39.44L13.9 39.46ZM16.8 27.65L17.18 27.77C16.93 28.47 16.68 29.17 16.44 29.86C16.3326 29.483 16.312 29.0865 16.3795 28.7003C16.4471 28.3142 16.601 27.9483 16.83 27.63L16.8 27.65ZM14.42 20.65C14 22.45 13.56 24.24 13.13 26.04C13.0383 26.7055 12.7606 27.3316 12.329 27.8464C11.8974 28.3611 11.3293 28.7437 10.69 28.95C10.91 27.86 11.05 26.87 11.31 25.95C11.85 24.02 12.43 22.11 13.02 20.2C13.1673 19.7701 13.4104 19.3793 13.7309 19.0571C14.0514 18.7349 14.4409 18.4897 14.87 18.34C14.74 19.13 14.62 19.87 14.45 20.6L14.42 20.65ZM10.42 26.41C10.3664 27.0645 10.2763 27.7156 10.15 28.36C9.93645 29.1828 9.59927 29.9684 9.14997 30.69C8.43784 31.6294 7.67679 32.5306 6.86997 33.39C6.55997 32.53 6.97997 29.8 7.86997 26.88C8.44575 24.6546 9.68369 22.6565 11.42 21.15C11.09 23 10.75 24.65 10.45 26.36L10.42 26.41ZM7.77997 34.41C7.9726 33.8272 8.27091 33.2848 8.65997 32.81L9.01997 32.93C8.99997 33.6 8.99997 34.29 8.99997 35C8.80664 37.6667 8.60997 40.3333 8.40997 43C8.40997 43.21 8.26997 43.45 8.34997 43.61C9.20997 45.52 7.65997 46.48 6.81997 47.71L6.48997 47.63C6.45499 47.144 6.45499 46.656 6.48997 46.17C6.86997 42.2 7.29997 38.29 7.80997 34.39L7.77997 34.41ZM9.07997 47.06C9.16997 48.06 9.25997 49.06 9.33997 50.06C9.41594 52.5742 9.81591 55.0681 10.53 57.48C10.5804 57.6657 10.5931 57.8595 10.5673 58.0502C10.5416 58.2408 10.4779 58.4244 10.38 58.59C9.90997 59.26 9.55997 60.2 8.31997 59.94C8.02997 57.94 7.71997 55.94 7.42997 53.94C7.38893 53.1755 7.30211 52.4141 7.16997 51.66C6.62997 49.71 7.52997 48.32 9.07997 47.06ZM15.08 69.62C15.358 69.9721 15.5026 70.4112 15.4879 70.8596C15.4733 71.308 15.3004 71.7368 15 72.07C14.1411 71.2775 13.4859 70.2896 13.09 69.19C12.35 67.32 11.49 65.51 10.69 63.67C10.46 63.15 10.31 62.6 10.06 62.1C9.57997 61.1 9.87997 60.44 10.9 59.85C11.234 60.4456 11.5183 61.0677 11.75 61.71C12.4665 64.502 13.6028 67.1691 15.12 69.62H15.08ZM15.85 75.32C16.24 75.72 16.59 76.04 16.9 76.39C18.4 78.14 19.9 79.9 21.41 81.64C21.6649 81.8958 21.9767 82.0877 22.32 82.2C22.81 82.39 23.11 82.2 23.13 81.64C20.4811 79.7845 18.2863 77.3539 16.71 74.53C16.6344 74.3967 16.5438 74.2726 16.44 74.16C15.52 73.16 15.52 72.93 16.61 71.65L24.11 80.19C23.82 81.36 23.55 82.43 23.26 83.63C22.9626 83.5109 22.6805 83.3564 22.42 83.17C20.42 81.35 18.5 79.54 16.6 77.66C16.2311 77.4107 15.9591 77.042 15.8299 76.616C15.7006 76.1899 15.7218 75.7323 15.89 75.32H15.85ZM31.53 91.2C29.53 90.05 27.62 89.01 25.78 87.81C25.3355 87.6013 24.9611 87.2683 24.7019 86.8512C24.4428 86.4342 24.3101 85.9509 24.32 85.46C24.4718 85.6221 24.6356 85.7725 24.81 85.91C26.81 87.25 28.81 88.57 30.81 89.91C31.22 90.18 31.82 90.36 31.53 91.2ZM31.78 89.36C30.4362 88.8312 29.1658 88.1322 28 87.28C27 86.74 26.22 86 25.34 85.4C23.98 84.4 23.97 84.46 24.61 82.61L29.7 86.51C30.35 87.01 31.01 87.51 31.7 87.96C32.39 88.41 32.21 88.77 31.78 89.36ZM41.91 96.11C39.1485 94.9765 36.5277 93.5268 34.1 91.79C33.62 91.44 33.1 91.08 33.33 90.28C33.4 90 33.05 89.61 32.74 88.94C33.65 89.44 34.28 89.74 34.85 90.11C36.57 91.22 38.27 92.36 39.97 93.49C40.4628 93.7614 40.8912 94.136 41.2261 94.5882C41.5609 95.0403 41.7941 95.5594 41.91 96.11V96.11ZM50.91 98.69C48.81 98.11 46.73 97.48 44.63 96.95C44.2275 96.8599 43.8524 96.6749 43.5358 96.4105C43.2192 96.1461 42.9704 95.81 42.81 95.43C43.1272 95.445 43.4421 95.4919 43.75 95.57C45.75 96.33 47.75 97.09 49.75 97.89C50.1599 98.1162 50.5453 98.3844 50.9 98.69H50.95C51.66 98.32 51.67 98.32 52.47 98.84L50.91 98.69ZM44.65 95.18C45.49 94.92 45.49 94.92 46.46 95.73L44.65 95.18ZM48.15 96.53L48.31 96.17L51.39 97.33C50.18 97.52 49.2 96.91 48.16 96.53H48.15ZM54.38 99.46L53.61 99.2L53.76 98.88L54.47 99.23L54.38 99.46ZM51.38 96.55L43.83 93.55C43.5165 93.4189 43.2559 93.1865 43.09 92.89C43.3464 92.8751 43.6035 92.8751 43.86 92.89C46.37 93.03 48.58 94.12 50.86 95.02C51.8441 95.354 52.8455 95.6344 53.86 95.86C54.17 95.96 54.47 96.11 55.06 96.36C53.6 96.73 52.52 97 51.37 96.55H51.38ZM54.54 98.07C55.54 97.66 59.25 98.65 61.88 100.07C60.5848 100.365 59.2369 100.337 57.9552 99.9879C56.6735 99.6391 55.4972 98.9805 54.53 98.07H54.54ZM62.46 99.07L56 97.09C55.87 97.09 55.78 96.9 55.66 96.8C55.76 96.17 56.07 96.09 56.66 96.24C58.28 96.7 59.93 97.07 61.56 97.5C62.44 97.73 63.31 98 64.32 98.29C64.138 98.6059 63.8524 98.8492 63.5116 98.9786C63.1708 99.108 62.7957 99.1156 62.45 99L62.46 99.07ZM66.46 100.26C66.4064 99.9485 66.2944 99.6499 66.13 99.38C65.96 99.21 65.6 99.21 65.07 99.07C65.51 98.83 65.76 98.57 65.99 98.59C68.12 98.76 70.26 98.97 72.4 99.19C72.52 99.19 72.64 99.32 72.92 99.47C71.63 100.26 69.28 100.52 66.47 100.21L66.46 100.26ZM73.84 99.95C75.51 98.59 77.46 99.38 79.4 99.2C78.64 99.78 76.65 100.08 73.85 99.9L73.84 99.95ZM92.84 93.95C90.9547 94.6199 88.9926 95.05 87 95.23C86.2359 95.3029 85.4776 95.4265 84.73 95.6C83.13 96.1 81.48 95.74 79.86 95.89C78.7916 95.8574 77.7226 95.9345 76.67 96.12C76.0054 96.2542 75.3178 96.2198 74.67 96.02C73.14 95.6635 71.57 95.5089 70 95.56C67.3424 95.603 64.6923 95.2662 62.13 94.56C59.18 93.89 56.23 93.27 53.29 92.56C51.29 92.1 49.29 91.65 47.29 91.05C46.1785 90.6364 45.0961 90.1486 44.05 89.59C44.1 89.17 44.15 88.82 44.19 88.45C44.3524 88.4255 44.5176 88.4255 44.68 88.45C45.4692 88.6802 46.2439 88.9573 47 89.28C49.5761 90.4287 52.2546 91.3327 55 91.98C56.4 92.37 57.88 92.51 59.32 92.77C60.43 92.96 61.55 93.12 62.64 93.37C67.5591 94.4859 72.6349 94.7363 77.64 94.11C79.64 93.8633 81.6766 93.63 83.75 93.41C84.9 93.29 86.06 93.16 87.22 93.09C89.9459 92.7878 92.6294 92.1807 95.22 91.28C95.99 91.07 96.79 90.65 97.51 91.49C96.1018 92.5375 94.54 93.3605 92.88 93.93L92.84 93.95ZM95 85.42C95.48 86.08 95.91 86.76 96.26 87.27L95.54 88.8C95.3 89.28 94.99 89.52 94.48 89.11C94.18 88.88 93.87 88.67 93.56 88.45C93.41 88.86 93.27 89.26 93.11 89.66C93.0655 89.753 93.0154 89.8432 92.96 89.93C92.8579 90.0057 92.7416 90.06 92.618 90.0895C92.4943 90.119 92.366 90.1231 92.2408 90.1016C92.1155 90.0801 91.9959 90.0334 91.8892 89.9644C91.7825 89.8954 91.6909 89.8054 91.62 89.7C91.5531 89.5836 91.4513 89.4912 91.329 89.4359C91.2067 89.3805 91.0701 89.365 90.9386 89.3915C90.807 89.4181 90.6871 89.4853 90.5958 89.5837C90.5045 89.6822 90.4465 89.8068 90.43 89.94C90.3945 90.1868 90.2762 90.4143 90.0945 90.5851C89.9128 90.7559 89.6785 90.8599 89.43 90.88L87.82 89.94C87.67 90.32 87.52 90.7 87.28 91.28L86.45 91.51C86.4175 91.2956 86.3463 91.0889 86.24 90.9C86.05 90.69 85.74 90.36 85.58 90.41C85.42 90.46 84.89 90.81 84.87 91.05C84.82 91.76 84.6 92.12 84.13 92.05L82.69 90.74L81.69 92.3L80.9 92.44C79.11 91.62 79.11 91.62 79.09 92.6C78.756 92.6466 78.416 92.6262 78.09 92.54C76.68 91.79 76.69 91.77 75.5 92.15C75.21 91.65 74.82 91.07 74.12 91.29C73.85 91.38 73.7 91.85 73.39 92.29C72.63 92.22 71.57 92.63 70.86 91.51C70.76 91.36 70.28 91.32 70.04 91.41C69.6431 91.6073 69.2677 91.8452 68.92 92.12C68.7 91.64 68.5 91.2 68.32 90.83C67.24 90.57 66.89 91.32 66.41 92.12L65 91.05C63.56 91.49 63.56 91.49 62.78 90.44C61.92 91.35 61.1 91.06 60.24 90.56C59.9061 90.3819 59.5262 90.3087 59.15 90.35C58.37 90.44 57.64 90.5 57.09 89.77C56.9155 89.6159 56.6927 89.5275 56.46 89.52C55.87 89.45 55.27 89.43 54.71 89.39C54.65 88.93 54.6 88.61 54.54 88.1C53.89 88.51 53.39 88.81 52.78 89.18L51.65 88.73L52.65 86.73C51.6874 87.0314 50.8077 87.5517 50.08 88.25L48.64 87.74L49.42 86.19L49.21 86L47.32 87.26L46 86.81L46.48 85.62C46.2 85.56 45.93 85.43 45.85 85.51C44.7 86.61 43.85 85.86 42.91 85.15C43.03 84.61 43.14 84.1 43.3 83.36C42.998 83.4811 42.704 83.6214 42.42 83.78C42.1967 83.9656 41.9862 84.1661 41.79 84.38L40.47 83.7C40.16 82.89 41.25 82.36 40.47 81.6C40.04 81.9 39.6 82.19 39.06 82.6L37.85 81.9C38.2 81.25 38.49 80.68 38.85 80.09C37.91 79.4 37.76 80.64 37.04 80.65C35.61 80.24 36.74 79.06 36.49 78.17L34.94 78.8C34.55 77.29 32.94 77.04 32.13 75.96C31.56 75.24 31.06 74.74 31.74 73.87C31.8 73.79 31.74 73.59 31.65 73.31L30.22 73.58C28.86 72.77 29.92 71.66 29.95 70.58L28.25 71.37C26.52 70.28 28 69.04 28.14 67.88C27.22 67.37 27.05 68.54 26.14 68.54C25.793 68.0321 25.5485 67.4615 25.42 66.86C25.42 66.29 25.92 65.73 26.35 64.86L24.71 65.2C23.52 63.49 23.52 63.49 24.71 61.49C24.02 60.42 23.52 61.77 22.91 61.64C21.63 60.64 23.3 60.12 23.25 59.11H21.88C21.27 58.25 21 57.39 22.12 56.56C21.58 56.4 21.06 56.4 20.82 56.14C20.5976 55.7891 20.4449 55.3986 20.37 54.99C20.46 54.08 21.71 53.99 21.48 52.89L20 53C19.54 51.55 21.76 51.73 21.59 50.29L20 50.58C19.58 49.73 20.13 49.24 20.71 48.8C21.1033 48.5529 21.4838 48.2859 21.85 48C22.01 47.84 21.96 47.47 22 47.19C21.76 47.19 21.49 47.02 21.29 47.09C20.8477 47.2936 20.42 47.5275 20.01 47.79C19.8878 47.2515 19.946 46.6878 20.1754 46.1855C20.4049 45.6832 20.7929 45.2702 21.28 45.01C21.95 44.52 21.96 44.53 22.06 43.62L20.46 43.99C19.93 42.25 22.15 42.22 22.34 40.81L21 40.49C20.62 38.82 22.7 38.77 23 37.55C22.33 37.11 22.33 37.11 20.54 37.94C20.79 36.61 22.44 36.55 22.79 35.21L21.24 35.06C21.76 33.67 22.95 33.06 24.1 32.36C23.79 31.55 23.23 31.69 22.7 31.9C22.17 32.11 21.75 32.36 21.3 31.73C22.02 30.35 23.68 29.86 24.67 28.73L24.4 28.3L22.4 28.68C22.4 26.86 24.74 26.97 25.08 25.29L23.58 25.43C23.41 23.66 25.37 23.52 26.32 21.95L24.9 21.81C24.9 21.7 24.84 21.56 24.9 21.51C25.1757 21.2587 25.3909 20.9482 25.5295 20.6018C25.668 20.2554 25.7263 19.8821 25.7 19.51C25.7 18.84 26.31 18.13 26.7 17.45C28.2333 14.4833 29.7633 11.48 31.29 8.44001C31.83 7.44001 32.39 6.35001 33.06 5.07001C33.26 6.68001 32.41 7.74001 32.06 8.92001C31.3 11.74 30.13 14.46 29.56 17.31C28.63 21.93 27.04 26.41 26.74 31.18C26.4249 34.0195 26.3847 36.8828 26.62 39.73C26.8386 41.9228 26.9221 44.127 26.87 46.33C26.9998 49.2555 27.5177 52.1509 28.41 54.94C28.85 56.53 29.31 58.11 29.86 59.65C30.41 61.19 31.05 62.65 31.62 64.1C31.84 64.69 31.96 65.32 32.18 66.1C33.71 66.5 33.8 68.32 34.68 69.52C35.21 70.24 35.52 71.15 36.11 71.81C37.68 73.709 39.496 75.3905 41.51 76.81C41.99 77.12 42.51 77.32 42.51 78.01C43.51 78.4 43.63 80.01 45.04 79.87C45.293 79.9026 45.5265 80.0229 45.7 80.21C48.1552 82.1478 50.8983 83.6898 53.83 84.78C55.26 85.36 56.66 86.01 58.09 86.56C58.8417 86.7262 59.583 86.9366 60.31 87.19C61.6608 87.726 63.0823 88.0629 64.53 88.19C67.0041 88.6309 69.5192 88.7986 72.03 88.69C74.6384 88.7003 77.2455 88.5701 79.84 88.3C82.37 87.98 84.96 87.9 87.39 86.86C89.22 86.08 91.15 85.53 93.03 84.86C94.08 84.46 94.39 84.53 95 85.42ZM92.61 83.15L92.94 83.07L93.18 83.82C93.0584 83.8499 92.9347 83.87 92.81 83.88C92.7383 83.6404 92.6815 83.3966 92.64 83.15H92.61ZM81.61 69.32C82.1 69.99 81.76 70.32 81.03 70.48C81.03 70.01 81.03 69.62 81.03 69.05C81.34 69.18 81.57 69.2 81.66 69.32H81.61ZM73.01 58.56C73.01 58.56 73.01 58.8 73.01 59.06C72.8075 59.0038 72.6151 58.9161 72.44 58.8C72.44 58.8 72.5 58.54 72.54 58.4C72.7198 58.4294 72.8947 58.4832 73.06 58.56H73.01ZM51.63 28C53.34 30.56 55.03 33.14 56.63 35.75C57.44 37.05 58.15 38.43 58.88 39.75C60.49 42.75 62.88 45.11 64.97 47.69C66.4 49.44 67.75 51.25 69.1 53.05C69.79 53.96 70.42 54.9 71.1 55.83C71.3754 56.1377 71.562 56.5145 71.64 56.92C71.6397 57.1245 71.5958 57.3266 71.5113 57.5128C71.4268 57.699 71.3036 57.8651 71.15 58C71.0351 58.0546 70.9089 58.0814 70.7817 58.0782C70.6545 58.0749 70.5299 58.0418 70.4179 57.9814C70.3059 57.921 70.2097 57.8351 70.1371 57.7306C70.0645 57.6262 70.0175 57.506 70 57.38C69.9182 57.0392 69.8113 56.7049 69.68 56.38L68.4 56.81L67 55.39C66.6988 55.4348 66.3944 55.4549 66.09 55.45C65.09 55.38 64.9 55.04 65.03 53.97C65.0378 53.7702 65.0107 53.5705 64.95 53.38C64.95 53.29 64.81 53.24 64.64 53.08C64.38 53.2 64.08 53.37 63.77 53.48C63.18 53.67 62.68 53.31 62.87 52.77C63.06 52.23 63.2 51.77 62.66 51.6C62.29 51.47 61.79 51.74 61.15 51.88C60.8896 51.7578 60.6862 51.5401 60.5819 51.272C60.4777 51.0039 60.4805 50.706 60.59 50.44C60.77 49.82 60.37 49.56 59.66 49.68C58.66 49.85 58.41 49.56 58.66 48.54C58.91 47.52 58.78 47.44 57.73 47.54C57.3323 47.5331 56.9367 47.4828 56.55 47.39C56.8733 46.9484 57.164 46.4838 57.42 46C57.4618 45.8635 57.471 45.719 57.4466 45.5783C57.4223 45.4376 57.3652 45.3046 57.28 45.19C57.14 45.07 56.73 45.19 56.49 45.25C56.1926 45.4514 55.848 45.5721 55.49 45.6C55.6979 45.2808 55.8818 44.9466 56.04 44.6C56.28 44.01 55.94 43.6 55.3 43.67C54.88 43.73 54.45 44.19 54.08 43.39C54.2483 43.1945 54.3926 42.9797 54.51 42.75C54.6196 42.4251 54.6967 42.0901 54.74 41.75C54.4117 41.6668 54.0773 41.6099 53.74 41.58C53.57 41.58 53.39 41.72 53.25 41.79C52.25 41.05 52.53 40.26 53.25 39.26L51.45 38.99C51.26 38.57 51.02 38.07 50.8 37.59C50.8 36.9 52.03 36.65 51.45 35.86C51.24 35.57 50.7 35.53 50.17 35.32C49.24 33.75 49.24 33.75 50.43 32.45C50.23 31.34 49.35 32.08 48.9 31.73C48.5 30.59 50.05 30.33 49.96 29.12L48.43 28.72C47.67 27.65 49.43 27.12 49.22 26.08C48.73 25.63 47.64 25.81 47.73 24.81C47.73 24.45 48.15 24.12 48.51 23.58C49.66 25.23 50.69 26.56 51.63 28ZM47.12 21.8C47.29 22.08 47.51 22.46 47.44 22.72C47.275 23.1305 47.0454 23.512 46.76 23.85L46.41 23.76C46.3108 23.3364 46.2506 22.9046 46.23 22.47C46.2638 22.19 46.3905 21.9294 46.59 21.73C46.6731 21.6893 46.765 21.6698 46.8575 21.6733C46.95 21.6768 47.0402 21.7031 47.12 21.75V21.8ZM45.9 25.66C46.14 26.79 46.47 27.83 45.33 28.88C45.6764 28.8845 46.0083 29.02 46.2588 29.2594C46.5093 29.4988 46.6598 29.8241 46.68 30.17C46.87 31.23 47.18 32.27 47.3 33.34C47.28 33.83 47.1786 34.3133 47 34.77C47.4722 35.6355 47.88 36.5346 48.22 37.46C49.1898 40.5639 50.7294 43.46 52.76 46C53.92 47.56 54.91 49.27 56.18 50.75C58.0543 53.129 60.3323 55.1599 62.91 56.75C64.8028 57.7821 66.7488 58.7134 68.74 59.54C70.1045 60.1776 71.6442 60.3362 73.11 59.99C73.5088 59.8875 73.9304 59.9202 74.3087 60.0831C74.6869 60.246 75.0004 60.5298 75.2 60.89C76.97 63.28 78.78 65.63 80.7 68.15L79.31 68.27C80.09 70.46 79.92 71.01 78.24 71.33C78.24 70.46 78.24 69.62 78.29 68.75C77.29 68.32 76.86 68.98 76.35 69.49C77.43 71.37 77.19 72.09 75.46 72.24C75.54 71.39 75.61 70.54 75.68 69.71C74.5 69.43 74.41 69.46 74.3 70.25C74.3037 70.7099 74.2601 71.169 74.17 71.62C74.05 71.96 73.67 72.21 73.17 72.77C72.76 71.65 72.47 70.88 72.17 69.92C71.44 69.54 71.09 70.16 70.78 70.92L69.4 70.6C69.4 70.15 69.4 69.74 69.45 69.34C69.4675 69.2367 69.4609 69.1307 69.4306 69.0304C69.4004 68.93 69.3474 68.8381 69.2758 68.7616C69.2042 68.6851 69.1158 68.6262 69.0177 68.5895C68.9195 68.5528 68.8142 68.5393 68.71 68.55C68.26 68.55 67.91 68.76 68.02 69.33C68.009 69.5036 67.9753 69.6751 67.92 69.84L67.03 69.34C66.8 68.69 67.66 68.03 66.84 67.58C66.02 67.13 65.94 68.06 65.55 68.27C63.99 67.93 65.34 66.09 63.89 65.67L63.11 66.67C62.81 66.47 62.28 66.31 62.2 66.02C62.1192 65.7321 61.9465 65.4785 61.7082 65.298C61.4698 65.1174 61.179 65.0198 60.88 65.02C60.5423 64.9221 60.2334 64.7437 59.98 64.5C59.91 63.62 60.08 62.65 59.76 62.45C59.44 62.25 58.46 62.38 57.46 62.38C57.2631 62.0711 57.1148 61.7338 57.02 61.38C56.88 60.55 56.66 60.03 55.64 60.22C55.06 60.32 54.73 60.03 54.76 59.32C54.76 57.91 54.67 57.83 53.35 58.26C52.45 57.58 53.12 56.89 53.45 56.16L52.45 55.3L51.79 56.36C51.6483 56.3637 51.508 56.3315 51.3821 56.2664C51.2562 56.2013 51.1488 56.1054 51.0699 55.9876C50.9911 55.8698 50.9433 55.734 50.9311 55.5928C50.9189 55.4516 50.9426 55.3096 51 55.18C51.31 54.58 51.55 54.07 50.79 53.49C50.47 53.71 50.11 53.94 49.68 54.21C49.53 53.94 49.24 53.66 49.27 53.44C49.3196 53.1396 49.2808 52.8312 49.1583 52.5525C49.0358 52.2737 48.8348 52.0366 48.58 51.87C48 51.38 48.11 50.8 48.58 50.23C48.8564 49.8611 49.107 49.4735 49.33 49.07C49.55 48.63 49.44 48.27 48.84 48.07L47.58 49.4C47.02 48.64 46.58 48.04 46.86 47.1C47.14 46.16 47.08 46.1 46.03 45.72C45.8765 45.6167 45.7465 45.4824 45.6483 45.3256C45.5501 45.1688 45.4859 44.9932 45.46 44.81C45.41 44.56 45.68 44.26 45.79 43.97C46.14 43.12 45.91 42.84 44.92 42.88H44.45C44.3509 42.6925 44.264 42.4987 44.19 42.3C44.09 42.01 44.02 41.71 43.91 41.3C44.1586 41.0674 44.374 40.8015 44.55 40.51C44.6895 40.2154 44.7075 39.8777 44.6 39.57C44.32 39.1 44 39.47 43.71 39.67C43.6068 39.7112 43.4995 39.7413 43.39 39.76C42.96 39.32 42.67 38.86 43.21 38.32C43.59 37.94 43.82 37.48 43.38 37.14C43.11 36.93 42.58 37.05 41.98 37.02C41.54 36.44 41.57 35.84 42.37 35.25C42.5057 35.1236 42.6106 34.9677 42.6765 34.7943C42.7424 34.6209 42.7675 34.4347 42.75 34.25C42.59 33.75 42.12 33.72 41.6 33.9C41.08 34.08 41.04 34.03 40.16 33.44L42.31 31.8C41.59 30.03 40.74 32.06 39.95 31.51C39.8554 31.3519 39.7978 31.1744 39.7816 30.9909C39.7654 30.8074 39.7909 30.6225 39.8564 30.4503C39.9218 30.278 40.0254 30.1229 40.1594 29.9964C40.2934 29.8699 40.4542 29.7754 40.63 29.72C40.76 29.65 40.95 29.59 41.01 29.48C41.16 29.18 41.4 28.81 41.32 28.57C41.16 28.08 40.73 28.1 40.32 28.34C40.12 28.46 39.89 28.54 39.64 28.66C38.98 26.9 41.05 27.07 41.26 25.66L40.71 24.83L39.38 25.83C39.13 25.29 38.97 24.89 39.55 24.59C39.96 24.38 40.38 24.19 40.79 23.97C41.49 23.58 41.49 23.58 41.79 22.56C40.55 21.36 40.21 23.5 39.18 23.24C39 22.33 39.1 21.59 40.18 21.18C40.7073 20.9462 41.1806 20.6057 41.57 20.18C41.76 20 41.7 19.56 41.75 19.24C41.43 19.24 41.07 19.06 40.75 19.16C40.3196 19.3555 39.9136 19.6005 39.54 19.89C39.03 19.02 39.17 18.51 40.01 18.12C40.6144 17.8303 41.1791 17.4639 41.69 17.03C41.91 16.85 41.93 16.44 42.04 16.13C41.71 16.08 41.34 15.91 41.04 16.02C40.4646 16.3038 39.9158 16.6385 39.4 17.02C39.4 16.36 39.4 15.89 39.4 15.53L42.19 13.68L45.95 19.68C44.71 21.67 45.48 23.69 45.9 25.66ZM39.53 13.92C39.53 13.11 39.53 12.67 39.59 12.14C40.26 12.02 40.9 11.56 41.59 12.48L39.53 13.92ZM37.38 5.92001C38.21 6.99001 38.88 7.92001 39.6 8.81001C37.86 11.76 38.21 15 38 18.18C37.85 20.9991 37.88 23.8248 38.09 26.64C38.3559 31.4765 39.3678 36.2427 41.09 40.77C41.2035 41.2077 41.2903 41.6518 41.35 42.1C41.3865 42.3939 41.5121 42.6696 41.71 42.89C42.115 43.2379 42.4427 43.6668 42.6717 44.149C42.9008 44.6313 43.0263 45.1563 43.04 45.69C43.0797 45.9946 43.1746 46.2894 43.32 46.56C44.62 49.11 45.88 51.7 47.32 54.2C47.9404 55.1459 48.6503 56.03 49.44 56.84C50.33 57.84 51.28 58.84 52.14 59.96C52.4425 60.4601 52.6938 60.9894 52.89 61.54C53.4251 61.5955 53.9338 61.8002 54.3582 62.1308C54.7825 62.4615 55.1054 62.9047 55.29 63.41C55.45 63.78 56 63.97 56.29 64.3C59.1 67.2 62.53 69.3 65.84 71.52C67.2387 72.5011 68.8171 73.1969 70.485 73.5675C72.1528 73.9381 73.8773 73.9764 75.56 73.68C78.1361 73.3307 80.5619 72.2633 82.56 70.6C84.28 72.54 85.56 74.71 87.14 76.79C86.62 77.19 86.28 77.36 86.04 76.79C85.8 76.22 85.51 75.66 84.69 75.96C84.63 76.53 84.58 77.07 84.53 77.6L84.23 77.66C84 77 84.12 76.12 83 76.14C82.56 77.14 82.91 78.89 80.94 78.46C80.41 78.05 80.94 76.59 79.43 77.04C79.43 77.61 79.43 78.16 79.43 78.8L78.1 79C77.68 78.59 78.1 77.68 77.31 77.65C76.2 77.65 76.71 78.8 76.09 79.33L74.09 79.44C74.09 78.94 74.09 78.5 74.09 78.06C74.09 77.62 73.86 77.23 73.37 77.25C72.88 77.27 72.73 77.65 72.81 78.13C72.8063 78.366 72.7761 78.6008 72.72 78.83L71.23 78.63C71.1582 78.5227 71.1041 78.4045 71.07 78.28C71.01 77.78 71.12 77.1 70.45 77.03C69.6 76.95 69.86 77.79 69.65 78.43L68.28 78C67.86 77.5 68.62 76.5 67.63 76.47C67.23 76.47 66.82 77 66.31 77.36C66.268 77.1458 66.2446 76.9283 66.24 76.71C66.24 76.26 66.24 75.87 65.73 75.71C65.22 75.55 64.98 75.9 64.81 76.33C64.7179 76.5034 64.6143 76.6704 64.5 76.83L62.78 76.12C62.9 75.77 63.1 75.47 63.05 75.23C62.9768 74.9023 62.7797 74.6156 62.5 74.43C62.3633 74.4011 62.2216 74.408 62.0884 74.4501C61.9552 74.4921 61.8352 74.5679 61.74 74.67C61.41 75.52 60.97 75.05 60.44 74.79C60.35 74.27 61.14 73.37 59.9 73.09L59.03 74.09C57.46 73.54 58.8 72.37 58.33 71.47L57.4 71.18C57.21 71.84 57.05 72.42 56.87 73.07L55.35 72.42C55.48 72.02 55.56 71.68 55.69 71.36C55.82 71.04 56 70.36 55.46 70.17C54.92 69.98 54.46 70.17 54.39 70.86C54.3239 71.097 54.2228 71.3229 54.09 71.53C53.51 70.66 54.34 69.94 54.04 69.22C52.94 68.59 52.97 69.98 52.3 70.22C51.6 69.69 51.04 69.16 51.61 68.22C51.6968 68.0909 51.7291 67.9328 51.7 67.78C51.6295 67.5067 51.4757 67.262 51.26 67.08C51.13 67 50.74 67.14 50.61 67.3C50.3811 67.6132 50.1835 67.9482 50.02 68.3C49.23 68.3 49.13 67.93 49.36 67.3C49.8303 66.4835 50.0882 65.562 50.11 64.62C49.38 64.34 48.92 64.52 48.73 65.28C48.61 65.76 48.5 66.28 48.36 66.82C47.5 66.37 46.89 66 47.3 65.1C47.52 64.61 47.82 64.1 47.3 63.72C46.98 63.51 46.38 63.72 45.76 63.72C45.84 63.25 45.93 62.72 46.01 62.19C45.9 62.05 45.85 61.93 45.78 61.9C44.11 61.46 44.11 61.47 45.01 60.03C45.1223 59.8261 45.2225 59.6157 45.31 59.4C44.62 58.4 44.14 59.6 43.42 59.4C43.53 59.1 43.65 58.85 43.72 58.6C43.79 58.35 43.83 58.07 43.89 57.8L42.76 57.65L42.3 56.65L43.3 55.38L43.14 55.07L41.58 55.28C41.26 54.75 41.16 54.28 41.77 53.83C42.14 53.57 42.38 53.26 41.98 52.73L40.76 53.03C39.84 52.49 40.76 51.82 40.6 51.16C40.12 51 39.2 51 39.25 50C39.59 49.62 39.93 49.23 40.25 48.85L40.08 48.54L38.54 48.64L38.09 47.81L39.34 46.33C39.34 46.21 39.24 46.1 39.18 45.98L37.8 46C37.16 45 37.16 45 37.92 44.18C38.28 43.82 38.28 43.82 38.12 42.96L36.76 43.27C36.61 42.9 36.47 42.53 36.32 42.11L38.38 40.18C38.3207 40.0696 38.2672 39.9561 38.22 39.84L36.52 40.06C35.87 39 35.88 38.93 36.68 38.35C37.07 38.08 37.44 37.79 37.93 37.42C37.5969 37.2505 37.2303 37.1571 36.8567 37.1467C36.4831 37.1364 36.1119 37.2092 35.77 37.36L35.27 36.08L36.83 34.83C36.21 33.97 35.52 34.67 34.83 34.54L33.97 33.54L36.64 32.13C35.78 31.2 34.96 31.99 34.05 32.05C33.96 31.67 33.87 31.3 33.78 30.95C34.35 30.54 34.9 30.16 35.44 29.79L35.32 29.45L33.52 29.27L36.04 27.02C35.22 26.02 34.59 27.14 33.84 27.12C33.7598 26.9905 33.7103 26.8444 33.6953 26.6928C33.6802 26.5413 33.6999 26.3883 33.753 26.2455C33.806 26.1027 33.891 25.974 34.0014 25.869C34.1118 25.7641 34.2447 25.6858 34.39 25.64C34.6317 25.5508 34.8552 25.4187 35.05 25.25C35.2004 25.003 35.3181 24.7374 35.4 24.46C35.0962 24.3599 34.7854 24.283 34.47 24.23C34.2782 24.2591 34.0944 24.3272 33.93 24.43C33.11 22.93 34.63 22.64 35.3 21.77L33.91 21.21C33.44 19.81 35.24 20.3 35.39 19.26L34.14 18.67C33.79 16.94 35.45 17.36 36.25 16.81C36.02 15.71 35.04 16.24 34.42 15.87C34.42 15.5167 34.46 15.1267 34.54 14.7L36.86 13.63L35 13.14C34.79 12.33 35.2 11.99 35.93 11.72C36.45 11.53 37.23 11.56 37.33 10.53L35.57 10.36C35.13 8.77001 37.06 9.47001 37.31 8.36001L36.31 7.72001C36.57 7.24001 36.93 6.67001 37.38 5.93001V5.92001ZM34.92 4.64001C35.13 4.20001 35.41 3.80001 35.98 4.20001C36.55 4.60001 36.43 4.98001 35.98 5.34001C35.3414 5.94718 34.9317 6.75596 34.82 7.63001C33.7382 11.9633 33.0421 16.3839 32.74 20.84C32.4047 25.6498 32.5958 30.4818 33.31 35.25C33.95 38.77 34.46 42.32 35.31 45.81C35.9202 47.9804 36.6547 50.114 37.51 52.2C37.5865 52.3358 37.6469 52.4801 37.69 52.63C38.14 55.5 39.89 57.8 41.02 60.37C41.22 60.82 41.3 61.37 41.47 61.78C41.5771 62.0494 41.7111 62.3074 41.87 62.55C42.42 63.41 42.95 64.28 43.55 65.1C43.8941 65.5358 44.2792 65.9377 44.7 66.3C46.7 68.3 48.7 70.3 50.85 72.13C52.0135 73.052 53.2704 73.8497 54.6 74.51C57.43 76.05 60.29 77.57 63.17 79.02C66.145 80.4748 69.4616 81.0869 72.76 80.79C76.23 80.52 79.69 79.95 83.13 79.4C84.2286 79.1271 85.3023 78.7625 86.34 78.31C87.72 77.83 87.72 77.91 88.68 78.98C89.49 79.89 90.47 80.65 91.37 81.49C91.5517 81.6797 91.722 81.88 91.88 82.09L90.81 82.82C90.9993 83.3782 91.13 83.9547 91.2 84.54C91.2 84.7 90.57 84.85 90.2 85.01C89.27 82.79 89.27 82.79 88.07 83.18C88.31 83.85 88.55 84.54 88.84 85.37L87.37 85.8C86.53 85.18 87.19 83.43 85.37 83.8C85.53 84.63 85.67 85.4 85.84 86.33L84.18 86.43C84.1188 85.8828 84.0151 85.3412 83.87 84.81C83.79 84.6 83.35 84.29 83.22 84.35C83.09 84.41 82.63 84.81 82.63 85.06C82.666 85.6034 82.7667 86.1405 82.93 86.66L81.53 86.86C81.4833 86.4375 81.3894 86.0216 81.25 85.62C81.14 85.4 80.73 85.12 80.57 85.18C80.2785 85.3228 80.0505 85.5687 79.93 85.87C79.84 86.12 79.93 86.45 80.02 86.98L77.69 86.87C77.6011 86.4024 77.4808 85.9414 77.33 85.49C77.2594 85.3936 77.1696 85.3128 77.0664 85.2525C76.9632 85.1923 76.8487 85.154 76.73 85.14C76.61 85.14 76.37 85.36 76.33 85.53C76.22 86.0079 76.1398 86.4922 76.09 86.98H73.95C73.72 86.39 73.54 85.98 73.36 85.44C73.0554 85.3699 72.7359 85.411 72.459 85.5559C72.1821 85.7008 71.9661 85.9399 71.85 86.23C71.45 86.91 70.76 86.88 70.49 86.23C70.3 85.74 70.25 85.08 69.58 85.23C69.0932 85.4471 68.6748 85.7928 68.37 86.23C67.68 86.41 67.04 86.44 66.77 85.47C66.64 85.01 66.09 85.03 65.77 85.36C65.45 85.69 65.45 86.07 64.85 85.97C64.25 85.87 64.01 85.48 63.79 84.97C63.73 84.84 63.59 84.75 63.43 84.6C62.63 84.89 61.83 85.6 61.06 84.96C60.83 84.2 60.8 83.4 60.5 83.28C59.66 82.95 59.65 83.91 59.33 84.28C58.13 84.56 58.53 83.33 58.09 82.95L56 83C55.8 82.29 55.82 81.56 55.5 81.35C54.73 80.86 54.6 81.87 54.22 82.15C53.11 82.15 53.22 81.06 52.53 80.63L50.53 80.99C50.3 80.21 51.04 79.44 50.17 78.99C49.7 79.21 49.07 79.72 48.81 79.57C48.55 79.42 48.32 78.68 48.07 78.13L46.45 78.31C46.37 77.44 47.3 76.39 45.78 76.06L44.78 77.31C44.14 76.21 45.67 75.83 45.15 74.76C44.7861 74.9744 44.4502 75.233 44.15 75.53C43.59 76.22 43.15 76.02 42.5 75.37L43.71 73.28C42.64 73 42.33 74 41.56 74.5L40.24 73.3C40.74 72.64 41.17 72.09 41.67 71.45C40.48 70.98 40.02 72.11 39.21 72.37C39.0639 72.3198 38.9325 72.2344 38.8273 72.1213C38.7222 72.0083 38.6465 71.871 38.6069 71.7218C38.5674 71.5725 38.5652 71.4158 38.6006 71.2655C38.636 71.1152 38.7079 70.9759 38.81 70.86C39.13 70.34 39.57 69.86 39.93 69.4C40.1184 69.1161 40.2855 68.8186 40.43 68.51C38.81 68.51 38.43 69.83 37.43 70.51C36.81 70.31 36.59 69.92 37.02 69.28C37.288 68.9606 37.5384 68.6268 37.77 68.28C37.8642 67.9825 37.9114 67.6721 37.91 67.36C37.588 67.3589 37.2688 67.42 36.97 67.54C36.603 67.8379 36.2679 68.173 35.97 68.54C35.16 67.78 35.06 68.31 37.13 65.08C36.39 64.64 36.39 64.64 34.83 65.98C33.25 64.54 35.18 63.73 35.5 62.54C34.41 62 34.16 63.25 33.33 63.45C32.63 62.03 34.22 61.45 34.48 60.37C34.17 59.9 33.74 59.91 33.28 60.32C33.02 60.56 32.81 60.86 32.54 61.1C32.11 61.48 31.8 61.26 31.54 60.72C31.79 60.31 32.08 59.84 32.38 59.38C32.68 58.92 32.93 58.62 33.2 58.23C32.07 57.5 31.79 58.87 31.03 58.8C30.52 58.24 30.96 57.8 31.23 57.43C31.6102 56.9461 31.9641 56.442 32.29 55.92C32.42 55.68 32.29 55.31 32.29 54.68L30.26 56.2C29.48 55.52 29.93 54.9 30.34 54.3C30.75 53.7 31.34 52.92 31.85 52.18C30.39 51.34 30.33 53.1 29.46 53.11C28.66 51.66 28.66 51.49 29.59 50.41C30.06 49.86 30.59 49.41 31.08 48.85C31.38 48.53 31.82 48.2 31.26 47.63C30.19 47.85 29.57 48.81 28.67 49.4C28.5412 49.27 28.4425 49.1134 28.3809 48.9411C28.3193 48.7688 28.2963 48.5851 28.3134 48.4029C28.3306 48.2208 28.3875 48.0446 28.4803 47.8868C28.573 47.7291 28.6992 47.5936 28.85 47.49C29.71 46.62 30.58 45.74 31.42 44.85C31.5807 44.5832 31.7083 44.2977 31.8 44C29.99 43.82 29.62 45.74 28.18 46C28.0013 45.6854 27.9423 45.3167 28.014 44.9621C28.0856 44.6074 28.2831 44.2906 28.57 44.07C29.2803 43.346 29.9481 42.5814 30.57 41.78C30.7187 41.5002 30.8265 41.2005 30.89 40.89C29.48 40.74 28.99 41.89 28.05 42.48C27.62 41.61 27.57 40.95 28.41 40.32C29.0947 39.7301 29.7395 39.0954 30.34 38.42C29.98 37.52 29.56 37.92 29.13 38.22C28.7 38.52 28.29 38.75 27.61 39.22C28 37.35 29.61 36.54 30.21 35.04C28.86 34.64 28.68 36.13 27.69 36.25C27.5321 35.9088 27.515 35.5192 27.6423 35.1655C27.7695 34.8118 28.031 34.5224 28.37 34.36C28.9218 33.9375 29.4309 33.4619 29.89 32.94C28.78 31.59 28.51 33.2 27.84 33.3C27.25 32.11 28.53 31.72 28.84 30.88L27.89 30.67C28.04 29.03 30.34 28.9 30.51 26.94L28.39 28.22C28.06 26.22 30.15 25.61 30.55 23.97L29.23 24C29.02 22.34 30.78 22 31.51 20.53L30.23 20.34C29.99 19.29 30.57 18.56 31.44 17.88C30.44 16.51 31.16 15.52 32.02 14.71C31.9264 14.1036 31.9264 13.4864 32.02 12.88C32.61 10.88 33.3 8.88001 34.02 6.88001C34.2775 6.11696 34.5779 5.36909 34.92 4.64001V4.64001ZM31.36 3.64001C31.6647 3.26385 31.9991 2.91273 32.36 2.59001L32.64 2.78001C32.35 3.33001 32.05 3.87001 31.79 4.44001C31.53 5.01001 31.38 5.60001 31.11 6.15001C28.91 10.44 26.67 14.71 24.49 19.01C23.5053 21.0773 22.7411 23.2426 22.21 25.47C22.21 25.67 22.21 25.93 22.08 26.06C20.81 27.44 21.36 29.32 20.72 30.89C20.1464 32.5664 19.6624 34.2722 19.27 36L20.05 35.56C20.05 35.64 20.18 35.76 20.16 35.8C19.7324 36.4348 19.5381 37.1981 19.61 37.96C19.61 37.96 19.61 38.08 19.61 38.11C18.61 39.33 19.11 40.85 18.85 42.21C17.7698 47.1492 17.7459 52.261 18.78 57.21C19.2287 59.3666 19.8989 61.4711 20.78 63.49L20.92 63.43L20.84 63.63C21.11 64.18 21.4 64.73 21.72 65.27C23.22 67.72 24.87 70.09 26.41 72.52C27.5864 74.4003 29.047 76.087 30.74 77.52C31.225 78.0466 31.6791 78.6008 32.1 79.18C34.2328 81.6131 36.7208 83.7101 39.48 85.4C40.85 86.2 42.12 87.17 43.48 88.13L43.04 89.2C42.8532 89.1978 42.6677 89.1675 42.49 89.11C39.88 87.9 37.31 86.64 35.49 84.24C35.4 84.12 35.33 83.96 35.21 83.89C32.39 82.45 30.26 80.19 28.13 77.89C27.6749 77.2138 27.2959 76.4894 27 75.73C26 75.81 25.77 74.57 25.07 73.89C24.4608 73.2634 23.9302 72.5649 23.49 71.81C22.26 69.75 21.08 67.65 19.95 65.7L20.82 63.55L20.76 63.41L19.4 63.92C19.2995 63.8204 19.2151 63.7057 19.15 63.58C18.1427 61.1071 17.4701 58.5109 17.15 55.86C16.8233 53.0067 16.55 50.1533 16.33 47.3C16.3325 46.4439 16.3892 45.5889 16.5 44.74C16.56 43.74 16.5 42.74 16.62 41.81C16.92 39.07 17.15 36.31 17.62 33.6C18.0237 31.955 18.5348 30.3382 19.15 28.76C19.62 27.29 20.02 25.76 20.54 24.36C21.19 22.53 22.05 20.77 22.59 18.91C23.3339 16.7832 24.2956 14.739 25.46 12.81C26.4066 10.8264 27.5668 8.95197 28.92 7.22001C29.86 6.13001 30.53 4.83001 31.36 3.66001V3.64001ZM28.29 3.64001L28.64 3.83001C27.5466 5.46334 26.4833 7.09001 25.45 8.71001C25.91 6.72001 26.54 4.85001 28.29 3.66001V3.64001ZM23.29 11.12C23.0022 11.5238 22.627 11.8576 22.1925 12.0965C21.758 12.3354 21.2751 12.4734 20.78 12.5C22.2 10.13 22.78 7.50001 25.15 5.95001C24.6395 7.71349 24.0285 9.44633 23.32 11.14L23.29 11.12ZM18.46 10.22C19.46 9.54001 20.39 8.91001 21.64 8.07001C21.5397 8.54444 21.4094 9.01205 21.25 9.47001C20.81 10.47 20.25 11.38 19.9 12.4C19.7482 12.8637 19.5006 13.2902 19.1732 13.652C18.8459 14.0138 18.4462 14.3027 18 14.5L15.71 15.56C16.39 13.93 16.93 12.56 17.55 11.24C17.7765 10.8346 18.0993 10.4912 18.49 10.24L18.46 10.22ZM15.74 12.65C15.3127 14.0442 14.8154 15.4159 14.25 16.76C14 17.27 13.25 17.56 12.62 18.05C12.7498 16.9857 13.0962 15.9592 13.638 15.0339C14.1797 14.1086 14.9053 13.3041 15.77 12.67L15.74 12.65ZM12.27 16C12.3121 17.2068 11.8979 18.3851 11.11 19.3C9.46997 21.25 7.72997 23.11 6.19997 25.15C6.06516 25.2811 5.90976 25.3892 5.73997 25.47C7.3738 21.9716 9.58087 18.7708 12.27 16V16ZM5.90997 28.28C6.16997 27.75 6.22997 27.11 6.43997 26.54C6.59225 26.257 6.78048 25.9948 6.99997 25.76L7.16997 25.93C6.75997 28.6 6.40997 31.28 5.91997 33.93C5.6481 34.7417 5.27873 35.5173 4.81997 36.24C4.62642 36.0268 4.48717 35.77 4.41406 35.4914C4.34094 35.2129 4.33611 34.9208 4.39997 34.64C4.55289 32.4518 5.06297 30.3034 5.90997 28.28V28.28ZM2.23997 38.23C2.60621 36.9989 2.73183 35.7087 2.60997 34.43C2.61042 32.6165 3.12724 30.8406 4.09997 29.31C3.98997 30.31 3.91997 31.06 3.84997 31.76C3.63997 33.69 3.41997 35.62 3.21997 37.56C3.23429 37.8111 3.2175 38.063 3.16997 38.31C2.92997 38.93 2.61997 39.51 2.33997 40.11L1.99997 40C2.03246 39.4045 2.11272 38.8126 2.23997 38.23V38.23ZM2.05997 40.64C2.49997 40.78 2.71997 40.79 2.76997 40.88C3.08254 43.1282 3.0522 45.4109 2.67997 47.65C2.48997 45.38 1.91997 43.14 2.05997 40.64ZM3.90997 50.33C3.90997 47.38 3.56997 44.42 4.40997 41.49C4.60997 40.82 4.13997 40 3.99997 39L6.30997 35.81C6.30997 36.4 6.36997 36.64 6.30997 36.87C6.1033 40.01 5.8833 43.14 5.64997 46.26C5.5956 46.6146 5.5956 46.9754 5.64997 47.33C6.14997 48.97 5.41997 50.33 4.30997 51.72C4.11732 51.2758 3.98287 50.8086 3.90997 50.33V50.33ZM2.78997 50.44H3.15997C3.34997 51.44 4.29997 52.37 3.15997 53.5L2.78997 50.44ZM5.99997 59.77C5.71997 58.84 5.44997 57.9 5.21997 56.95C4.81997 55.31 4.45997 53.65 5.65997 52.15C5.78569 52.0024 5.92645 51.8684 6.07997 51.75C6.19616 52.0331 6.29305 52.3238 6.36997 52.62C6.88997 55.62 7.11997 58.73 8.08997 61.68C8.24175 62.0538 8.27125 62.4661 8.17424 62.8578C8.07723 63.2494 7.85869 63.6002 7.54997 63.86C6.49997 62.6 6.35997 61.14 5.99997 59.77ZM13.18 75L13.49 74.81C13.3519 74.5052 13.1915 74.2111 13.01 73.93C11.6795 72.2193 10.6143 70.318 9.84997 68.29C9.33917 66.9544 8.91169 65.5885 8.56997 64.2C8.47997 63.84 8.76997 63.39 8.88997 63C9.72997 63.09 9.88997 63.62 10.07 64.07C10.88 65.91 11.64 67.77 12.48 69.59C13.08 70.9 13.77 72.16 14.43 73.44C14.6584 73.7767 14.8306 74.1482 14.94 74.54C14.94 74.82 14.68 75.13 14.39 75.71C14.5807 76.2182 14.8544 76.6913 15.2 77.11C17.67 79.55 20.2 81.92 22.7 84.36C23.0274 84.7621 23.2998 85.206 23.51 85.68L23.14 85.9C20.19 82.99 17.25 80.06 14.26 77.18C11.6612 74.6819 9.58733 71.6901 8.15997 68.38C7.97077 67.8018 7.94311 67.1828 8.07997 66.59C9.51997 69.54 10.67 72.69 13.18 75ZM5.99997 63.71C6.67997 64.57 7.99997 65.22 6.99997 66.86C6.63997 65.68 6.33997 64.69 5.99997 63.71Z" fill="#111B24"/>
</g>
<defs>
<clipPath id="clip0_70_47">
<rect width="99.6" height="102.91" fill="white"/>
</clipPath>
</defs>
</svg>
