<svg width="479" height="289" viewBox="0 0 479 289" fill="none" xmlns="http://www.w3.org/2000/svg">
<g clip-path="url(#clip0_70_21)">
<path d="M86.3942 11.8192C85.3457 12.8056 85.843 14.196 86.3822 15.2091C87.5359 17.7388 88.9758 20.1278 90.6737 22.3294C95.7055 28.3284 100.322 34.6635 104.492 41.2907C105.747 43.2439 107.294 45.0145 108.576 46.9511C112.342 52.6062 116.044 58.3376 119.757 64.0259C121.481 65.9583 122.515 68.4084 122.696 70.9918C121.225 69.2844 120.004 67.7718 118.699 66.3307C116.741 64.1689 114.794 61.9639 112.683 59.9716C109.942 57.3551 107.012 54.9678 104.197 52.3795C99.1631 47.7738 94.2138 43.0966 89.1963 38.5175C86.6054 36.1406 83.8081 33.9663 81.1855 31.6276C78.5629 29.2889 75.6682 26.4544 72.833 23.9525C72.486 23.5457 72.0385 23.2369 71.5351 23.0568C71.0316 22.8767 70.4898 22.8317 69.9635 22.9261C69.4372 23.0205 68.9449 23.2512 68.5354 23.5951C68.126 23.939 67.8138 24.3841 67.6299 24.8862C66.6455 26.3251 66.0655 28.0019 65.9504 29.7415C65.8353 31.4812 66.1894 33.2198 66.9757 34.7758C68.2369 36.9261 69.685 38.961 71.3033 40.8571C76.1779 46.8376 82.5489 51.2752 88.1792 56.4518C93.2282 61.1274 98.7723 65.2382 104.713 68.7111C105.777 69.437 106.795 70.2283 107.761 71.0802L107.373 71.6733C103.222 69.9364 99.0008 68.502 94.9349 66.3978C89.5929 63.6105 84.5058 60.3132 79.2837 57.3033C75.7116 55.2301 72.0905 53.2366 68.4207 51.3229C67.3127 50.732 66.0894 50.3894 64.8358 50.3188C63.5821 50.2482 62.3281 50.4515 61.1608 50.9143C59.1767 51.6154 58.7132 52.8285 59.6071 54.7664C59.832 55.335 60.1582 55.858 60.5697 56.3103C62.1972 57.9324 63.8547 59.5236 65.5421 61.0838C69.5407 64.5308 74.0367 67.3544 78.8781 69.4593C84.0808 71.9637 89.4616 74.1907 94.876 76.1751C101.656 78.7494 108.523 81.0479 115.36 83.476C122.663 86.0576 130.105 88.626 136.223 93.3692C138.791 95.2512 141.598 96.7828 144.57 97.9237C146.275 98.7981 147.906 99.8084 149.448 100.945C148.333 100.938 147.233 100.683 146.229 100.198C139.518 97.3214 132.338 96.1797 125.282 94.4978C119.829 93.1958 114.476 91.5054 109.264 89.4395C104.448 87.5257 99.5238 85.8827 94.5547 84.1382L80.8557 79.39C79.5494 78.8821 78.1476 78.6669 76.7492 78.7596C75.3507 78.8523 73.9896 79.2506 72.7619 79.9265C70.4911 81.1759 69.8344 82.7313 71.2586 84.8377C72.1044 86.2471 73.3479 87.3752 74.8328 88.0802C78.7196 89.7785 82.5231 91.6397 86.475 93.0572C89.8192 94.2242 93.2234 95.2113 96.6731 96.0143C99.4388 96.6558 102.205 97.2972 104.994 97.7392C108.145 98.2879 111.315 98.6588 114.43 99.2674C120.553 100.49 126.64 101.765 132.692 103.093C135.351 103.482 137.941 104.244 140.387 105.356C138.945 105.663 137.461 105.719 136 105.522C128.857 104.412 121.636 103.739 114.535 102.252C107.434 100.764 99.7096 99.9063 92.2675 98.909C89.2854 98.5134 86.2497 98.4469 83.2888 98.3522C82.1725 98.3222 81.0666 98.5736 80.073 99.0833C79.0794 99.593 78.23 100.345 77.6031 101.269C77.2485 101.65 76.993 102.112 76.8593 102.615C76.7257 103.118 76.7178 103.646 76.8366 104.153C76.9553 104.66 77.1969 105.13 77.5401 105.521C77.8833 105.913 78.3175 106.213 78.8045 106.397C80.3437 107.167 81.9545 107.785 83.6139 108.241C88.1514 109.294 92.719 110.216 97.3252 110.875C103.388 111.734 109.478 112.373 115.588 112.833C119.429 113.155 123.308 113.121 127.152 113.238C130.262 113.277 133.353 113.105 136.469 113.122C142.492 113.267 148.55 113.26 154.526 113.803C158.013 113.952 161.432 114.815 164.572 116.338C165.056 116.513 165.479 116.825 165.788 117.236C166.097 117.648 166.279 118.141 166.312 118.654C166.442 119.51 166.766 120.325 167.261 121.036C167.755 121.747 168.406 122.334 169.163 122.754C169.948 123.3 170.705 123.863 171.526 124.349C174.034 126.025 176.637 127.556 179.32 128.935C186.553 132.206 193.794 135.251 201.165 138.418C201.165 138.418 201.213 138.703 201.244 138.96C197.866 137.97 194.541 136.804 191.285 135.466C185.192 132.555 178.725 130.503 172.069 129.371C168.997 129.007 165.905 128.829 162.811 128.84C162.214 128.802 161.622 128.967 161.13 129.307C160.637 129.648 160.274 130.144 160.099 130.716C159.848 131.15 159.561 131.564 159.243 131.952L146.384 123.482C143.536 121.443 140.403 119.834 137.086 118.707C134.62 117.953 132.792 118.372 131.916 120.286C130.801 122.737 129.73 124.606 132.114 126.89C135.617 130.299 139.511 133.281 143.716 135.774C148.172 138.355 152.581 141.04 157.022 143.687C158.583 144.618 160.111 145.587 161.718 146.415C165.236 148.263 168.782 150.057 172.355 151.797C174.401 152.795 176.501 153.555 178.552 154.532C180.618 155.181 182.577 156.134 184.363 157.359C179.258 156.411 174.251 154.998 169.403 153.139C166.806 151.967 164.162 150.898 161.565 149.727C160.632 149.328 159.762 148.762 158.844 148.299C156.548 147.106 154.2 146.038 151.956 144.72C148.543 142.745 145.27 140.46 141.794 138.561C138.764 136.902 135.643 135.632 132.442 134.115L114.76 125.825C112.826 125.101 110.983 124.153 109.267 123.003C108.083 121.996 106.714 121.23 105.236 120.747C103.106 120.116 101.045 119.775 98.9887 119.116C95.1163 117.945 91.5219 119.502 87.8188 120.055C87.5721 120.119 87.3426 120.237 87.1468 120.4C86.6069 120.769 86.1745 121.275 85.8935 121.866C85.6125 122.457 85.493 123.111 85.5471 123.763C85.5625 124.374 85.7892 124.96 86.1886 125.422C86.588 125.884 87.1352 126.194 87.7372 126.298C89.1633 126.628 90.5893 126.959 92.0286 127.429C95.8099 128.306 99.6529 129.016 103.394 130.065C110.957 132.81 118.341 136.029 125.5 139.701C130.868 142.084 136.11 144.711 141.411 147.284C142.62 147.861 143.81 148.524 145.005 149.165C143.889 149.248 142.767 149.135 141.69 148.829C140.87 148.568 140.01 148.453 139.15 148.49C136.154 148.799 133.126 148.477 130.261 147.545C126.218 146.569 122.266 145.248 118.448 143.598C114.292 141.883 110.371 139.744 106.303 137.844C103.098 136.349 99.9076 134.79 96.6255 133.528C92.6189 131.906 88.4847 130.62 84.2654 129.682C78.1205 128.393 72.1343 126.322 65.8775 125.417C59.6207 124.513 54.1099 122.552 47.9918 122.522C46.2811 122.535 44.5891 122.074 42.8702 121.926C40.6387 121.641 38.392 121.493 36.1425 121.481C34.9717 121.562 33.8806 122.103 33.1081 122.987C32.3356 123.87 31.9447 125.024 32.0209 126.195C32.0592 127.758 32.5396 129.278 33.4065 130.58C34.2734 131.881 35.4913 132.91 36.919 133.547C42.9714 136.107 49.3544 137.802 55.8796 138.582C61.9219 139.528 68.0143 140.258 74.0866 141.074L90.4801 143.237C91.3876 143.447 92.3168 143.663 93.2543 143.744C93.2203 143.933 93.1768 144.12 93.124 144.305C91.2162 144.496 89.2983 144.568 87.3814 144.522C81.1109 144.069 74.8672 144.876 68.5572 144.004C62.9536 143.228 57.2974 143.465 51.5323 142.993C45.7671 142.521 40.7417 142.198 35.3442 141.516C29.2539 140.9 23.1353 140.606 17.0141 140.634C16.0718 140.661 15.1364 140.804 14.2289 141.059C13.03 141.509 11.9651 142.256 11.1338 143.23C10.3026 144.204 9.73222 145.373 9.47626 146.628C9.40179 149.282 10.3645 151.86 12.1599 153.815C13.9554 155.77 16.4422 156.949 19.0925 157.101C24.1666 157.116 29.2525 156.884 34.2971 156.437C43.1509 155.667 51.9618 154.591 60.7975 153.703C65.089 153.264 69.382 152.916 73.675 152.568C74.3578 152.532 75.042 152.532 75.7249 152.566L75.7841 153.194L68.0479 155.134C62.7531 156.365 57.4285 157.43 52.2016 158.859C47.7895 160.113 43.4836 161.596 39.2175 163.203C33.8065 164.982 28.8336 167.887 24.6261 171.727C23.9192 172.335 23.3771 173.112 23.0499 173.985C22.7227 174.858 22.621 175.8 22.7543 176.723C22.8875 177.646 23.2514 178.52 23.8121 179.265C24.3729 180.011 25.1126 180.602 25.9626 180.986C29.1242 182.451 32.6434 182.966 36.0925 182.47C39.2569 181.991 42.3142 180.966 45.1283 179.442C49.4966 177.199 54.1153 175.447 58.5415 173.445C66.6604 169.658 74.811 165.833 82.8088 161.882C89.0656 158.936 95.6802 156.818 102.485 155.584C103.312 155.447 104.146 155.359 104.982 155.321L93.3764 162.853C91.7959 163.875 90.1822 164.844 88.5635 165.835L72.09 175.995L57.5315 184.869C56.8145 185.26 56.2237 185.847 55.8281 186.562C55.4325 187.277 55.2485 188.089 55.2976 188.905C55.3937 190.748 56.806 191.531 58.3267 192.043C62.0388 193.257 66.0193 193.39 69.8043 192.428C74.1835 191.445 78.3529 189.69 82.1177 187.246C85.4079 185.192 88.5746 182.946 91.6015 180.52C94.4337 178.126 97.0587 175.251 99.9774 172.877C103.994 169.596 108.269 166.58 112.337 163.47C112.837 163.196 113.368 162.983 113.919 162.835C113.831 163.434 113.526 163.979 113.062 164.367C107.671 168.82 103.002 174.082 99.2215 179.965C95.3128 185.937 90.9543 191.602 86.1837 196.91C84.9144 198.527 83.4459 199.976 81.8132 201.225C81.1863 201.871 80.7415 202.671 80.5238 203.544C80.4398 203.721 80.3919 203.912 80.3831 204.108C80.3742 204.303 80.4046 204.498 80.4725 204.682C80.5403 204.865 80.6442 205.033 80.778 205.175C80.9118 205.318 81.0728 205.432 81.2515 205.512C82.5442 206.459 84.0462 207.082 85.6303 207.326C87.2144 207.571 88.8341 207.43 90.3524 206.917C92.709 206.049 94.8808 204.745 96.754 203.073C99.8574 200.491 103.308 198.081 104.289 193.755C104.329 193.582 104.51 193.487 104.593 193.324C106.331 190.448 107.915 187.446 109.827 184.701C114.429 177.91 119.948 171.788 126.227 166.51C129.03 164.245 132.399 162.772 135.394 160.757C138.771 158.578 142.805 157.652 146.794 158.141C151.842 158.561 156.851 159.449 161.867 160.203C165.632 160.757 169.352 161.506 173.111 161.991C177.419 162.557 181.757 162.903 186.074 163.335C185.354 163.634 184.59 163.811 183.812 163.858C177.204 164.466 170.59 165.004 164.011 165.686C161.614 165.948 159.236 166.363 156.892 166.927C154.491 167.463 152.267 168.314 149.921 168.908C146.927 169.718 144.134 171.143 141.722 173.093C139.31 175.042 137.33 177.474 135.91 180.231C135.437 181.155 135.107 182.146 134.932 183.169C134.67 184.274 134.788 185.436 135.269 186.465C135.749 187.494 136.564 188.33 137.58 188.838C139.537 189.725 140.983 188.694 142.462 187.42C143.541 186.44 144.772 185.641 146.108 185.055C150.158 183.399 154.269 181.871 158.381 180.342C162.893 178.656 167.46 177.029 171.972 175.343C174.715 174.317 177.39 173.093 180.172 172.19C181.938 171.41 183.869 171.076 185.794 171.217L182.484 172.726C179.937 173.888 177.396 175.03 174.839 176.235C171.028 178.038 167.392 180.269 163.466 181.681C159.541 183.093 155.982 184.499 152.214 186.312C147.864 188.501 144.312 192.003 142.06 196.321C141.439 197.469 141.259 198.804 141.554 200.075C141.804 201.125 142.276 202.11 142.939 202.962C143.601 203.815 144.438 204.516 145.394 205.018C147.67 206.593 148.257 206.616 150.473 205.012C152.28 203.701 153.961 202.246 155.761 200.865C159.425 198.026 163.313 195.398 166.845 192.347C170.444 189.022 174.25 185.927 178.238 183.08C182.417 180.087 186.944 177.612 191.719 175.71C196.712 173.817 201.891 172.4 207.048 170.977C209.616 170.364 212.214 169.879 214.83 169.526C215.597 169.41 216.371 169.354 217.146 169.357C220.68 169.536 224.18 170.126 227.577 171.116C232.374 172.228 237.241 173.038 242.058 174.064C246.874 175.09 251.111 176.164 255.627 177.211C257.377 177.617 259.109 178.201 260.829 178.737C263.064 179.648 265.378 180.352 267.741 180.841C273.225 181.543 277.962 184.486 283.266 185.671C283.266 185.671 283.266 185.671 283.357 185.965C283.137 186.038 282.911 186.093 282.682 186.127C279.315 186.212 275.958 186.253 272.603 186.386C271.13 186.454 269.695 186.85 268.242 186.831C265.131 186.793 262.036 186.394 258.944 186.474C252.385 186.464 245.837 187.01 239.371 188.105C235.574 188.864 231.745 189.57 227.889 189.996C225.492 190.292 223.172 191.036 221.05 192.19C219.061 193.208 217.088 194.253 215.143 195.374C214.15 195.894 213.233 196.547 212.416 197.314C211.838 197.849 211.413 198.529 211.185 199.283C210.956 200.037 210.933 200.839 211.117 201.605C211.301 202.371 211.686 203.074 212.232 203.642C212.778 204.21 213.465 204.623 214.223 204.837C216.369 205.453 218.584 205.798 220.816 205.865C224.349 205.765 227.835 205.031 231.109 203.699C235.797 202.236 240.434 200.602 244.953 198.69C248.853 197.006 252.952 195.829 257.15 195.188C262.83 194.27 268.576 193.828 274.329 193.867C275.965 193.882 277.594 193.827 279.235 193.821C277.514 194.669 275.704 195.326 273.84 195.78C269.514 197.054 265.19 198.123 260.915 199.477C257.073 200.726 253.237 202.045 249.515 203.664C245.792 205.282 242.48 207.292 238.866 208.936C235.667 210.462 232.678 212.393 229.973 214.683C229.493 215.045 229.059 215.464 228.682 215.932C228.153 216.624 227.852 217.463 227.821 218.333C227.791 219.203 228.032 220.061 228.512 220.788C229.401 222.452 230.76 222.289 232.083 221.981C235.116 221.273 238.145 220.586 241.102 219.519C245.328 218.085 249.451 216.309 253.589 214.764C256.498 213.708 259.497 212.855 262.434 211.874C265.371 210.893 268.428 209.69 271.478 208.712C276.797 206.986 282.212 205.532 287.479 203.634C295.042 200.733 303.006 199.009 311.092 198.522C314.368 198.445 317.624 199.053 320.652 200.307C325.722 202.302 330.854 204.13 335.971 206.023C336.468 206.138 336.893 206.464 337.343 206.683C335.761 206.835 334.17 206.869 332.583 206.785C324.671 207.227 316.721 206.454 308.902 208.261C305.724 209.004 302.394 209.028 299.224 209.933C290.522 212.384 282 215.436 273.721 219.069C272.661 219.64 271.789 220.505 271.208 221.56C270.947 221.944 270.774 222.381 270.704 222.84C270.634 223.299 270.668 223.768 270.803 224.212C270.938 224.656 271.171 225.065 271.485 225.407C271.799 225.749 272.185 226.017 272.616 226.19C274.36 227.174 276.386 227.54 278.364 227.227C283.334 226.217 288.379 225.474 293.333 224.437C300.78 222.862 308.168 221.047 315.567 219.484C316.1 219.418 316.638 219.398 317.174 219.424C313.421 222.06 309.591 224.337 305.728 226.56C303.597 227.796 301.279 228.761 299.231 230.131C297.8 231.2 296.493 232.424 295.333 233.781C292.937 236.149 291.151 239.063 290.13 242.274C289.451 244.712 290.196 246.115 292.646 246.25C295.096 246.386 297.896 246.193 300.532 246.121C300.769 246.176 301.017 245.892 301.258 245.834C304.657 244.794 307.82 243.099 310.567 240.843C316.416 236.735 321.988 232.244 327.715 227.971C329.683 226.422 331.759 225.016 333.928 223.765C337.874 221.674 341.942 219.84 346.094 217.843C346.129 217.691 346.042 217.284 346.027 216.757C351.138 215.142 356.271 213.919 361.636 215.823C360.623 216.2 359.59 216.523 358.543 216.791C353.904 218.629 349.315 220.548 344.742 222.493C343.539 222.991 342.406 223.648 341.375 224.444C340.915 224.734 340.536 225.135 340.272 225.61C340.008 226.085 339.867 226.619 339.864 227.163C339.86 227.706 339.993 228.242 340.251 228.721C340.509 229.199 340.883 229.605 341.339 229.901C341.997 230.454 342.74 230.896 343.541 231.208C344.735 231.704 345.969 232.097 347.23 232.383C348.379 232.706 349.575 232.829 350.766 232.747C354.462 232.259 358.053 231.169 361.397 229.52C366.855 226.74 372.593 224.544 378.513 222.97C379.192 222.879 379.822 222.57 380.311 222.09C381.257 220.761 382.312 221.119 383.519 221.513C386.879 222.634 390.255 223.69 393.625 224.768C395.855 225.444 397.919 226.582 399.681 228.108C394.007 228.226 388.731 228.687 383.469 229.289C378.206 229.89 372.495 230.364 367.111 231.096C363.613 231.704 360.277 233.023 357.309 234.971C356.503 235.328 355.841 235.949 355.433 236.731C355.024 237.512 354.892 238.41 355.058 239.276C355.22 240.219 355.62 241.105 356.22 241.85C356.82 242.595 357.601 243.174 358.488 243.532C361.183 244.692 364.165 245.011 367.043 244.446C372.168 243.358 377.267 241.99 382.395 240.789C386.082 239.913 389.659 238.921 393.474 238.28C400.83 237.332 408.237 236.837 415.654 236.798C417.163 236.615 418.691 236.632 420.196 236.85C424.063 237.747 427.931 238.644 431.699 239.973C434.944 241.133 438.122 242.471 441.221 243.98C443.286 244.892 444.656 244.777 445.872 241.598C447.409 237.719 445.627 234.505 444.292 231.327L441.268 231.308C440.004 231.087 438.708 231.128 437.46 231.427C436.302 231.973 434.981 232.064 433.758 231.684C429.848 230.573 425.959 229.375 422.04 228.307C416.381 226.789 410.619 225.521 405.004 223.809C401.067 222.623 397.272 220.923 393.426 219.439C392.908 219.319 392.497 218.928 391.623 218.474L397.316 216.903C399.892 216.202 402.455 215.362 405.056 214.85C409.351 214.002 413.643 212.675 418.084 214.046C418.57 214.219 419.096 214.24 419.595 214.108C420.093 213.976 420.539 213.695 420.875 213.304C422.495 211.63 423.445 209.42 423.545 207.093C423.839 204.451 423.09 203.458 420.41 203.132C418.194 202.869 416.12 202.98 413.99 202.736C409.077 202.525 404.196 201.835 399.417 200.677C399.012 200.531 398.577 200.484 398.15 200.543C396.595 200.794 395.002 200.626 393.533 200.057C392.064 199.489 390.773 198.539 389.793 197.307C384.824 191.749 380.761 185.444 377.755 178.622C375.846 174.877 373.813 171.173 371.647 167.551C369.482 163.929 367.106 160.623 364.964 157.098C362.808 153.427 359.92 150.238 356.48 147.73C355.59 147.056 354.557 146.596 353.461 146.385C352.365 146.174 351.235 146.219 350.159 146.515C348.449 146.915 348.025 147.568 348.329 149.301C348.882 152.123 350.133 154.761 351.968 156.976C354.382 160.017 356.461 163.323 358.902 166.348C362.284 170.616 366.34 174.335 368.968 179.202C369.713 180.605 370.628 181.864 371.346 183.283L370.885 183.7C370.233 183.362 369.617 182.96 369.046 182.499C367.705 181.285 366.43 180.001 365.224 178.653C362.765 175.806 360.433 172.805 358.01 169.898C355.588 166.991 353.222 164.234 350.871 161.412C346.682 156.501 342.529 151.53 338.346 146.69C337.497 145.719 336.434 144.958 335.242 144.467C334.794 144.243 334.293 144.15 333.795 144.198C333.298 144.246 332.823 144.433 332.427 144.738C332.031 145.043 331.729 145.453 331.555 145.922C331.381 146.391 331.343 146.899 331.444 147.389C331.59 148.843 331.933 150.271 332.464 151.633C334.931 157.525 338.261 163.017 342.346 167.928C346.865 173.935 352.201 179.28 358.2 183.809C361.768 186.39 365.258 189.112 368.758 191.791C369.379 192.254 369.927 192.836 370.638 193.502C367.465 193.244 364.707 193.06 361.979 192.746C361.136 192.723 360.319 192.446 359.635 191.952C355.448 188.112 351.356 184.157 347.174 180.296C344.348 177.659 341.554 175.076 338.519 172.55C337.489 171.758 336.325 171.156 335.083 170.774C334.638 170.61 334.162 170.546 333.689 170.586C333.216 170.627 332.758 170.77 332.346 171.007C331.935 171.244 331.581 171.569 331.309 171.958C331.037 172.347 330.854 172.791 330.773 173.259C330.5 174.239 330.483 175.273 330.724 176.262C330.965 177.251 331.456 178.161 332.15 178.906C334.491 181.18 336.748 183.525 339.027 185.875C339.801 186.763 340.528 187.692 341.205 188.657C339.145 188.531 337.149 187.896 335.395 186.808C331.302 184.048 326.4 182.743 321.477 183.102C320.011 181.373 318.488 179.495 316.929 177.676C313.973 174.538 311.376 171.079 309.188 167.365C307.992 165.061 306.534 162.901 305.184 160.675C303.25 157.426 301.066 154.278 299.42 150.868C297.993 147.919 295.852 145.372 293.192 143.458C292.709 143.018 292.106 142.732 291.46 142.635C290.814 142.538 290.153 142.634 289.562 142.912C288.268 143.677 287.249 144.831 286.651 146.21C286.053 147.588 285.907 149.121 286.233 150.588C287.147 152.815 288.249 154.96 289.528 156.999C291.188 159.661 292.913 162.042 294.785 164.571C293.946 164.188 293.206 163.619 292.621 162.908C288.437 157.383 284.25 151.972 280.052 146.513C276.854 142.333 273.647 138.197 270.326 134.057C269.493 133.083 268.449 132.312 267.274 131.8C266.887 131.596 266.453 131.497 266.015 131.513C265.578 131.529 265.152 131.66 264.78 131.891C264.409 132.123 264.104 132.448 263.898 132.834C263.691 133.22 263.588 133.653 263.601 134.091C263.53 134.782 263.6 135.48 263.808 136.143C264.41 138.305 265.142 140.428 265.999 142.502C269.271 149.573 273.599 156.104 278.834 161.873C284.359 168.096 290.72 173.556 296.764 179.306C298.624 181.104 300.704 182.838 302.665 184.591C300.522 183.903 298.437 183.046 296.429 182.029C295.008 181.381 293.462 180.977 292.11 180.231C286.982 177.402 281.911 174.427 276.784 171.599C273.721 170.293 271.063 168.191 269.088 165.51C268.525 164.766 267.892 164.078 267.197 163.455C265.895 162.214 264.682 160.882 263.567 159.471C262.814 158.236 262.162 156.943 261.617 155.603C260.74 154.129 259.945 152.606 259.237 151.044C257.058 145.415 255.025 139.752 252.878 134.086C252.704 133.703 252.509 133.331 252.294 132.971C250.795 129.618 249.011 126.312 247.816 122.825C246.448 118.276 244.286 114.004 241.429 110.209C239.996 108.533 238.918 106.507 237.57 104.76C236.65 103.522 235.566 102.406 234.561 101.239C233.692 100.318 232.57 99.6737 231.336 99.3875C230.102 99.1014 228.811 99.1859 227.625 99.6304C226.569 99.8637 225.965 100.407 226.324 101.606C226.455 102.188 226.401 102.796 226.171 103.346C225.615 104.835 225.667 106.482 226.314 107.933C226.709 108.981 227.103 110.029 227.594 111.054C229.637 115.989 232.241 120.673 235.355 125.012C240.538 131.25 244.912 138.117 248.375 145.451C248.215 145.55 248.034 145.645 247.869 145.766C245.688 142.801 243.427 139.886 241.304 136.866C238.734 133.219 236.334 129.429 233.769 125.76C231.706 122.777 229.58 119.871 227.41 116.954C223.461 111.102 219.046 105.578 214.209 100.435C212.666 98.9391 211.167 97.4528 209.517 96.0229C208.773 95.4249 207.861 95.0727 206.908 95.0148C205.955 94.9569 205.007 95.1961 204.196 95.6996C203.475 96.3305 202.943 97.1486 202.659 98.0631C202.374 98.9777 202.349 99.9532 202.584 100.882C203.238 103.113 204.154 105.259 205.314 107.275C208.653 112.205 212.566 116.72 216.972 120.726C221.896 125.511 226.927 130.23 231.852 135.107C235.557 138.767 239.108 142.505 242.537 146.374C247.311 151.442 252.407 156.199 257.792 160.613C258.441 161.241 259.046 161.914 259.601 162.627C259.169 162.513 258.747 162.362 258.34 162.175C252.534 157.755 245.935 155.086 239.6 151.772C235.783 149.771 231.955 147.722 228.311 145.465C223.487 142.133 219.246 138.026 215.761 133.31C212.973 129.818 210.084 126.37 207.36 122.801C204.557 119.401 202.139 115.702 200.15 111.77C198.351 107.846 196.252 104.035 194.442 100.154C194.068 99.3312 193.502 98.6092 192.793 98.0485C192.083 97.4879 191.25 97.1049 190.362 96.9313C189.873 96.7642 189.342 96.7729 188.859 96.956C188.375 97.1391 187.971 97.4851 187.716 97.9343C186.745 99.1681 186.127 100.642 185.926 102.199C185.725 103.756 185.95 105.338 186.576 106.778C188.056 110.282 189.717 113.707 191.551 117.039C192.805 118.954 194.174 120.792 195.648 122.543C196.728 124.069 197.777 125.633 198.848 127.202C199.063 127.563 199.258 127.935 199.432 128.317C198.627 128.193 197.865 127.876 197.21 127.391C193.016 124.369 188.936 121.146 184.622 118.347C180.965 115.95 177.505 113.099 173.019 112.218C172.272 112.023 171.578 111.668 170.983 111.176C169.355 110.036 168.043 108.501 167.168 106.717C165.231 103.074 163.836 99.168 163.026 95.1226C162.674 93.1055 162.681 91.0124 162.5 88.944C162.096 86.125 162.281 83.2526 163.045 80.5089C163.214 79.8389 163.32 79.1543 163.36 78.4644C163.827 74.9752 164.235 71.4495 164.794 67.9587C165.703 62.2722 167.41 56.6797 167.596 50.871C167.617 49.9301 167.521 48.9902 167.312 48.0726C167.007 46.6359 166.606 45.2223 166.179 43.8253C165.823 42.5002 165.361 41.2055 164.8 39.9534C164.641 39.5959 164.401 39.2801 164.099 39.031C163.798 38.7819 163.442 38.6063 163.061 38.5179C162.68 38.4294 162.283 38.4307 161.903 38.5216C161.522 38.6124 161.168 38.7904 160.867 39.0414C158.905 40.0697 157.246 41.595 156.057 43.4649C154.869 45.3348 154.191 47.4839 154.093 49.6975C153.959 51.9434 153.976 54.2244 153.734 56.4453C152.795 65.203 152.8 74.0364 153.749 82.7931C153.971 84.78 154.328 86.7755 154.642 88.7609C153.942 88.239 153.358 87.5764 152.93 86.8155C149.52 80.7455 146.78 74.3229 144.758 67.6609C143.625 63.7887 142.221 60.0011 140.556 56.3261C138.231 51.9162 135.767 47.5195 133.706 43.0567C132.5 40.9646 130.811 39.1911 128.78 37.8841C128.566 37.6926 128.309 37.5547 128.031 37.4818C127.752 37.4088 127.461 37.4028 127.18 37.4643C126.899 37.5258 126.637 37.6531 126.415 37.8356C126.192 38.0182 126.017 38.2508 125.902 38.5144C124.012 42.2431 122.221 46.04 123.974 50.3628C124.45 51.5658 125.035 52.7228 125.722 53.8195C128.308 57.7891 131.059 61.6375 133.511 65.6901C135.037 68.4387 136.394 71.2779 137.574 74.1918C141.328 81.772 146.021 88.8501 151.541 95.2596C152.701 96.7356 153.819 98.2015 155.06 99.7191C152.76 98.9356 150.596 97.7961 148.648 96.3421C144.551 93.173 141.071 89.2787 138.38 84.8528C136.775 82.2993 135.387 79.6162 134.229 76.8315C133.352 74.6244 131.753 72.6825 130.651 70.5599C128.933 67.2695 127.438 63.8946 125.741 60.6093C123.365 56.0281 121.043 51.4137 118.416 46.9336C115.421 41.685 112.181 36.6075 108.968 31.5133C107.197 28.6435 105.052 25.9146 103.253 22.9699C101.116 19.4167 98.3708 16.2673 95.1421 13.6659C93.7029 12.5618 92.1373 11.6331 90.4784 10.8993C89.7852 10.6166 89.0221 10.5531 88.2918 10.7176C87.5615 10.8821 86.8992 11.2666 86.3942 11.8192V11.8192ZM377.055 209.426C374.123 206.651 371.139 203.91 368.212 201.114C367.885 200.659 367.633 200.154 367.466 199.62C368.673 199.718 369.577 199.745 370.483 199.864C371.503 200.044 372.513 200.278 373.508 200.566L396.316 206.88C395.934 207.063 395.535 207.207 395.124 207.309C390.029 208.268 384.949 209.162 379.887 210.174C379.391 210.309 378.868 210.311 378.37 210.18C377.873 210.048 377.419 209.788 377.055 209.426V209.426Z" fill="white"/>
<path d="M115.21 106.507C116.055 106.498 116.903 106.376 117.549 107.322C116.598 108.377 115.382 108.027 114.364 107.996C110.143 108.09 105.924 107.7 101.792 106.833C100.601 106.617 99.3818 106.62 98.1924 106.841C96.05 107.033 93.8905 106.811 91.8323 106.185C90.7735 105.94 89.4771 105.639 89.4756 103.977C91.3338 104.408 93.0192 104.798 94.7262 105.194C95.738 105.382 96.7717 105.422 97.7951 105.314C101.631 104.974 105.299 106.144 109.038 106.419C111.106 106.534 113.166 106.488 115.21 106.507ZM47.4451 148.147C42.0335 148.213 36.6188 148.096 31.1956 148.113C28.183 148.143 25.1836 148.313 22.1811 148.299C20.6698 148.336 19.152 148.303 17.6341 148.269C17.2884 149.76 18.1276 150.069 19.0968 150.111C20.47 150.179 21.8381 150.269 23.2148 150.224C26.7428 150.131 30.2476 149.942 33.7756 149.85C38.75 149.706 43.731 149.631 48.7221 149.514C50.3464 149.481 51.9958 149.339 53.6151 149.328C57.2095 149.342 60.8155 149.404 64.4199 149.375C65.1218 149.275 65.8054 149.073 66.4488 148.775L66.3846 148.168C64.4695 147.893 62.5413 147.72 60.6079 147.648C56.2303 147.771 51.8343 148.072 47.4451 148.147ZM90.4783 10.8993C92.1393 11.6116 93.7098 12.5186 95.1571 13.601C98.3863 16.2231 101.127 19.3947 103.253 22.9699C105.052 25.9146 107.197 28.6434 109.028 31.5499C112.241 36.6441 115.476 41.7433 118.471 46.9918C121.076 51.4669 123.42 56.0863 125.796 60.6675C127.493 63.9528 128.987 67.3277 130.706 70.6181C131.808 72.7407 133.407 74.6826 134.284 76.8897C135.442 79.6744 136.83 82.3575 138.435 84.911C141.126 89.3369 144.606 93.2312 148.703 96.4003C150.612 97.7959 152.723 98.892 154.962 99.6508C153.829 98.1582 152.711 96.6923 151.443 95.1913C145.962 88.7975 141.302 81.7428 137.574 74.1917C136.311 71.275 134.87 68.439 133.259 65.6998C130.806 61.6472 128.055 57.7988 125.469 53.8291C124.783 52.7325 124.197 51.5755 123.721 50.3725C121.968 46.0496 123.76 42.2527 125.649 38.5241C125.764 38.2604 125.94 38.0278 126.162 37.8453C126.384 37.6627 126.646 37.5355 126.927 37.474C127.208 37.4125 127.5 37.4184 127.778 37.4914C128.056 37.5644 128.313 37.7023 128.527 37.8938C130.555 39.1739 132.25 40.917 133.473 42.9799C135.621 47.4628 137.999 51.8395 140.323 56.2494C141.988 59.9243 143.392 63.7119 144.525 67.5841C146.564 74.2783 149.329 80.7297 152.769 86.8236C153.197 87.5845 153.78 88.2471 154.481 88.769C154.167 86.7836 153.81 84.7881 153.588 82.8012C152.639 74.0225 152.639 65.1672 153.588 56.3886C153.83 54.1677 153.813 51.8867 153.946 49.6407C154.045 47.4271 154.722 45.2781 155.911 43.4082C157.1 41.5383 158.758 40.013 160.721 38.9847C161.021 38.7336 161.376 38.5557 161.756 38.4648C162.137 38.374 162.533 38.3727 162.915 38.4611C163.296 38.5495 163.651 38.7252 163.953 38.9743C164.255 39.2234 164.495 39.5392 164.654 39.8967C165.215 41.1488 165.676 42.4435 166.033 43.7686C166.46 45.1656 166.861 46.5792 167.165 48.0159C167.375 48.9335 167.47 49.8733 167.45 50.8143C167.264 56.6229 165.557 62.2155 164.648 67.902C164.089 71.3927 163.681 74.9185 163.213 78.4076C163.174 79.0976 163.068 79.7822 162.899 80.4522C162.121 83.2508 161.946 86.1823 162.384 89.0536C162.564 91.122 162.557 93.2151 162.909 95.2321C163.719 99.2775 165.114 103.183 167.051 106.826C167.926 108.611 169.239 110.145 170.867 111.286C171.461 111.778 172.156 112.133 172.902 112.327C177.388 113.208 180.848 116.06 184.505 118.456C188.82 121.256 192.899 124.479 197.094 127.501C197.748 127.985 198.511 128.303 199.316 128.426C199.141 128.044 198.946 127.672 198.732 127.312C197.661 125.743 196.612 124.179 195.531 122.653C194.057 120.902 192.689 119.064 191.434 117.149C189.6 113.816 187.94 110.391 186.459 106.887C185.833 105.448 185.609 103.865 185.81 102.308C186.01 100.751 186.629 99.2777 187.6 98.0438C187.855 97.5947 188.259 97.2487 188.742 97.0656C189.225 96.8825 189.757 96.8737 190.246 97.0409C191.133 97.2144 191.967 97.5975 192.676 98.1581C193.386 98.7187 193.951 99.4407 194.325 100.264C196.125 104.188 198.224 107.999 200.034 111.88C202.022 115.811 204.44 119.511 207.244 122.91C209.998 126.35 212.973 129.818 215.761 133.31C219.253 138.029 223.501 142.138 228.333 145.47C231.966 147.77 235.805 149.776 239.621 151.777C245.957 155.091 252.621 157.775 258.362 162.18C258.768 162.367 259.19 162.518 259.623 162.632C259.068 161.919 258.463 161.246 257.813 160.618C252.428 156.204 247.333 151.447 242.558 146.379C239.129 142.51 235.536 138.762 231.874 135.112C227.013 130.25 221.982 125.531 216.993 120.731C212.58 116.725 208.659 112.208 205.314 107.275C204.154 105.259 203.238 103.113 202.584 100.882C202.349 99.9532 202.374 98.9777 202.659 98.0631C202.943 97.1485 203.475 96.3305 204.196 95.6995C205.007 95.1961 205.955 94.9569 206.908 95.0148C207.861 95.0727 208.773 95.4249 209.517 96.0229C211.187 97.3664 212.646 99.0255 214.209 100.435C219.046 105.578 223.461 111.102 227.41 116.954C229.58 119.871 231.706 122.777 233.769 125.76C236.334 129.429 238.734 133.219 241.304 136.866C243.427 139.886 245.688 142.801 247.869 145.766C248.034 145.645 248.215 145.55 248.375 145.451C244.912 138.117 240.538 131.25 235.355 125.012C232.168 120.724 229.485 116.083 227.36 111.181C226.869 110.157 226.474 109.109 226.08 108.061C225.432 106.61 225.381 104.963 225.937 103.474C226.166 102.924 226.22 102.316 226.09 101.733C225.74 100.491 226.344 99.9482 227.39 99.7581C228.576 99.3136 229.867 99.2291 231.101 99.5153C232.335 99.8014 233.457 100.446 234.326 101.367C235.331 102.533 236.415 103.65 237.335 104.888C238.673 106.678 239.752 108.704 241.194 110.337C244.052 114.132 246.214 118.403 247.581 122.953C248.899 126.4 250.575 129.681 252.059 133.099C252.275 133.459 252.47 133.831 252.643 134.213C254.768 139.875 256.845 145.548 259.002 151.172C259.711 152.734 260.506 154.256 261.383 155.731C261.928 157.071 262.579 158.364 263.332 159.599C264.447 161.01 265.66 162.341 266.962 163.583C267.682 164.193 268.34 164.872 268.928 165.61C270.903 168.29 273.561 170.393 276.624 171.698C281.752 174.527 286.822 177.501 291.95 180.33C293.302 181.076 294.848 181.48 296.269 182.129C298.277 183.145 300.362 184.002 302.506 184.691C300.63 182.958 298.529 181.218 296.604 179.406C290.561 173.655 284.199 168.195 278.675 161.973C273.439 156.204 269.111 149.672 265.84 142.602C264.982 140.528 264.25 138.404 263.649 136.242C263.441 135.579 263.37 134.881 263.441 134.19C263.429 133.753 263.531 133.319 263.738 132.933C263.945 132.547 264.249 132.222 264.621 131.991C264.992 131.759 265.418 131.629 265.856 131.613C266.293 131.597 266.727 131.696 267.115 131.9C268.289 132.412 269.333 133.183 270.166 134.156C273.497 138.253 276.679 142.497 279.892 146.612C284.075 152.137 288.237 157.656 292.461 163.007C293.046 163.719 293.787 164.288 294.625 164.67C292.926 162.181 290.995 159.707 289.368 157.098C288.089 155.059 286.987 152.915 286.074 150.687C285.747 149.22 285.894 147.688 286.492 146.309C287.09 144.93 288.108 143.776 289.402 143.012C289.993 142.734 290.654 142.637 291.3 142.734C291.946 142.832 292.549 143.118 293.032 143.558C295.693 145.471 297.833 148.018 299.261 150.968C300.906 154.378 303.091 157.526 305.024 160.775C306.375 163.001 307.832 165.16 309.028 167.464C311.217 171.179 313.813 174.637 316.769 177.775C318.328 179.594 319.851 181.473 321.317 183.202C326.241 182.842 331.142 184.148 335.235 186.908C336.989 187.995 338.985 188.631 341.045 188.756C340.368 187.791 339.641 186.863 338.867 185.974C336.589 183.624 334.332 181.279 331.99 179.006C331.268 178.253 330.758 177.323 330.509 176.31C330.26 175.297 330.282 174.237 330.573 173.235C330.655 172.767 330.838 172.323 331.11 171.934C331.381 171.545 331.736 171.221 332.147 170.984C332.558 170.747 333.016 170.603 333.489 170.563C333.962 170.523 334.438 170.587 334.884 170.751C336.126 171.133 337.29 171.734 338.32 172.527C341.268 175.032 344.148 177.636 346.975 180.272C351.157 184.134 355.249 188.088 359.436 191.928C360.119 192.423 360.936 192.7 361.779 192.722C364.507 193.036 367.265 193.22 370.439 193.478C369.685 192.803 369.137 192.22 368.558 191.767C365.058 189.088 361.568 186.366 358 183.785C352.001 179.257 346.665 173.911 342.147 167.904C338.062 162.993 334.731 157.501 332.264 151.609C331.733 150.247 331.39 148.82 331.245 147.365C331.143 146.876 331.181 146.367 331.355 145.898C331.529 145.429 331.831 145.019 332.228 144.714C332.624 144.409 333.098 144.222 333.596 144.174C334.094 144.126 334.595 144.219 335.042 144.443C336.235 144.935 337.297 145.696 338.147 146.666C342.416 151.527 346.568 156.498 350.671 161.388C353.066 164.22 355.481 167.058 357.811 169.875C360.14 172.692 362.571 175.76 365.025 178.629C366.23 179.978 367.506 181.262 368.846 182.476C369.417 182.937 370.034 183.339 370.685 183.676L371.146 183.26C370.343 181.912 369.487 180.598 368.768 179.179C366.14 174.311 362.084 170.593 358.703 166.325C356.284 163.305 354.204 159.999 351.768 156.952C349.933 154.738 348.682 152.099 348.129 149.277C347.825 147.544 348.25 146.892 349.959 146.491C351.036 146.195 352.166 146.151 353.262 146.362C354.358 146.573 355.391 147.033 356.281 147.707C359.679 150.225 362.528 153.412 364.651 157.071C366.815 160.601 369.241 163.987 371.335 167.524C373.429 171.061 375.734 174.965 377.755 178.622C380.804 185.402 384.9 191.661 389.893 197.17C390.873 198.403 392.164 199.353 393.633 199.921C395.102 200.49 396.695 200.657 398.25 200.407C398.677 200.348 399.112 200.394 399.517 200.541C404.296 201.699 409.177 202.389 414.09 202.6C416.306 202.864 418.381 202.753 420.51 202.996C423.19 203.322 423.939 204.315 423.645 206.956C423.545 209.284 422.595 211.494 420.975 213.168C420.639 213.559 420.193 213.839 419.694 213.972C419.196 214.104 418.67 214.083 418.184 213.91C413.743 212.538 409.451 213.865 405.156 214.714C402.555 215.226 399.992 216.066 397.416 216.767L391.723 218.338C392.597 218.791 393.028 219.096 393.526 219.303C397.372 220.787 401.167 222.486 405.104 223.673C410.718 225.385 416.481 226.653 422.14 228.17C426.059 229.239 429.948 230.437 433.857 231.548C434.489 231.791 435.163 231.906 435.839 231.887C436.516 231.868 437.182 231.716 437.799 231.438C439.047 231.138 440.343 231.098 441.607 231.319L444.631 231.337C445.966 234.516 447.705 237.72 446.211 241.608C445.02 244.679 443.604 244.897 441.56 243.991C438.462 242.481 435.283 241.143 432.038 239.983C428.255 238.719 424.402 237.757 420.535 236.86C419.03 236.642 417.502 236.625 415.993 236.809C408.477 236.835 400.971 237.33 393.517 238.29C389.789 238.951 386.125 239.923 382.439 240.799C377.335 241.892 372.221 243.325 367.086 244.456C364.178 245.032 361.163 244.707 358.445 243.522C357.558 243.164 356.777 242.585 356.177 241.84C355.577 241.095 355.177 240.209 355.015 239.266C354.849 238.399 354.981 237.502 355.389 236.721C355.798 235.939 356.459 235.318 357.266 234.961C360.234 233.013 363.57 231.694 367.067 231.086C372.538 230.374 378.04 229.919 383.425 229.278C388.811 228.638 393.985 228.221 399.638 228.097C397.876 226.572 395.812 225.434 393.582 224.758C390.211 223.68 386.836 222.624 383.475 221.503C382.244 221.217 381.214 220.751 380.268 222.08C379.779 222.56 379.148 222.869 378.47 222.96C372.564 224.54 366.841 226.739 361.397 229.52C358.06 231.152 354.481 232.229 350.798 232.709C349.607 232.791 348.411 232.668 347.262 232.345C346.001 232.059 344.767 231.666 343.572 231.17C342.772 230.858 342.028 230.416 341.371 229.863C340.915 229.567 340.541 229.161 340.283 228.682C340.025 228.204 339.892 227.668 339.895 227.125C339.899 226.581 340.039 226.047 340.303 225.572C340.568 225.097 340.947 224.696 341.407 224.406C342.452 223.602 343.601 222.941 344.822 222.443C349.395 220.498 353.984 218.58 358.622 216.741C359.67 216.473 360.703 216.15 361.716 215.773C356.341 213.912 351.208 215.135 346.107 216.707C346.121 217.234 346.166 217.632 346.174 217.793C342.022 219.79 337.954 221.624 334.008 223.715C331.839 224.966 329.763 226.372 327.795 227.921C322.068 232.194 316.495 236.685 310.647 240.793C307.9 243.049 304.737 244.744 301.338 245.784C301.097 245.842 300.864 246.061 300.611 246.071C297.976 246.143 295.333 246.35 292.726 246.2C290.119 246.051 289.559 244.737 290.13 242.274C291.148 239.047 292.937 236.117 295.343 233.738C296.503 232.381 297.81 231.156 299.241 230.088C301.289 228.718 303.607 227.753 305.738 226.517C309.601 224.293 313.431 222.017 317.184 219.381C316.648 219.355 316.11 219.375 315.577 219.44C308.158 221.09 300.785 222.841 293.343 224.394C288.369 225.517 283.344 226.173 278.374 227.184C276.396 227.497 274.37 227.131 272.626 226.147C272.201 225.973 271.82 225.708 271.509 225.369C271.199 225.03 270.968 224.627 270.832 224.189C270.697 223.75 270.66 223.287 270.725 222.832C270.79 222.377 270.955 221.943 271.208 221.56C271.789 220.505 272.661 219.64 273.721 219.069C282 215.436 290.522 212.384 299.224 209.933C302.374 209.115 305.724 209.004 308.902 208.261C316.721 206.454 324.691 207.141 332.583 206.785C334.17 206.869 335.761 206.835 337.343 206.683C336.893 206.464 336.453 206.203 335.971 206.023C330.854 204.13 325.722 202.302 320.652 200.307C317.624 199.053 314.368 198.445 311.092 198.522C303.006 199.009 295.042 200.733 287.479 203.634C282.212 205.532 276.797 206.985 271.478 208.712C268.428 209.69 265.451 210.843 262.434 211.874C259.417 212.905 256.498 213.708 253.589 214.764C249.365 216.289 245.241 218.065 241.102 219.519C238.16 220.521 235.131 221.208 232.083 221.981C230.76 222.289 229.401 222.452 228.512 220.788C228.032 220.061 227.791 219.203 227.821 218.333C227.852 217.463 228.153 216.624 228.682 215.932C229.059 215.464 229.493 215.045 229.973 214.683C232.678 212.393 235.667 210.462 238.866 208.936C242.48 207.292 245.877 205.211 249.515 203.664C253.153 202.117 257.029 200.716 260.914 199.477C265.175 198.188 269.544 196.924 273.84 195.78C275.704 195.326 277.514 194.669 279.235 193.821C277.594 193.827 275.965 193.882 274.329 193.867C268.576 193.828 262.83 194.27 257.15 195.188C252.952 195.829 248.852 197.006 244.953 198.69C240.434 200.602 235.797 202.236 231.109 203.699C227.835 205.031 224.349 205.765 220.816 205.865C218.584 205.798 216.369 205.453 214.223 204.837C213.465 204.623 212.778 204.21 212.232 203.642C211.686 203.074 211.301 202.371 211.117 201.605C210.933 200.839 210.956 200.037 211.185 199.283C211.413 198.529 211.838 197.849 212.416 197.314C213.233 196.547 214.15 195.894 215.143 195.374C217.088 194.253 219.06 193.208 221.05 192.19C223.172 191.036 225.492 190.292 227.889 189.996C231.735 189.613 235.564 188.907 239.371 188.105C245.81 187.046 252.328 186.531 258.854 186.567C261.946 186.487 265.041 186.886 268.152 186.924C269.605 186.942 271.04 186.547 272.513 186.478C275.868 186.346 279.225 186.305 282.592 186.22C282.821 186.185 283.047 186.131 283.267 186.058C283.302 185.907 283.219 185.774 283.176 185.764C277.882 184.536 273.135 181.636 267.651 180.934C265.288 180.445 262.974 179.741 260.739 178.83C259.019 178.294 257.282 177.732 255.537 177.304C251.021 176.257 246.484 175.205 241.968 174.157C237.452 173.11 232.294 172.278 227.487 171.209C224.09 170.219 220.59 169.629 217.056 169.45C216.281 169.447 215.507 169.503 214.74 169.619C212.104 169.958 209.487 170.43 206.898 171.033C201.826 172.384 196.712 173.817 191.719 175.71C186.88 177.538 182.283 179.951 178.031 182.896C174.042 185.742 170.237 188.837 166.637 192.162C163.171 195.229 159.282 197.856 155.554 200.68C153.753 202.061 152.073 203.516 150.266 204.827C148.049 206.431 147.452 206.452 145.187 204.833C144.231 204.331 143.393 203.63 142.731 202.777C142.069 201.925 141.597 200.94 141.346 199.89C141.051 198.619 141.232 197.284 141.853 196.136C144.104 191.818 147.656 188.316 152.007 186.127C155.684 184.407 159.409 182.88 163.259 181.496C167.109 180.112 170.929 177.879 174.631 176.051C177.188 174.845 179.73 173.704 182.276 172.541L185.586 171.032C183.661 170.891 181.731 171.225 179.964 172.005C177.182 172.908 174.507 174.132 171.765 175.158C167.252 176.844 162.685 178.471 158.173 180.157C154.061 181.686 149.95 183.214 145.9 184.87C144.565 185.456 143.334 186.255 142.255 187.236C140.819 188.519 139.438 189.565 137.372 188.653C136.356 188.146 135.542 187.309 135.061 186.28C134.581 185.251 134.462 184.09 134.725 182.985C134.899 181.961 135.229 180.97 135.702 180.046C137.122 177.289 139.102 174.858 141.514 172.908C143.927 170.958 146.719 169.533 149.713 168.723C152.124 168.144 154.348 167.293 156.685 166.742C159.029 166.178 161.406 165.764 163.803 165.502C170.398 164.754 176.997 164.281 183.604 163.673C184.382 163.626 185.147 163.449 185.866 163.15C181.549 162.718 177.212 162.372 172.903 161.806C169.145 161.321 165.425 160.572 161.66 160.018C156.643 159.264 151.635 158.376 146.586 157.957C142.597 157.467 138.563 158.393 135.187 160.573C132.192 162.588 128.8 164.055 126.02 166.325C119.718 171.595 114.177 177.712 109.554 184.502C107.643 187.246 105.95 190.223 104.321 193.124C104.281 193.297 104.056 193.382 104.016 193.555C103.014 197.876 99.5849 200.291 96.4815 202.873C94.6083 204.546 92.4365 205.85 90.0799 206.717C88.5616 207.23 86.9419 207.371 85.3578 207.127C83.7737 206.882 82.2718 206.26 80.9791 205.312C80.8003 205.233 80.6393 205.118 80.5055 204.976C80.3717 204.833 80.2678 204.665 80.2 204.482C80.1322 204.298 80.1018 204.103 80.1106 203.908C80.1194 203.712 80.1673 203.521 80.2514 203.344C80.4809 202.52 80.9139 201.767 81.5106 201.154C83.1434 199.906 84.6118 198.456 85.8811 196.84C90.6517 191.531 95.0103 185.867 98.9189 179.895C102.699 174.012 107.368 168.75 112.76 164.297C113.224 163.909 113.529 163.364 113.616 162.765C113.065 162.913 112.534 163.126 112.034 163.4C107.901 166.495 103.778 169.546 99.6748 172.807C96.8426 175.201 94.2176 178.076 91.299 180.45C88.272 182.876 85.1053 185.122 81.8152 187.176C78.0503 189.62 73.881 191.374 69.5018 192.358C65.7167 193.32 61.7362 193.187 58.0241 191.973C56.5135 191.418 55.0912 190.678 54.9951 188.834C54.946 188.019 55.13 187.207 55.5255 186.492C55.9211 185.777 56.5119 185.19 57.229 184.799L71.7442 175.915L88.2177 165.755C89.8364 164.764 91.4501 163.795 93.0307 162.773L104.614 155.144C103.777 155.182 102.943 155.27 102.116 155.408C95.3113 156.642 88.6967 158.759 82.4399 161.705C74.4271 165.722 66.2915 169.482 58.1726 173.268C53.7263 175.357 49.1076 177.109 44.7594 179.265C41.9523 180.789 38.9024 181.815 35.7451 182.298C32.2961 182.795 28.7769 182.279 25.6153 180.814C24.7652 180.43 24.0256 179.839 23.4648 179.094C22.904 178.349 22.5402 177.474 22.4069 176.551C22.2737 175.628 22.3754 174.687 22.7026 173.813C23.0297 172.94 23.5719 172.164 24.2788 171.555C28.4863 167.716 33.4591 164.811 38.8701 163.031C43.5117 161.671 47.8427 160.08 52.1799 158.854C57.4068 157.425 62.7314 156.36 68.0262 155.129L75.8223 153.226L75.7631 152.597C75.0802 152.563 74.396 152.564 73.7132 152.6C69.4202 152.948 65.1271 153.296 60.8357 153.735C52 154.623 43.1891 155.699 34.3353 156.469C29.2907 156.916 24.2047 157.148 19.1307 157.132C16.468 156.99 13.9667 155.811 12.1623 153.848C10.3579 151.885 9.39371 149.293 9.47622 146.628C9.72375 145.377 10.2833 144.21 11.1028 143.234C11.9224 142.257 12.9754 141.504 14.164 141.044C15.0715 140.789 16.0069 140.646 16.9492 140.619C23.0825 140.607 29.2121 140.919 35.3125 141.554C40.6899 142.323 46.0928 142.688 51.5006 143.031C56.9084 143.375 62.8355 143.246 68.5255 144.042C74.8355 144.914 81.0792 144.108 87.3498 144.56C89.3035 144.589 91.257 144.495 93.1988 144.277C93.2516 144.092 93.2951 143.905 93.3291 143.715C92.4216 143.505 91.4925 143.289 90.5549 143.209L74.1614 141.046C68.0891 140.23 61.9967 139.5 55.9544 138.554C49.4292 137.774 43.0462 136.079 36.9938 133.519C35.5661 132.882 34.3482 131.853 33.4813 130.551C32.6144 129.25 32.134 127.73 32.0957 126.167C32.0264 125.013 32.4106 123.877 33.1665 123.001C33.9224 122.126 34.9902 121.581 36.1424 121.481C38.392 121.493 40.6387 121.641 42.8702 121.926C44.5891 122.074 46.281 122.535 47.9918 122.522C54.1099 122.552 59.8815 124.664 65.8775 125.417C71.8734 126.17 78.1505 128.264 84.2654 129.682C88.4847 130.62 92.6188 131.906 96.6254 133.528C99.9075 134.79 103.098 136.349 106.303 137.844C110.414 139.754 114.294 141.974 118.448 143.598C122.266 145.248 126.218 146.569 130.261 147.545C133.126 148.477 136.154 148.799 139.15 148.49C140.01 148.453 140.87 148.568 141.69 148.829C142.767 149.135 143.889 149.248 145.005 149.165C143.81 148.524 142.62 147.861 141.411 147.284C136.11 144.711 130.868 142.084 125.5 139.701C118.314 136.09 110.909 132.936 103.327 130.255C99.6062 129.119 95.7431 128.496 91.9618 127.619C90.5357 127.288 89.1347 126.849 87.6704 126.487C87.0685 126.383 86.5212 126.074 86.1218 125.612C85.7225 125.15 85.4957 124.563 85.4803 123.953C85.4262 123.301 85.5458 122.646 85.8267 122.055C86.1077 121.465 86.5401 120.959 87.08 120.589C87.2759 120.426 87.5053 120.308 87.752 120.244C91.4551 119.691 95.0711 118.139 98.9219 119.305C101.053 119.936 103.114 120.278 105.17 120.937C106.647 121.42 108.016 122.186 109.2 123.192C110.916 124.343 112.759 125.29 114.694 126.014L132.522 134.362C135.641 135.836 138.848 137.127 141.874 138.807C145.35 140.706 148.622 142.991 152.035 144.966C154.28 146.284 156.628 147.352 158.924 148.545C159.841 149.008 160.712 149.575 161.644 149.973C164.241 151.144 166.885 152.213 169.482 153.385C174.33 155.244 179.338 156.657 184.442 157.606C182.656 156.38 180.698 155.427 178.631 154.778C176.581 153.801 174.48 153.041 172.435 152.043C168.861 150.303 165.315 148.509 161.797 146.661C160.19 145.833 158.662 144.864 157.102 143.933C152.661 141.286 148.251 138.602 143.795 136.02C139.591 133.527 135.696 130.545 132.194 127.136C129.809 124.852 130.88 122.983 131.995 120.532C132.872 118.618 134.699 118.199 137.166 118.953C140.445 120.061 143.545 121.639 146.371 123.638L159.23 132.108C159.548 131.72 159.834 131.307 160.085 130.872C160.261 130.3 160.624 129.804 161.116 129.464C161.608 129.123 162.2 128.959 162.797 128.996C165.891 128.986 168.983 129.163 172.055 129.527C178.712 130.659 185.179 132.711 191.271 135.623C194.528 136.96 197.852 138.126 201.231 139.117C201.286 138.879 201.211 138.611 201.152 138.575C193.866 135.428 186.648 132.387 179.306 129.091C176.623 127.712 174.021 126.181 171.512 124.505C170.692 124.019 169.934 123.456 169.15 122.91C168.356 122.472 167.68 121.849 167.177 121.095C166.674 120.34 166.361 119.476 166.262 118.574C166.229 118.061 166.047 117.568 165.738 117.156C165.429 116.745 165.006 116.433 164.522 116.258C161.382 114.735 157.963 113.872 154.477 113.724C148.479 113.175 142.415 113.203 136.419 113.042C133.313 112.982 130.222 113.153 127.102 113.158C123.243 113.106 119.365 113.14 115.538 112.753C109.444 112.228 103.353 111.59 97.2754 110.795C92.6692 110.136 88.1166 109.149 83.564 108.161C81.9047 107.705 80.2939 107.087 78.7547 106.317C78.2858 106.124 77.8702 105.821 77.5428 105.433C77.2153 105.046 76.9855 104.586 76.8727 104.091C76.7599 103.596 76.7674 103.082 76.8945 102.591C77.0215 102.1 77.2645 101.646 77.6031 101.269C78.2326 100.393 79.0656 99.6834 80.0303 99.2011C80.9949 98.7188 82.0624 98.4782 83.1407 98.5C86.1663 98.6097 89.2021 98.6762 92.1194 99.0568C99.5614 100.054 107.044 100.879 114.387 102.399C121.73 103.92 128.709 104.56 135.852 105.67C137.313 105.867 138.797 105.81 140.239 105.503C137.793 104.392 135.203 103.63 132.544 103.241C126.494 101.837 120.407 100.562 114.282 99.4151C111.167 98.8066 107.997 98.4357 104.846 97.8869C102.071 97.3802 99.2756 96.8684 96.5249 96.1621C93.0752 95.3591 89.671 94.3719 86.3269 93.205C82.3899 91.7227 78.5865 89.8615 74.6846 88.2279C73.1997 87.5229 71.9562 86.3949 71.1104 84.9854C69.6862 82.8791 70.343 81.3237 72.6137 80.0743C73.8605 79.3836 75.2456 78.9797 76.6682 78.8921C78.0908 78.8045 79.515 79.0354 80.8371 79.5679L94.5362 84.3161C99.4188 86.0405 104.343 87.6834 109.245 89.6173C114.473 91.6334 119.837 93.2733 125.298 94.5244C132.364 96.163 139.535 97.3479 146.245 100.225C147.25 100.709 148.349 100.964 149.465 100.971C147.922 99.835 146.291 98.8246 144.587 97.9503C141.614 96.8094 138.807 95.2777 136.239 93.3958C130.013 88.6275 122.679 86.0842 115.377 83.5026C108.54 81.0745 101.673 78.776 94.8925 76.2016C89.4932 74.1525 84.0973 71.9903 78.8947 69.4858C74.0532 67.381 69.5572 64.5574 65.5587 61.1104C63.8679 59.5646 62.2104 57.9734 60.5863 56.3368C60.1747 55.8846 59.8486 55.3615 59.6237 54.793C58.7297 52.8551 59.1932 51.642 61.1774 50.9409C62.3404 50.4765 63.5904 50.2701 64.841 50.3361C66.0915 50.402 67.3129 50.7387 68.4206 51.3229C72.0661 53.2765 75.6893 55.2932 79.2903 57.3731C84.5123 60.383 89.5994 63.6803 94.9414 66.4676C98.8993 68.5468 103.229 70.0062 107.38 71.7431L107.768 71.15C106.802 70.298 105.784 69.5068 104.72 68.7809C98.7788 65.3079 93.2347 61.1972 88.1857 56.5216C82.5554 51.345 76.2277 46.9174 71.3098 40.9269C69.6915 39.0308 68.2434 36.9959 66.9822 34.8456C66.196 33.2896 65.8419 31.551 65.9569 29.8113C66.072 28.0717 66.652 26.3949 67.6364 24.956C67.8203 24.4539 68.1325 24.0088 68.542 23.6649C68.9514 23.321 69.4438 23.0903 69.97 22.9959C70.4963 22.9015 71.0381 22.9465 71.5416 23.1266C72.045 23.3067 72.4925 23.6155 72.8395 24.0223C75.6747 26.5242 78.3618 29.1739 81.192 31.6974C84.0222 34.2209 86.6119 36.2104 89.2029 38.5873C94.242 43.1714 99.1912 47.8486 104.204 52.4493C106.997 55.0326 109.884 57.4098 112.689 60.0413C114.8 62.0337 116.748 64.2387 118.706 66.4004C120.011 67.8416 121.251 69.2678 122.702 71.0616C122.521 68.4782 121.488 66.028 119.764 64.0957C116.051 58.4074 112.348 52.676 108.582 47.0209C107.301 45.0843 105.753 43.3137 104.498 41.3605C100.329 34.7091 95.7103 28.3506 90.6737 22.3294C88.999 20.1363 87.5793 17.7598 86.442 15.2457C85.8811 14.2276 85.4055 12.8422 86.454 11.8558C86.95 11.3091 87.5998 10.9252 88.3181 10.7545C89.0363 10.5838 89.7893 10.6342 90.4783 10.8993ZM329.888 209.667C329.863 209.775 329.833 209.905 329.916 210.038L331.448 209.915C331.448 209.915 331.493 209.72 331.518 209.612L329.888 209.667ZM316.51 216.105C321.016 215.032 325.521 213.868 330.016 212.748C330.74 212.574 331.452 212.352 332.158 212.152C332.011 211.967 331.825 211.817 331.613 211.712C331.401 211.608 331.168 211.552 330.932 211.548C327.991 211.663 325.05 211.778 322.127 212.011C319.464 212.174 316.812 212.471 314.179 212.9C309.781 213.702 305.424 214.718 301.065 215.642C295.479 216.851 289.821 217.588 284.638 220.303C283.874 220.535 283.08 220.65 282.281 220.644C282.952 219.506 283.957 218.603 285.159 218.055C289.732 216.3 294.465 214.996 299.291 214.161C302.995 213.312 306.779 212.801 310.471 212.199C313.088 211.713 315.704 211.136 318.304 210.624C318.477 210.664 318.639 210.36 318.792 210.19L321.721 210.619L325.615 209.928L325.875 209.988L326.069 210.034L328.28 210.319C328.261 210.127 328.252 209.935 328.254 209.743L326.156 210.054L325.918 209.998L325.702 209.948C324.56 209.866 323.461 209.793 322.304 209.775C322.153 209.74 321.969 210.335 321.807 210.639C320.969 209.443 319.93 209.703 318.879 210.21C318.337 210.004 317.77 209.873 317.193 209.819C314.631 210.068 312.064 210.337 309.52 210.704C305.693 211.296 301.862 211.911 298.059 212.6C290.657 214.226 283.449 216.638 276.558 219.795C275.61 220.245 274.717 220.801 273.896 221.455C273.194 221.929 272.274 222.558 272.834 223.485C273.046 223.785 273.322 224.035 273.642 224.216C273.963 224.396 274.319 224.503 274.686 224.53C279.411 224.807 284.149 224.29 288.703 222.999C290.496 222.435 292.294 221.85 294.131 221.389C299.317 220.102 304.51 218.855 309.708 217.647C311.945 216.936 314.291 216.638 316.51 216.105ZM342.87 212.404C338.53 213.541 334.375 215.292 330.53 217.603C328.875 218.697 327.16 219.698 325.394 220.602C320.149 223.37 315.202 226.671 310.632 230.453C309.224 231.515 308.032 232.924 306.648 234.082C304.613 235.887 302.539 237.365 300.458 238.977L299.8 238.278C302.206 235.17 305.779 233.312 308.427 230.533C311.331 227.825 314.473 225.383 317.815 223.238C321.006 221.064 324.461 219.224 327.79 217.241C327.679 217.145 327.546 217.078 327.403 217.045C327.26 217.012 327.111 217.014 326.969 217.05C321.806 219.678 316.673 222.176 311.499 224.847C306.921 227.406 302.476 230.178 298.19 233.146C295.519 235.227 293.422 237.953 292.095 241.067C291.884 241.78 291.759 242.516 291.723 243.258C292.517 243.6 293.366 243.797 294.23 243.84C297.748 243.494 301.451 243.237 304.274 240.978C307.098 238.718 310.229 235.528 313.161 232.701C315.247 230.68 317.244 228.548 319.368 226.558C323.031 223.397 327.161 220.822 331.612 218.924C332.199 218.65 332.988 218.196 333.077 217.715C333.397 216.333 334.397 215.95 335.423 215.55C337.022 214.942 338.665 214.435 340.376 213.83C341.332 213.618 342.202 213.121 342.87 212.404V212.404ZM343.237 209.643L335.37 209.595L335.381 210.235C337.996 210.249 340.59 211.238 343.237 209.643ZM362.999 218.781C362.218 218.975 361.424 219.118 360.623 219.209C354.803 220.279 349.221 222.377 344.136 225.403C343.234 226.035 342.39 226.746 341.616 227.529C345.438 229.508 348.765 230.872 352.426 229.421C357.439 227.441 362.497 225.267 367.367 223.118L374.601 220.105C372.856 219.112 370.931 218.477 368.937 218.237C366.944 217.998 364.923 218.159 362.993 218.711L362.999 218.781ZM408.727 232.892L404.371 233.02C400.489 233.167 396.61 233.201 392.763 233.493C389.657 233.729 386.6 234.341 383.511 234.604C382.769 234.813 381.988 234.845 381.231 234.697C380.475 234.549 379.763 234.226 379.154 233.753L389.657 232.158C389.254 231.784 388.727 231.572 388.178 231.565C383.276 231.835 378.392 232.374 373.549 233.181C369.342 233.609 365.265 234.887 361.566 236.937C360.103 237.635 358.578 238.196 357.011 238.613C356.631 239.367 357.092 240.226 358.008 240.893C358.721 241.453 359.564 241.822 360.459 241.965C361.353 242.109 362.27 242.023 363.122 241.715C365.926 240.817 368.748 240.037 371.557 239.118C378.56 236.98 385.757 235.545 393.044 234.834C397.716 234.323 402.642 234.191 407.441 233.823C407.683 233.857 407.961 233.443 408.72 232.822L408.727 232.892ZM403.487 231.039L401.964 231.028C401.929 231.179 401.894 231.33 401.864 231.46L403.387 231.472C403.405 231.302 403.436 231.134 403.48 230.97L403.487 231.039ZM252.569 142.484L252.238 142.635L252.784 144.014L253.296 143.769L252.569 142.484ZM244.829 146.405C243.987 144.996 243.044 143.651 242.006 142.38C239.182 138.355 236.487 134.269 233.69 130.228C232.526 128.569 231.203 127.01 229.933 125.417C229.191 124.198 228.481 122.94 227.686 121.754C224.311 116.668 219.962 112.153 216.964 106.721C216.817 106.517 216.646 106.332 216.454 106.17C214.629 104.221 212.614 102.206 210.671 100.275C209.367 98.9946 207.617 98.2703 205.789 98.2549C205.675 98.6071 205.591 98.9686 205.539 99.3353C205.317 102.195 206.199 105.032 208.004 107.262C210.247 110.059 212.142 112.98 214.474 115.593C216.284 117.607 218.355 119.18 220.243 121.052C223.625 124.341 226.964 127.681 230.261 131.072C233.657 134.592 236.989 138.188 240.38 141.73C241.79 143.309 243.29 144.795 244.779 146.325L244.829 146.405ZM255.956 151.74C255.274 149.816 254.244 148.033 252.917 146.482C251.897 145.499 251.161 144.259 250.79 142.891C250.585 142.15 250.31 141.431 249.968 140.743C248.116 137.239 246.349 133.665 244.302 130.321C240.491 123.972 236.521 117.723 232.744 111.428C232.364 110.697 232.03 109.942 231.743 109.17C232.182 109.044 232.443 108.899 232.476 108.953C239.03 118.426 244.983 128.302 250.301 138.52L250.925 138.187L244.915 125.909C244.731 125.525 244.374 125.1 244.411 124.745C244.785 121.757 243.143 119.51 241.757 117.139C240.87 115.567 239.934 114.006 239.072 112.418C237.749 109.713 236.023 107.224 233.953 105.037C233.11 104.194 232.117 103.516 231.024 103.037C229.251 102.239 228.478 102.629 227.999 104.499C227.806 105.248 227.812 106.034 228.016 106.78C228.423 108.156 228.933 109.5 229.543 110.8C231.463 115.317 233.835 119.628 236.623 123.667C240.32 128.442 243.64 133.498 246.55 138.789C248.139 141.753 249.606 144.757 251.195 147.722C252.244 149.592 253.935 151.02 255.956 151.74V151.74ZM263.537 163.426C263.578 163.253 263.807 163.147 263.929 163.016L261.339 161.026L261.049 161.392L263.537 163.426ZM150.81 109.503L150.926 109.006L146.728 108.352C144.797 107.897 142.83 107.609 140.849 107.489C133.552 107.732 126.476 106.137 119.3 105.269C112.124 104.402 105.415 102.892 98.4472 101.913C93.841 101.255 89.1913 100.882 84.5814 100.633C83.3326 100.433 82.053 100.667 80.955 101.294C79.8569 101.922 79.0064 102.905 78.5443 104.083C80.6813 104.975 82.8662 105.748 85.0888 106.397C89.5184 107.425 93.9911 108.462 98.5158 109.079C103.684 109.868 108.923 110.445 114.15 110.883C118.347 111.242 122.572 111.288 126.751 111.529C127.757 111.435 128.756 111.287 129.746 111.085C126.812 109.402 123.29 110.157 120.652 107.883C125.681 108.093 130.614 109.009 135.6 109.209C140.586 109.409 145.736 109.488 150.812 109.595L150.81 109.503ZM102.366 143.238C103.886 143.454 105.347 143.93 106.838 144.275C108.826 144.736 110.792 145.192 113.351 145.649C111.929 144.022 110.978 142.822 109.182 142.906C108.18 142.927 107.179 142.825 106.202 142.602C104.516 142.211 102.901 141.518 101.232 141.154C94.1666 139.515 87.3832 136.758 80.0435 136.399L79.7194 136.324L70.1038 134.39C68.44 134.004 66.733 133.608 65.0693 133.222C60.5596 132.541 56.0248 131.967 51.5151 131.285C49.9023 131.014 48.3076 130.644 46.7399 130.178C45.8756 129.978 44.985 129.498 45.0079 128.319C50.4517 129.194 55.7975 130.002 61.1449 130.9C64.102 131.404 67.0456 132.064 69.9927 132.611C72.5508 133.067 75.0939 133.589 77.6605 133.911C83.0217 134.79 88.3196 136.019 93.5204 137.589C97.172 138.436 100.712 139.667 104.318 140.708C102.407 138.871 100.125 137.464 97.6246 136.583C93.692 135.671 89.7413 134.641 85.9156 133.366C80.8782 131.564 75.7027 130.173 70.4403 129.208C67.9591 128.879 65.5025 128.385 63.0869 127.73C55.4335 125.386 47.4888 124.887 39.6663 123.665C38.2955 123.572 36.9216 123.791 35.6472 124.304C35.3505 124.385 35.074 124.527 34.8352 124.721C34.5963 124.915 34.4004 125.156 34.2599 125.43C34.1193 125.703 34.0372 126.003 34.0188 126.31C34.0003 126.617 34.046 126.925 34.1528 127.213C34.297 127.933 34.5855 128.616 35.0009 129.221C35.4162 129.826 35.9499 130.341 36.5696 130.734C38.667 132.266 41.0628 133.342 43.6019 133.89C50.0905 135.436 56.6666 136.589 63.2942 137.342C68.3328 137.804 73.3442 138.875 78.3608 139.629C86.308 140.903 94.3601 142.019 102.366 143.238ZM116.145 147.641L117.81 148.414C118.361 148.632 118.894 148.893 119.405 149.194C120.241 149.724 121.21 150.007 122.2 150.011C123.19 150.015 124.161 149.74 125.001 149.216L116.145 147.641ZM112.662 150.385C113.871 150.278 115.094 150.403 116.321 150.414L116.472 149.766C114.208 148.571 111.832 147.6 109.379 146.868C105.82 146.191 102.207 145.833 98.5838 145.799C93.169 145.682 87.7706 145.887 82.3424 145.926C78.8294 145.954 75.2883 145.907 71.7688 145.865C68.2492 145.823 65.2301 145.783 61.9617 145.64C56.8032 145.399 51.6462 145.251 46.5261 144.746C40.0911 144.119 33.7432 142.92 27.2594 142.897C23.7298 142.898 20.2053 142.877 16.6773 142.97C13.9507 143.043 11.1428 145.921 11.5627 148.136C12.1892 151.424 15.625 155.067 18.7641 154.884C24.6764 154.525 30.6216 154.515 36.5606 154.139C41.1828 153.845 45.6574 153.106 50.2032 152.749C58.3487 152.088 66.4309 151.503 74.6593 150.975C77.2281 150.797 79.8414 151.016 82.387 150.741C84.4704 150.495 86.7342 151.043 88.9451 149.757C84.3023 149.159 79.6857 150.41 75.5547 148.587C76.3369 148.111 77.2301 147.847 78.1457 147.822C80.1308 147.804 82.109 148.012 84.0775 147.968C86.9172 147.898 89.7537 147.645 92.5734 147.661C93.4251 147.733 94.262 147.927 95.0582 148.238C96.1381 148.741 97.286 149.084 98.4653 149.255C102.045 149.038 105.6 148.633 109.389 148.1C110.094 149.971 109.979 150.172 108.448 150.295C105.455 150.535 102.44 150.769 99.4773 151.175C97.4459 151.49 95.4326 151.912 93.446 152.44C89.4332 153.445 85.369 154.279 81.3494 155.51C76.2718 157.178 71.4035 159.123 66.3804 161.146C61.3574 163.169 57.1676 164.838 52.6268 166.745C48.5768 168.402 44.4155 169.85 40.4218 171.656C37.0469 173.15 33.1027 173.761 30.7615 177.18C29.4171 176.595 29.601 175.704 30.3332 175.1C31.6017 173.947 33.0225 172.974 34.5558 172.208C38.6742 170.454 42.9268 169.004 47.0784 167.303C54.8209 164.157 62.5136 160.932 70.2279 157.712C70.7569 157.493 71.236 157.194 72.1692 156.705C71.7098 156.599 71.2391 156.551 70.7679 156.562C60.5675 158.473 50.5151 161.102 40.6857 164.431C36.1633 166.155 31.872 168.433 27.9101 171.214C26.7626 172.095 25.7524 173.142 24.9125 174.321C24.6836 174.589 24.5157 174.904 24.4203 175.244C24.3249 175.583 24.3042 175.94 24.3598 176.288C24.4154 176.636 24.5458 176.969 24.7421 177.262C24.9385 177.555 25.196 177.802 25.497 177.986C28.0727 179.152 30.7394 180.613 33.6646 179.88C37.1871 179.095 40.637 178.013 43.9775 176.648C49.2984 174.421 54.5065 171.894 59.7097 169.39C64.1393 167.275 68.4909 165.005 72.9256 162.869C76.3356 161.223 79.7838 159.609 83.2833 158.167C86.7828 156.724 90.1853 155.897 93.4853 154.43C99.6166 152.053 106.093 150.687 112.662 150.385V150.385ZM115.573 170.232C117.003 168.287 118.342 166.047 119.962 164.169C121.582 162.29 123.449 160.719 125.243 158.972C125.092 158.937 124.919 158.897 124.832 158.877C120.599 161.023 116.691 163.758 113.226 167.001C109.307 170.511 105.79 174.445 102.741 178.732C99.8152 183.189 96.6255 187.468 93.1888 191.544C90.0926 195.525 86.7579 199.314 83.2029 202.89C82.9444 203.239 82.727 203.617 82.5549 204.015C82.9474 204.086 83.347 204.11 83.7452 204.086C89.2773 202.646 94.1911 199.446 97.7453 194.969C100.538 191.734 103.092 188.301 105.388 184.697C106.51 182.999 107.568 181.286 108.647 179.578C106.973 180.32 105.6 181.606 104.749 183.228C101.53 187.903 97.8058 192.209 93.6427 196.067C93.3831 196.303 92.9641 196.342 92.6381 196.472L92.2977 196.074L95.7416 192.319C96.444 191.548 97.2178 190.862 97.8604 190.055C100.051 187.284 102.144 184.445 104.352 181.701C105.399 180.335 106.537 179.039 107.756 177.823C110.143 175.485 112.655 173.29 115.102 170.988C115.284 170.752 115.442 170.499 115.573 170.232V170.232ZM131.743 158.043C126.616 159.635 122.113 162.785 118.86 167.055L119.169 167.491L131.743 158.043ZM205.235 169.076L200.497 169.868C196.663 170.308 192.862 170.993 189.115 171.918C184.784 173.376 180.541 175.083 176.408 177.032C173.866 178.173 171.279 179.508 168.713 180.757C167.171 181.515 165.619 182.317 164.054 182.978C160.7 184.478 157.397 185.761 154.002 187.046C149.461 188.975 145.755 192.458 143.549 196.871C143.219 197.544 143.048 198.283 143.048 199.032C143.003 200.798 144.274 201.798 145.431 202.795C147.169 204.337 147.892 204.459 149.779 203.098C151.665 201.737 152.924 200.434 154.526 199.121C159.016 195.472 163.495 191.866 167.968 188.19C169.714 186.75 171.376 185.178 173.067 183.68L172.87 183.156C172.173 183.15 171.478 183.218 170.796 183.358C170.336 183.479 169.973 183.964 169.492 184.171C163.342 186.707 157.918 190.73 153.707 195.88C153.021 196.677 152.385 197.85 150.486 197.592C151.158 196.871 151.79 196.113 152.379 195.322C155.307 191.141 159.153 187.687 163.624 185.224C167.263 183.27 171.035 181.573 174.911 180.146C176.802 179.355 178.762 178.762 180.646 177.901C182.905 176.899 185.034 175.571 187.355 174.698C189.675 173.824 191.81 173.454 194.017 172.873C195.763 172.413 197.514 171.931 199.249 171.422C200.983 170.914 203.293 170.083 205.296 169.5L205.235 169.076ZM222.071 166.287L225.247 167.023C220.501 165.103 215.668 163.459 210.867 161.776C205.826 160.255 200.958 158.21 196.343 155.675C194.783 154.744 193.218 153.835 191.611 153.006C185.644 149.869 179.673 146.754 173.681 143.725C172.059 142.742 170.274 142.058 168.411 141.706C167.068 141.527 165.806 140.957 164.784 140.068C161.814 137.853 158.993 135.582 155.89 133.451C152.258 130.947 148.543 128.605 144.813 126.328C142.11 124.631 139.386 122.929 136.594 121.417C135.019 120.55 134.304 120.885 133.311 122.317C133.116 122.562 132.971 122.843 132.885 123.143C132.798 123.444 132.772 123.759 132.808 124.07C132.844 124.381 132.941 124.682 133.093 124.955C133.246 125.229 133.451 125.469 133.697 125.663C134.622 126.583 135.552 127.482 136.54 128.326C142.221 133.286 148.925 136.481 155.102 140.577C159.701 143.625 164.734 145.976 169.614 148.497C172.052 149.768 174.521 151.001 177.073 152.071C181.062 153.725 185.107 155.232 189.141 156.783C190.29 157.231 191.48 157.598 193.211 158.182C189.475 155.54 185.486 154.774 182.119 152.604C177.264 149.679 172.133 147.259 167.076 144.516C164.127 142.898 161.11 141.379 158.265 139.603C153.507 136.655 148.822 133.588 144.2 130.444C142.009 129.234 140.12 127.542 138.676 125.497C140.329 124.947 141.143 125.955 141.987 126.538C144.464 128.228 146.816 130.163 149.325 131.815C152.971 134.254 156.708 136.601 160.444 138.947C163.538 140.826 166.663 142.667 169.813 144.399C172.046 145.668 174.289 146.894 176.581 148.109C178.872 149.323 180.879 150.29 183.049 151.34C187.753 153.637 192.531 155.816 197.246 158.162C198.554 158.806 199.888 159.435 201.145 160.204C201.469 160.279 201.579 161.079 201.527 161.5C201.475 161.92 200.888 161.898 200.502 161.991C200.117 162.083 200.006 161.875 199.768 161.82C197.607 161.319 195.195 160.919 192.918 160.528C188.844 159.833 184.76 159.182 180.702 158.514C178.822 158.32 176.964 157.95 175.152 157.409C170.225 155.583 165.296 153.666 160.583 151.503C156.82 149.765 153.263 147.528 149.64 145.572C146.804 143.958 144.068 142.208 141.247 140.529C139.622 139.583 137.954 138.627 136.255 137.8C133.7 136.547 131.083 135.462 128.495 134.247C123.673 131.968 118.939 129.504 114.029 127.409C109.118 125.313 105.005 122.629 99.7583 122.277C96.608 120.545 93.3299 121.72 90.1094 121.861C88.9157 121.903 87.7282 122.311 87.761 124.231C88.8682 124.61 89.9964 124.925 91.1399 125.174C98.98 126.551 106.596 128.991 113.776 132.427C120.298 135.625 126.97 138.47 133.56 141.57C138.44 143.795 143.257 146.096 148.153 148.256C150.208 149.211 152.289 150.057 154.467 150.973C153.793 150.384 153.057 149.87 152.273 149.439C150.058 148.288 147.801 147.218 145.592 146.045C140.166 142.835 134.502 140.045 128.651 137.699C125.479 136.669 122.408 135.348 119.48 133.75C116.4 132.189 113.229 130.815 109.983 129.635L98.1167 124.447C97.4121 124.147 96.8988 123.709 97.7247 122.603L102.067 124.498C104.274 125.488 106.412 126.576 108.655 127.506C112.222 129.016 115.996 130.119 119.374 131.95C122.752 133.781 126.988 135.15 130.735 136.862C132.801 137.773 134.982 138.188 137.007 139.273C140.716 141.248 144.258 143.55 147.91 145.672C149.475 146.581 151.181 147.273 152.657 148.276C155.937 150.665 159.545 152.567 163.369 153.925C164.557 154.201 164.727 155.037 164.02 155.829C162.853 155.559 161.919 155.069 160.979 154.805C158.085 153.929 155.177 153.118 152.278 152.264C151.608 152.108 150.937 151.566 150.325 151.651C146.546 152.141 142.558 150.487 138.942 152.723C138.942 152.723 138.554 152.633 138.231 152.353L139.243 151.722L140.432 151.11L130.907 150.062C130.501 151.813 129.282 151.962 127.538 151.922C124.279 151.495 120.969 152.161 118.128 153.816C111.974 157.412 106.059 161.402 100.421 165.762C95.1674 170.053 89.3529 173.623 83.7693 177.474C82.4133 178.412 81.0773 179.263 79.5952 180.058C76.0151 182.142 72.4351 184.227 68.8269 186.236C68.3577 186.492 67.6447 186.326 67.0262 186.342L66.8988 185.812C67.5239 185.256 68.1896 184.749 68.8905 184.293C70.6173 183.327 72.4436 182.521 74.0939 181.492C76.2184 180.186 78.1156 178.485 80.3512 177.387C85.2434 174.947 89.3023 171.289 93.8359 168.333C96.0703 166.912 98.2229 165.366 100.283 163.703C101.981 162.154 103.826 160.774 105.792 159.584C108.036 158.213 110.2 156.715 112.275 155.099C108.207 155.805 104.369 157.476 101.08 159.972C96.4221 162.876 92.0128 166.18 87.4043 169.164C84.5442 171.187 81.3854 172.732 78.3509 174.624C71.8594 178.56 65.4177 182.576 58.9312 186.491C58.4388 186.691 58.0202 187.038 57.733 187.485C57.4459 187.932 57.3042 188.457 57.3275 188.988C59.9912 190.069 62.9085 190.367 65.7356 189.845C73.85 188.099 81.4081 184.377 87.7394 179.01C91.9859 175.623 96.0564 172.013 100.231 168.541C104.998 164.304 110.276 160.678 115.941 157.748C120.43 155.614 125.105 153.894 129.907 152.608C130.662 152.396 131.497 152.134 132.067 153.109C132.638 154.084 131.92 154.532 131.35 155.22C131.077 155.609 130.857 156.033 130.694 156.479L131.116 156.919C134.61 155.794 138.121 154.695 141.582 153.517C142.55 153.172 143.366 152.793 144.124 154.335L141.282 155.793C142.22 156.027 143.188 156.121 144.154 156.072C152.49 156.161 160.583 158.083 168.826 159.061C172.837 159.536 176.795 160.34 180.808 160.907C184.82 161.473 188.877 161.753 192.838 162.444C197.701 163.664 202.735 164.062 207.729 163.621C208.599 163.576 209.471 163.648 210.321 163.835C210.784 163.84 211.229 164.012 211.576 164.318C211.923 164.624 212.148 165.045 212.211 165.503C208.878 165.641 205.729 165.867 202.57 165.84C197.84 165.813 193.107 165.603 188.381 165.464C180.57 165.269 172.921 166.933 165.134 167.518C161.445 167.82 157.816 168.633 154.35 169.935C151.576 171 148.571 171.487 145.818 172.852C141.915 175.086 138.7 178.349 136.526 182.287C136.264 183.014 136.219 183.802 136.396 184.554C136.573 185.307 136.965 185.991 137.524 186.526C138.614 187.325 139.685 187.027 141.187 185.85C142.042 185.12 142.995 184.513 144.019 184.047C149.032 182.068 154.16 180.183 159.249 178.267C162.713 176.975 166.289 175.892 169.641 174.301C173.406 172.589 177.27 171.105 181.214 169.858C182.167 169.594 183.136 169.386 184.114 169.233C183.838 169.002 183.518 168.83 183.172 168.731C182.827 168.631 182.464 168.605 182.108 168.654C177.33 169.618 172.204 169.727 167.458 171.541C165.151 172.228 162.805 172.771 160.432 173.167C159.851 173.294 159.283 173.475 158.735 173.707C156.743 174.543 154.788 175.41 152.829 176.299L144.361 180.119C143.752 180.388 143.12 180.56 142.425 180.808C141.945 179.832 141.914 179.278 142.881 178.842C145.382 177.874 147.728 176.596 150.269 175.751C154.668 174.358 158.549 171.956 163.164 171.205C164.337 170.921 165.492 170.566 166.621 170.14C168.768 169.522 170.882 168.851 173.09 168.361C176.057 167.843 179.08 167.473 182.058 167.299C184.035 167.12 186.026 167.172 188.011 167.154C188.425 167.136 189.129 167.049 189.223 167.23C190.079 169.136 191.566 168.024 192.788 168.057C194.491 167.857 196.211 167.851 197.916 168.039C199.347 168.275 200.811 168.211 202.217 167.853C205.329 167.261 208.47 166.826 211.626 166.551C213.153 166.45 214.416 166.401 215.016 164.309L216.031 166.116C217.87 166.337 220.052 164.976 221.237 167.528C221.513 167.023 221.771 166.695 222.056 166.352L222.071 166.287ZM180.935 144.451L183.144 145.532C184.3 146.142 185.503 146.649 186.596 147.335C191.554 150.465 196.753 153.194 202.146 155.495C206.574 157.442 211.102 159.153 215.711 160.622C221.889 162.556 228.153 164.214 234.406 165.823C238.1 166.68 241.835 167.364 245.535 168.199C249.235 169.035 253.249 169.988 257.087 171.015C257.994 171.226 258.88 171.431 259.874 171.662C259.745 171.336 259.725 171.126 259.627 171.058L244.261 163.19C243.69 162.828 243.144 162.427 242.626 161.992C240.816 160.403 238.854 158.995 236.77 157.787C231.032 155.364 225.081 153.481 218.994 152.162C214.162 150.905 209.249 149.902 204.366 148.769C200.325 147.832 196.315 146.766 192.266 145.963C188.562 145.241 184.805 144.848 181.057 144.32L180.935 144.451ZM252.413 174.872C255.524 175.594 258.636 176.315 261.725 177.032C263.648 177.478 265.501 178.226 267.421 178.785C270.206 179.636 273.024 180.449 275.954 181.265C277.942 181.726 279.908 182.182 282.137 182.881C279.981 180.854 277.317 179.45 274.427 178.816C270.321 177.864 266.251 176.761 262.207 175.641C256.309 173.977 250.445 172.162 244.537 170.541C241.731 169.776 238.846 169.358 236.022 168.771L235.169 170.486C238.215 171.192 241.132 171.869 244.049 172.545C246.966 173.222 249.555 174.232 252.398 174.937L252.413 174.872ZM272.749 189.584C271.851 189.627 270.95 189.782 270.059 189.894L298.706 191.255C297.126 190.411 295.996 189.784 294.851 189.223C294.501 188.992 294.079 188.894 293.663 188.947C291.416 189.541 289.063 189.611 286.785 189.151C284.678 188.772 282.529 188.688 280.399 188.899C277.874 189.351 275.314 189.58 272.749 189.584V189.584ZM266.267 188.081C264.583 188.077 262.887 188.026 261.205 188.114C257.334 188.309 253.465 188.596 249.649 188.849C245.833 189.103 242.262 189.185 238.629 189.732C234.218 190.393 229.861 191.41 225.525 192.431C224.124 192.852 222.779 193.442 221.52 194.188C219.61 195.157 217.729 196.201 215.836 197.196C215.29 197.442 214.761 197.722 214.252 198.036C213.685 198.364 213.245 198.875 213.004 199.484C212.764 200.094 212.736 200.767 212.927 201.394C213.079 201.991 213.435 202.517 213.931 202.881C214.428 203.245 215.036 203.426 215.651 203.392C218.061 203.483 220.473 203.317 222.847 202.898C226.528 201.999 230.138 200.835 233.651 199.415C240.295 196.755 247.123 194.58 254.082 192.906C255.722 192.512 257.36 192.026 258.95 191.553L258.854 190.984C252.194 191.296 245.565 192.087 239.019 193.351C232.431 194.761 226.582 197.89 219.858 199.587C220.05 197.878 221.202 197.621 222.235 197.292C225.202 196.181 228.146 194.974 231.102 193.815C232.147 193.428 233.211 193.098 234.291 192.824C235.379 192.553 236.513 192.474 237.572 192.128C244.585 190.074 251.867 189.091 259.173 189.214C261.613 189.405 264.061 188.979 266.292 187.973L266.267 188.081ZM304.249 194.157C299.474 193.822 294.68 193.821 289.905 194.155C284.766 194.732 279.685 195.748 274.719 197.191C269.801 198.76 264.598 199.99 259.584 201.582C256.4 202.629 253.279 203.859 250.236 205.266C246.339 207.049 242.546 208.97 238.686 210.989C236.124 212.392 233.659 213.965 231.309 215.699C230.374 216.393 229.087 217.324 229.787 218.921C230.228 219.866 231.641 220.057 233.577 219.367C238.76 217.541 243.931 215.666 249.108 213.861C253.874 212.288 258.499 210.314 262.932 207.96C263.859 207.498 264.83 207.128 265.829 206.855L284.549 200.951C285.208 200.753 285.877 200.589 286.553 200.459C293.519 198.63 300.573 197.151 307.687 196.025C308.082 195.916 308.462 195.759 308.82 195.559C307.377 194.84 305.839 194.33 304.253 194.044L304.249 194.157ZM441.109 234.642C441.369 234.702 441.691 234.39 442.054 234.2C441.898 233.891 441.752 233.538 441.682 233.545C441.326 233.63 440.979 233.747 440.645 233.896C440.814 234.049 440.935 234.51 441.113 234.529L441.109 234.642ZM442.729 237.476C443.167 238.534 443.525 239.642 443.909 240.733C444.026 239.052 444.706 237.297 443.592 235.718C442.375 235.96 442.281 236.462 442.646 237.343L442.729 237.476ZM432.112 233.283C429.238 232.617 426.416 231.826 423.524 231.041C420.632 230.257 417.738 229.381 414.825 228.591C411.911 227.802 409.18 227.009 406.34 226.396C403.499 225.782 400.884 224.197 397.458 223.653C397.811 224.293 398.303 224.845 398.9 225.267C399.496 225.689 400.18 225.971 400.9 226.091C402.776 226.313 404.589 226.903 406.235 227.829C407.88 228.981 409.796 229.684 411.796 229.87C412.703 230.08 413.611 230.291 414.734 230.551C414.599 231.135 414.326 231.527 414.183 231.949L414.075 231.924L408.386 230.923L408.256 231.485C409.077 232.094 410.053 232.457 411.072 232.532C412.09 232.607 413.109 232.391 414.01 231.909L414.183 231.949C415.025 232.144 415.89 232.345 416.794 232.372C417.698 232.4 418.452 232.096 418.759 232.441C420.307 234.212 422.57 233.78 424.438 234.464C426.306 235.147 427.888 235.492 429.593 236.092C432.603 237.154 435.561 238.341 438.575 239.382C439.498 239.609 440.438 239.759 441.386 239.829L440.646 235.559C437.802 234.763 434.921 233.935 432.029 233.15L432.112 233.283ZM387.474 220.95L386.16 220.236L385.91 220.724L387.339 221.238L387.474 220.95ZM364.415 207.474C362.768 206.937 361.162 206.283 359.609 205.517C356.131 203.822 352.7 202.024 349.232 200.286C347.067 199.215 344.865 198.204 342.732 197.094C341.977 196.714 341.407 195.739 340.64 195.607C338.687 195.291 337.006 194.195 335.136 193.716C332.168 192.778 329.374 191.361 326.865 189.52C326.587 189.342 326.515 188.87 326.095 187.93C328.25 188.676 330.312 189.666 332.241 190.881C334.02 191.953 335.907 192.833 337.871 193.508C339.902 193.979 341.087 196.53 343.85 195.805C342.98 195.239 342.38 194.781 341.717 194.4C338.288 192.397 334.829 190.525 331.424 188.415C329.34 186.92 326.913 185.974 324.367 185.662L322.432 188.014C323.483 189.489 324.697 190.84 326.052 192.042C330.73 195.288 335.766 197.984 341.061 200.076C345.84 202.05 350.745 203.779 355.534 205.71C359.359 207.28 363.081 209.1 366.865 210.751C367.917 211.223 368.966 211.512 370.129 211.895C368.741 209.864 366.728 208.342 364.395 207.56L364.415 207.474ZM394.266 213.167C393.594 213.059 392.906 213.107 392.255 213.308C391.605 213.508 391.009 213.856 390.514 214.323L385.606 214.87L385.702 215.439C386.541 215.609 387.408 215.593 388.241 215.393C389.074 215.193 389.853 214.813 390.524 214.28C391.842 214.342 393.146 213.982 394.246 213.254L394.266 213.167ZM398.61 208.869C392.815 209.802 386.827 209.506 381.341 212.15C381.591 212.646 382.018 213.03 382.537 213.227C383.057 213.423 383.631 213.417 384.146 213.211L397.761 210.175C398.151 210.045 398.523 209.863 398.865 209.634L398.61 208.869ZM396.256 206.843L373.448 200.529C372.453 200.242 371.443 200.007 370.423 199.828C369.537 199.622 368.613 199.681 367.406 199.583C367.573 200.118 367.825 200.622 368.153 201.077C371.079 203.873 374.064 206.615 376.995 209.389C377.37 209.74 377.832 209.986 378.332 210.102C378.833 210.218 379.355 210.2 379.847 210.051C384.929 208.952 389.989 208.145 395.084 207.186C395.485 207.111 395.878 206.996 396.256 206.843ZM416.861 206.362C416.923 207.469 416.945 208.454 416.984 209.465L417.716 209.839C418.144 209.369 418.815 208.933 418.945 208.371C418.993 207.58 418.899 206.788 418.668 206.03L416.861 206.362ZM380.778 189.933L381.209 189.646C379.6 186.768 377.985 183.912 376.12 180.861C374.934 181.656 374.328 180.832 373.742 179.922C372.032 177.477 370.485 175.114 368.942 172.639C365.623 167.315 361.58 162.461 357.883 157.391C357.332 156.626 356.484 155.86 356.69 154.678C358.947 155.452 359.46 155.89 366.202 165.309C369.002 169.237 371.505 173.37 374.13 177.462C374.192 177.248 374.21 177.023 374.183 176.802C374.156 176.581 374.085 176.367 373.974 176.174C370.357 169.123 366.358 162.274 361.996 155.658C360.386 152.795 358.035 150.417 355.19 148.775C354.428 148.28 353.559 147.973 352.655 147.878C351.751 147.783 350.838 147.903 349.989 148.229C350.186 150.326 350.871 152.349 351.989 154.134C354.533 157.502 357.081 160.848 359.709 164.145C364.256 169.935 368.837 175.643 373.453 181.267C375.89 184.109 378.393 186.967 380.843 189.948L380.778 189.933ZM371.09 190.669C370.883 190.153 370.539 189.703 370.095 189.367C369.652 189.032 369.125 188.823 368.572 188.765C368.886 190.158 370.158 190.271 371.155 190.684L371.09 190.669ZM383.432 197.243C380.592 194.467 377.696 191.837 374.678 189.338C371.987 187.098 368.973 185.169 366.389 182.862C359.915 176.807 354.817 169.431 349.052 162.675C347.388 160.718 345.889 158.64 344.284 156.628C342.415 154.282 340.577 151.897 338.596 149.639C337.488 148.436 336.283 147.327 334.993 146.322C334.801 146.17 334.577 146.062 334.338 146.007C334.099 145.951 333.85 145.949 333.611 146.001C333.422 146.145 333.268 146.33 333.16 146.541C333.052 146.752 332.993 146.985 332.986 147.222C332.964 147.825 333.074 148.425 333.306 148.982C333.79 150.55 334.422 152.068 335.192 153.517C337.832 157.841 340.388 162.236 343.416 166.263C346.187 169.79 349.226 173.098 352.505 176.158C355.591 179.151 358.978 181.826 362.344 184.497C364.264 186.035 366.405 187.306 368.479 188.675C368.137 188.073 367.713 187.523 367.219 187.039C361.755 182.192 356.59 177.017 351.754 171.544C349.929 169.595 347.91 167.601 345.928 165.639C343.419 163.304 341.552 160.362 340.51 157.096C341.094 157.363 341.633 157.719 342.109 158.15C344.108 160.526 345.911 163.062 348.027 165.329C351.896 169.459 355.908 173.464 359.916 177.49C362.466 180.04 365.044 182.573 367.711 185.013C370.379 187.453 373.392 189.974 376.275 192.464C376.587 192.8 376.868 193.162 377.117 193.547L376.796 193.951L371.525 190.952C372.774 192.136 374.09 193.247 375.467 194.28C377.884 195.816 380.598 196.826 383.432 197.243V197.243ZM364.8 194.721C363.942 194.568 363.076 194.466 362.206 194.415C362.553 195.372 363.178 196.202 364.002 196.799C364.825 197.396 365.809 197.732 366.826 197.764C369.404 198.001 371.958 198.449 374.462 199.102C381.483 200.837 388.484 202.657 395.464 204.565C400.713 205.987 405.9 207.577 411.134 209.064C412.344 209.345 413.576 210.018 414.863 209.086C414.97 208.771 415.045 208.445 415.088 208.114C415.109 207.436 415.065 206.743 415.062 205.968C414.414 205.817 413.831 205.682 413.239 205.681C408.404 205.595 403.599 204.916 398.93 203.661C398.52 203.585 398.1 203.572 397.686 203.623C396.184 203.707 394.676 203.617 393.194 203.355C389.967 202.447 386.853 201.247 383.653 200.118C381.553 199.358 379.69 198.356 377.631 197.81C373.36 196.592 369.088 195.67 364.913 194.724L364.8 194.721ZM357.57 200.171C362.395 203.909 367.291 207.344 372.335 210.927C373.076 211.463 373.837 211.913 374.583 212.427C374.608 212.319 374.633 212.211 374.804 212.16L373.202 210.331L373.997 209.65L358.933 193.998C358.216 193.262 357.472 192.543 356.723 191.846C351.656 187.187 346.598 182.485 341.473 177.88C339.537 176.177 337.515 174.576 335.413 173.082C335.093 172.868 334.73 172.727 334.35 172.67C333.969 172.614 333.58 172.642 333.212 172.754C332.803 173.01 332.501 173.404 332.36 173.866C332.22 174.327 332.251 174.824 332.448 175.264C332.589 175.938 332.868 176.576 333.266 177.138C336.228 180.94 339.409 184.567 342.792 188C347.504 192.326 352.537 196.248 357.575 200.149L357.57 200.171ZM301.834 172.171C303.069 174.195 304.751 175.909 306.752 177.182C304.773 174.128 302.572 171.249 300.632 168.226C298.691 165.203 296.921 162.038 295.145 158.894C293.37 155.749 291.015 153.04 290.23 149.556L291.001 149.075C291.477 149.481 291.906 149.939 292.278 150.441C293.836 153.216 295.376 156.002 296.898 158.799C299.384 163.726 302.41 168.36 305.92 172.618C308.336 175.455 310.952 178.02 313.489 180.726L314.637 181.766C314.6 181.044 314.369 180.346 313.967 179.744C310.94 174.83 307.887 169.932 304.881 165.022C301.876 160.113 299.43 155.834 296.673 151.324C295.509 149.624 294.224 148.01 292.83 146.494C292.521 146.126 292.101 145.869 291.634 145.761C291.166 145.652 290.676 145.698 290.237 145.892C289.725 146.048 289.252 146.312 288.85 146.666C288.449 147.02 288.128 147.456 287.909 147.945C287.689 148.433 287.578 148.963 287.581 149.498C287.583 150.034 287.701 150.562 287.925 151.049C288.083 151.543 288.293 152.019 288.552 152.469C290.642 155.732 292.753 158.999 294.922 162.212C297.092 165.424 299.346 168.862 301.834 172.171ZM312.996 189.628C313.248 189.86 313.488 190.106 313.713 190.364L318.951 194.288L319.25 193.88L317.07 191.894C314.774 189.813 312.469 187.776 310.185 185.743C307.902 183.711 305.925 181.727 303.776 179.703C302.115 178.225 300.248 176.949 298.614 175.454C294.689 171.857 290.711 168.294 287.003 164.451C283.872 161.144 280.923 157.671 278.168 154.045C276.905 152.142 275.776 150.153 274.79 148.093C275.319 148.012 275.861 148.115 276.324 148.384C276.788 148.653 277.146 149.072 277.338 149.572C278.74 151.824 280.276 153.99 281.936 156.058C285.902 160.461 290.07 164.775 294.177 168.961C294.527 169.188 294.909 169.361 295.31 169.474C292.743 166.602 290.392 163.78 288.17 160.987C285.043 157.097 282.004 153.114 278.956 149.173C275.447 144.671 271.952 140.103 268.432 135.644C267.855 135.062 267.208 134.552 266.507 134.127L265.928 134.562C266.71 137.444 267.656 140.279 268.763 143.052C270.189 145.785 271.772 148.433 273.505 150.983C276.295 155.444 279.574 159.581 283.282 163.315C287.839 168.015 292.733 172.337 297.518 176.84C302.096 181.712 307.258 185.999 312.888 189.603L312.996 189.628ZM244.191 156.913C244.018 156.873 243.802 156.822 243.325 156.917L244.255 159.091L243.226 160.287C243.663 160.673 244.13 161.025 244.622 161.339C247.586 162.892 250.572 164.449 253.568 165.964C256.195 167.302 258.8 168.635 261.442 169.908C264.611 171.462 267.885 172.859 271.032 174.409C273.393 175.848 275.973 176.893 278.671 177.501C279.483 177.726 280.23 178.141 280.849 178.712C281.466 179.385 282.126 180.017 282.824 180.604C284.814 181.84 287.081 182.867 289.104 184.156C292.515 186.336 296.836 186.655 299.845 189.584C300.056 189.734 300.294 189.843 300.545 189.906C304.957 191.794 309.354 193.747 313.776 195.593C319.443 197.924 325.128 200.214 330.831 202.463C335.123 204.255 339.57 205.652 344.116 206.637C344.55 206.67 344.964 206.829 345.308 207.095C346.754 208.911 348.947 208.782 350.893 209.324C353.529 209.936 356.566 209.41 358.678 211.79C358.786 211.815 359.002 211.865 359.153 211.9C360.896 212.355 362.602 212.941 364.257 213.653C368.861 215.803 373.703 217.4 378.682 218.41C379.274 218.479 379.873 218.473 380.463 218.391C380.503 218.218 380.548 218.023 380.588 217.85C380.2 217.587 379.787 217.361 379.355 217.177C375.63 215.767 371.874 214.486 368.184 213.016C365.064 211.745 362.018 210.151 358.952 208.939C351.645 206.083 344.328 203.27 336.937 200.577C335.893 200.223 334.873 199.804 333.881 199.322C331.416 198.083 329.021 196.706 326.709 195.199C324.098 193.551 321.834 191.409 320.042 188.895C319.297 187.783 318.468 186.731 317.562 185.746C317.057 185.174 316.412 184.91 315.894 185.769C315.854 185.942 315.917 186.162 316.005 186.273C319.559 190.941 323.783 195.059 328.541 198.493C329.147 199.031 329.694 199.631 330.175 200.284C328.521 201.13 327.932 201.312 327.075 200.59C325.476 199.444 323.75 198.486 321.931 197.735C318.673 195.977 315.561 193.98 312.13 192.479C305.348 189.517 298.695 186.198 291.985 183.025C291.746 182.923 291.515 182.801 291.296 182.66C287.189 179.889 282.832 177.506 278.282 175.544C277.035 174.935 275.855 174.229 274.639 173.583L264.074 168.082C263.184 167.602 262.24 167.155 261.333 166.649L244.191 156.913ZM230.73 153.791L238.469 156.451L238.584 155.954C236.018 155.04 234.421 151.618 230.647 153.658L230.73 153.791ZM169.897 131.372C167.256 131.078 164.622 130.945 161.934 130.754C161.223 133.823 164.222 134.928 164.654 137.191C166.42 138.409 168.354 139.363 170.395 140.026C172.224 140.347 174.034 140.767 175.818 141.283C177.745 141.756 179.695 142.132 181.659 142.41C184.114 142.82 186.579 143.187 189.05 143.532C190.152 143.788 191.321 143.558 192.417 143.835C198.265 145.328 204.082 146.95 209.939 148.4C212.64 149.026 215.391 149.436 218.1 149.928C217.968 149.419 217.755 149.256 217.523 149.179C213.796 148.065 210.029 147.032 206.344 145.835C200.68 144.044 195.083 142.063 189.379 140.444C184.162 138.904 178.859 137.674 173.497 136.76C172.173 136.414 170.875 135.976 169.612 135.449C170.222 133.997 171.102 134.52 171.912 134.662C174.937 135.364 178.022 135.806 181.047 136.508C185.65 137.575 190.274 138.647 194.826 139.931C201.243 141.715 207.127 144.719 213.758 145.483C212.078 144.774 210.372 144.174 208.667 143.574C201.972 141.224 195.266 138.917 188.607 136.508C182.613 133.99 176.329 132.227 169.901 131.258L169.897 131.372ZM219.901 144.813C222.534 147.659 226.027 149.565 229.846 150.239C226.757 148.014 223.421 146.156 219.905 144.7L219.901 144.813ZM204.265 125.248C205.386 127.703 206.88 129.97 208.695 131.968C209.938 133.577 210.954 135.383 212.292 136.878C212.856 137.64 213.573 138.277 214.398 138.747C215.222 139.216 216.135 139.508 217.079 139.604L204.265 125.248ZM207.114 133.582C207.793 134.286 208.589 134.88 209.326 135.529L209.574 135.245C207.814 133.016 206.034 130.872 204.3 128.535C202.067 124.734 199.609 121.069 196.94 117.561C196.32 116.838 195.818 116.022 195.451 115.143C195.279 114.807 195.486 114.309 195.538 113.888L196.003 113.746L202.787 123.766C202.875 123.607 202.922 123.428 202.925 123.246C202.927 123.064 202.885 122.884 202.801 122.722C200.042 118.047 197.633 113.173 195.595 108.141C194.418 105.649 193.084 103.233 191.603 100.908C191.435 100.638 191.21 100.407 190.944 100.231C190.678 100.056 190.378 99.9394 190.063 99.8903C189.101 99.9175 189.035 100.79 188.979 101.62C188.599 105.502 189.599 109.394 191.803 112.612C193.007 114.394 194.019 116.314 195.077 118.13C196.566 120.745 198.189 123.28 199.942 125.725C202.19 128.501 204.708 130.997 207.114 133.582ZM171.305 116.465C172.227 117.514 173.214 118.504 174.261 119.428C175.322 120.179 176.437 120.849 177.599 121.431C174.154 121.361 171.985 119.128 169.703 117.187C167.953 118.648 167.913 119.504 169.583 120.847C173.908 124.142 178.625 126.888 183.626 129.022C189.52 131.687 195.434 134.266 201.328 136.93C203.388 137.864 205.414 138.948 207.589 139.976C206.908 139.103 206.08 138.356 205.141 137.769C202.813 136.319 200.459 134.885 198.09 133.515C194.297 131.315 190.482 129.11 186.652 126.969C184.332 125.68 181.913 124.527 179.567 123.254C179.203 123.056 179.022 122.558 178.637 122.059C181.419 122.044 191.196 126.816 196.909 130.851L201.289 133.369C200.108 131.98 198.937 130.547 196.909 130.851C196.728 130.353 196.669 129.725 196.315 129.483C193.45 127.407 190.611 125.314 187.598 123.477C183.608 121.049 179.567 118.837 175.526 116.624C174.919 116.18 174.192 115.927 173.44 115.898C172.688 115.87 171.944 116.067 171.305 116.465ZM138.879 102.433C138.842 102.545 138.815 102.661 138.799 102.779L152.271 107.428C152.296 107.32 152.326 107.191 152.351 107.083L138.879 102.433ZM132.917 97.9991C125.406 96.1205 117.727 94.7721 110.535 91.7152C104.898 89.315 99.0449 87.4565 93.2531 85.4302C88.6646 83.9107 84.0043 82.6021 79.359 81.2288C78.4637 80.911 77.5116 80.7853 76.5645 80.8598C75.6174 80.9344 74.6967 81.2076 73.8622 81.6617C72.157 82.6324 71.8667 83.5897 73.4465 84.7303C75.4587 86.3712 77.6718 87.7491 80.0323 88.8306C85.5628 91.0013 91.26 92.8463 96.8873 94.6978C98.7164 95.2243 100.583 95.6114 102.47 95.8561C108.574 96.9301 114.729 97.8794 120.813 99.0399C124.872 99.7991 128.851 100.904 132.922 101.712C131.426 100.87 129.839 100.204 128.191 99.7263C125.487 98.917 122.746 98.1675 120.037 97.3798C119.108 97.1644 118.234 96.7112 117.321 96.5223C112.516 95.5445 107.654 94.7129 102.884 93.5838C98.5621 92.5816 94.3158 91.2552 89.9448 89.8772C85.6452 88.8688 81.61 86.9549 78.1088 84.2632C79.4388 82.7501 80.5 83.7704 81.4388 84.2386C83.7054 85.4975 86.0459 86.6182 88.4477 87.5946C93.8489 89.4392 99.2902 91.111 104.81 92.6416C108.016 93.5445 111.322 94.0153 114.648 94.6956C116.398 95.1015 118.23 95.2531 119.965 95.7239C126.507 97.5598 132.939 99.8711 139.674 101.069C141.89 101.638 144.052 102.398 146.137 103.342L153.192 105.912C153.451 105.972 153.804 105.826 154.608 105.694C152.578 104.631 151.066 103.688 149.446 103.016C144.069 100.933 138.544 99.256 132.917 97.9991V97.9991ZM161.149 97.4198L159.568 91.4745C159.048 89.3958 158.437 87.3186 158.089 85.1885C156.812 79.341 156.916 73.2762 158.394 67.4762C158.708 66.1316 158.768 64.7401 158.571 63.3733C158.335 60.5634 159.739 58.3388 160.675 55.4819C161.008 55.9672 161.21 56.5303 161.262 57.1168C161.313 57.7032 161.212 58.293 160.969 58.8289C160.217 61.0295 159.91 63.3573 160.064 65.6775C160.091 66.8821 159.973 68.0856 159.711 69.2616C158.96 72.4555 158.742 75.7515 159.065 79.0166C159.278 80.4549 159.163 81.9311 159.258 83.3876C159.315 84.2206 159.507 85.062 159.647 86.0281C159.9 85.7225 160.065 85.6013 160.095 85.4717C161.044 79.6123 162.041 73.7413 162.872 67.9001C163.153 65.1996 163.739 62.5397 164.62 59.9717C165.003 58.648 165.278 57.2956 165.444 55.9277C166.01 51.5355 165.481 47.0716 163.904 42.9333C163.558 42.0989 163.124 41.3037 162.61 40.5611C161.306 40.9583 160.121 41.675 159.165 42.6459C158.208 43.6169 157.509 44.8115 157.131 46.1213C156.661 47.7771 156.351 49.4743 156.206 51.1894C155.28 59.6738 154.822 68.2028 154.834 76.7376C154.698 84.1263 156.909 91.3678 161.149 97.4198ZM154.066 95.3671L154.753 94.9572C154.312 94.3083 153.865 93.6811 153.45 93.0156C151.935 90.6149 150.42 88.2142 148.936 85.7753C148.172 84.5509 147.557 83.1786 146.784 81.9974C145.683 80.2622 144.343 78.6763 143.419 76.8681C142.028 74.1318 139.802 71.7486 139.51 68.493C137.64 66.7387 137.536 64.1417 136.466 61.9809C135.702 60.3691 134.809 58.8186 133.916 57.2682C133.023 55.7177 131.991 54.1804 131.178 52.5802C130.741 51.934 130.453 51.1982 130.336 50.4266C130.22 49.655 130.277 48.8671 130.505 48.1205C131.034 48.8809 131.386 49.3268 131.642 49.7959C132.27 51.1167 132.967 52.4032 133.731 53.6503C136.924 58.239 138.634 63.5311 141.118 68.4333C142.896 71.9576 144.692 75.4708 146.506 78.9729C146.741 79.2942 147.019 79.581 147.333 79.8251C145.04 72.8266 142.598 65.976 139.778 59.2879C137.607 54.1167 135.019 49.0764 132.497 44.1426C131.413 42.0018 129.651 40.2801 127.485 39.246C125.456 42.9878 124.092 46.6106 126.361 50.5749C128.113 53.6225 129.872 56.74 131.917 59.6052C134.474 63.177 136.638 67.015 138.37 71.0521C139.22 73.2838 140.241 75.4466 141.424 77.521C144.459 82.3008 147.676 86.986 150.898 91.6495C151.906 92.999 153.028 94.1473 154.066 95.3671ZM123.225 78.3324C123.617 78.535 124.033 78.6853 124.464 78.7793C123.494 77.562 122.403 76.4466 121.206 75.4507C117.36 72.0098 113.162 68.9832 108.682 66.4211C104.936 64.1265 101.436 61.453 98.237 58.4428C97.0661 57.306 95.8004 56.2839 94.5463 55.3099C91.857 53.1606 89.0462 51.1426 86.4518 48.8787C83.4803 46.2769 80.6138 43.5173 77.8488 40.7129C77.0384 39.8874 75.7739 39.2526 75.6693 37.5434C76.2305 37.7328 76.7676 37.9873 77.2695 38.3016C79.3873 40.0679 81.4469 41.889 83.533 43.6934C85.9414 45.7775 88.3232 47.8783 90.7848 49.9292C92.9076 51.6738 95.167 53.2225 97.2798 55.0103C99.3926 56.7982 100.949 58.1382 102.768 59.7213C105.509 62.0562 108.469 64.1227 111.606 65.8923C114.279 67.4231 116.889 69.0302 119.607 70.6625C118.708 69.1407 117.688 67.6935 116.558 66.3349C114.514 64.1531 112.263 62.1739 110.049 60.1349C105.435 55.8771 100.79 51.6575 96.1708 47.4213C94.4652 45.8417 92.7861 44.2455 91.0437 42.7257C86.5808 38.7989 82.0697 34.8837 77.6017 30.9786L70.7802 25.0475C69.6814 26.0061 68.8739 27.2541 68.4497 28.6492C68.0255 30.0443 68.0017 31.5306 68.3808 32.9386C70.0635 36.6411 72.4526 39.9796 75.4143 42.7668C77.8536 45.4046 80.7806 47.609 83.4213 50.0658C86.8327 53.2279 90.5245 56.0733 94.4513 58.5667C95.01 58.9692 95.539 59.4115 96.0342 59.8901C98.7633 62.1625 101.456 64.4946 104.221 66.7072C105.42 67.5373 106.665 68.2975 107.951 68.9839L123.225 78.3324ZM138.708 91.7825C137.758 91.0714 136.893 90.252 136.132 89.3408C135.357 88.0681 134.052 88.494 133.041 87.9409C132.869 87.9008 132.816 87.6381 132.674 87.5598C131.417 86.8488 130.122 86.2064 128.795 85.6353C126.704 84.8317 124.422 84.1658 122.242 83.4552C120.126 82.7596 118.12 82.1805 116.111 81.4186C111.453 79.6096 106.81 77.7359 102.178 75.9104C100.802 75.3635 99.401 74.9248 98.0019 74.2815C94.0737 72.3686 90.249 70.2065 86.2109 68.473C82.9024 67.0538 79.668 65.4678 76.5202 63.7209C73.4742 62.1085 70.6466 60.1136 68.106 57.7848C69.4103 56.9716 70.1644 57.6474 71.0565 58.2186C74.5423 60.5951 78.1558 62.7786 81.8807 64.7592C85.5048 66.5105 89.2754 68.0225 92.9011 69.8652C98.1767 72.546 103.697 74.7599 109.174 76.9637C113.681 78.7376 118.302 80.219 122.875 81.8034C123.295 81.8733 123.723 81.8805 124.145 81.8247C124.185 81.6518 124.23 81.4574 124.271 81.2845C122.616 80.6155 120.997 79.8601 119.422 79.0215C115.42 76.7985 111.199 74.9955 106.826 73.6411C102.533 72.274 98.3632 70.5453 94.3623 68.4736C90.5707 66.3647 86.9955 64.01 83.2938 61.8081C78.512 59.0597 73.642 56.4957 68.8702 53.7041C67.7429 53.0072 66.4614 52.5986 65.1387 52.5142C63.8161 52.4298 62.493 52.6723 61.2863 53.2204C61.5321 54.0534 61.9011 54.8451 62.381 55.569C63.8183 57.0657 65.337 58.4821 66.93 59.8118C71.3179 63.4465 76.2297 66.3973 81.4992 68.5643C89.2362 72.0209 97.0649 75.1799 104.94 78.2359C110.227 80.2816 115.668 81.9534 121.062 83.7283C121.343 83.7934 121.753 83.5012 122.117 83.4035C123.009 84.1315 123.964 84.7795 124.969 85.3402C129.203 87.2102 133.712 88.4836 137.453 91.4004C137.721 91.6219 138.087 91.6156 138.643 91.7675L138.708 91.7825ZM141.529 92.1863L140.977 92.6046L142.318 94.2819L142.822 93.8752L141.529 92.1863ZM88.4725 13.1664C88.0315 15.0679 89.1773 16.3127 89.9724 17.499C91.9345 20.231 94.1343 23.0181 96.1396 25.7602C99.8281 30.9646 103.272 36.34 107.072 41.4564C110.872 46.5729 113.866 51.434 116.977 56.573C117.784 58.0824 118.686 59.5388 119.678 60.9334C122.059 63.7691 123.985 66.9582 125.386 70.3862C126.22 72.9126 127.471 75.2811 129.089 77.3928C132.817 81.7411 136.104 86.4197 139.603 90.9655C139.794 90.8096 139.995 90.666 140.204 90.5356C138.792 88.4775 137.267 86.5074 136.01 84.3714C133.321 79.7632 131.716 74.6093 128.777 70.1023C127.087 67.57 125.692 64.9467 124.013 62.4627C121.529 58.7442 118.879 55.147 116.32 51.4567C113.76 47.7664 111.401 44.191 108.903 40.6288L98.1639 24.8862C97.2758 23.6101 96.4742 22.354 95.553 21.0246C95.1496 20.4074 94.9874 19.7322 96.2833 19.0537C104.261 30.0118 111.973 41.1359 119.419 52.426C118.163 48.8796 116.401 45.5335 114.186 42.4916C110.176 36.4157 106.201 30.4844 102.164 24.4251C100.011 21.0953 97.3745 18.1047 94.3403 15.5519C92.6919 14.1463 90.6341 13.3097 88.4725 13.1664ZM366.082 203.329C366.007 203.061 365.991 202.739 365.843 202.591C357.97 195.436 350.078 188.293 342.169 181.161C341.918 180.933 341.629 180.75 341.315 180.622C341.315 180.622 340.999 180.708 340.485 180.862C340.905 181.577 341.388 182.253 341.929 182.882C344.399 185.322 346.966 187.739 349.629 190.132C354.515 194.59 359.46 198.993 364.373 203.434C365.039 203.998 365.529 204.043 366.082 203.329ZM347.104 226.251C346.788 226.337 346.678 227.109 346.243 228.101C353.331 226.99 359.035 223.895 365.187 222.111C365.771 221.951 366.245 221.378 367.09 220.777C366.312 220.596 366.158 220.378 366.013 220.413C359.65 222.323 353.324 224.271 347.034 226.258L347.104 226.251ZM290.748 195.626C288.454 195.976 286.179 196.444 283.933 197.028C281.673 197.51 279.442 198.117 277.25 198.848C271.319 200.956 265.033 201.844 259.256 204.466C257.548 205.254 255.706 205.737 253.997 206.525C250.687 208.034 247.464 209.564 244.218 211.088C242.906 211.74 241.627 212.445 240.309 213.119L240.463 213.633C240.909 213.773 241.378 213.82 241.843 213.77C244.452 213.048 246.975 212.045 249.367 210.779C254.475 207.921 259.896 205.663 265.523 204.052C272.149 201.695 278.997 200.05 285.766 198.159C287.332 197.754 288.923 197.454 290.528 197.26C294.527 196.707 298.538 196.203 302.532 195.672L302.677 195.045C301.939 194.771 301.17 194.592 300.387 194.514C297.171 194.929 293.92 195.2 290.678 195.632L290.748 195.626ZM223.064 118.314C219.133 114.847 215.74 110.814 212.997 106.348C212.211 105.084 211.314 103.893 210.316 102.789L209.653 102.999C209.652 103.591 209.332 104.382 209.677 104.758C212.568 108.593 215.485 112.412 218.431 116.101C219.728 117.677 221.391 118.95 222.804 120.417C224.842 122.529 226.795 124.712 228.752 126.874C229.017 127.252 229.36 127.568 229.757 127.802C230.155 128.035 230.598 128.181 231.057 128.228L229.82 125.414C228.977 124.733 228.173 124.007 227.41 123.238C226.005 121.637 224.64 119.863 223.064 118.314ZM365.875 236.229C365.875 236.229 365.944 236.518 366.054 236.93C369.391 236.629 372.659 235.795 375.734 234.462C372.539 233.903 369.628 235.46 366.552 235.566C366.299 235.576 366.048 235.973 365.875 236.229Z" fill="#101A24"/>
</g>
<defs>
<clipPath id="clip0_70_21">
<rect width="446.812" height="192.464" fill="white" transform="translate(43.4822) rotate(13.0572)"/>
</clipPath>
</defs>
</svg>
